<?xml version="1.0" encoding="utf-8"?>
<!-- Generator: Adobe Illustrator 24.1.2, SVG Export Plug-In . SVG Version: 6.00 Build 0)  -->
<svg version="1.1" id="Layer_1" xmlns="http://www.w3.org/2000/svg" xmlns:xlink="http://www.w3.org/1999/xlink" x="0px" y="0px"
	 viewBox="0 0 182.63 73.07" style="enable-background:new 0 0 182.63 73.07;" xml:space="preserve">
<style type="text/css">
	.st0{fill:#FFFFFF;}
</style>
<g>
	<g>
		<path class="st0" d="M5.44,64.09c-1.39-0.68-2.45-1.67-3.17-2.97c-0.73-1.3-1.09-2.87-1.09-4.7V54.4c0-1.82,0.36-3.37,1.09-4.66
			c0.72-1.28,1.78-2.26,3.17-2.94c1.39-0.67,3.06-1.01,5.01-1.01c1.12,0,2.18,0.12,3.17,0.35c1,0.24,1.89,0.58,2.68,1.02
			c0.79,0.45,1.45,0.99,1.98,1.63l-3.5,3.11c-0.5-0.42-1.09-0.75-1.76-0.99c-0.67-0.24-1.38-0.35-2.12-0.35
			c-1.37,0-2.43,0.33-3.18,1c-0.75,0.67-1.13,1.61-1.13,2.83v2.01c0,1.25,0.38,2.22,1.13,2.9c0.75,0.68,1.81,1.02,3.18,1.02
			c0.75,0,1.46-0.13,2.14-0.38s1.25-0.62,1.74-1.08l3.5,3.29c-0.54,0.63-1.21,1.16-2,1.6c-0.79,0.44-1.68,0.78-2.67,1
			c-0.99,0.23-2.04,0.34-3.16,0.34C8.5,65.11,6.83,64.77,5.44,64.09z"/>
		<path class="st0" d="M25.41,64.15c-1.32-0.64-2.33-1.57-3.02-2.79c-0.69-1.22-1.04-2.7-1.04-4.42v-3.06c0-1.7,0.35-3.16,1.04-4.37
			c0.69-1.21,1.7-2.13,3.02-2.77c1.33-0.63,2.92-0.95,4.8-0.95c1.87,0,3.47,0.32,4.79,0.95s2.33,1.56,3.03,2.77
			c0.69,1.21,1.04,2.67,1.04,4.37v3.11c0,1.71-0.35,3.17-1.04,4.39c-0.69,1.21-1.7,2.14-3.03,2.78c-1.32,0.64-2.92,0.96-4.79,0.96
			C28.33,65.11,26.73,64.79,25.41,64.15z M32.73,59.46c0.61-0.58,0.91-1.41,0.91-2.47v-3.11c0-1.05-0.3-1.86-0.91-2.44
			c-0.61-0.58-1.46-0.87-2.55-0.87c-1.08,0-1.92,0.29-2.52,0.87c-0.6,0.58-0.9,1.39-0.9,2.44v3.11c0,1.06,0.3,1.88,0.89,2.47
			s1.44,0.88,2.53,0.88S32.13,60.04,32.73,59.46z"/>
		<path class="st0" d="M54.42,38.54h4.35l5.5,17.54l3.7-17.54h5.58l-6.62,26.29h-5.1l-5.1-18.37l-5.34,18.37h-5.1l-6.62-26.29h5.58
			l3.7,17.54L54.42,38.54z"/>
		<path class="st0" d="M77.39,64.15c-1.32-0.64-2.33-1.57-3.02-2.79c-0.69-1.22-1.04-2.7-1.04-4.42v-3.06c0-1.7,0.35-3.16,1.04-4.37
			c0.69-1.21,1.7-2.13,3.02-2.77c1.33-0.63,2.92-0.95,4.8-0.95c1.87,0,3.47,0.32,4.79,0.95s2.33,1.56,3.03,2.77
			c0.69,1.21,1.04,2.67,1.04,4.37v3.11c0,1.71-0.35,3.17-1.04,4.39c-0.69,1.21-1.7,2.14-3.03,2.78c-1.32,0.64-2.92,0.96-4.79,0.96
			C80.31,65.11,78.72,64.79,77.39,64.15z M84.72,59.46c0.61-0.58,0.91-1.41,0.91-2.47v-3.11c0-1.05-0.3-1.86-0.91-2.44
			c-0.61-0.58-1.46-0.87-2.55-0.87c-1.08,0-1.92,0.29-2.52,0.87c-0.6,0.58-0.9,1.39-0.9,2.44v3.11c0,1.06,0.3,1.88,0.89,2.47
			s1.44,0.88,2.53,0.88S84.11,60.04,84.72,59.46z"/>
		<path class="st0" d="M94.77,46.07h5.81v18.77h-5.81V46.07z M105.35,50.75c-0.38-0.12-0.82-0.18-1.32-0.18
			c-1.09,0-1.94,0.32-2.54,0.97c-0.6,0.64-0.9,1.54-0.9,2.69l-0.42-4.88c0.57-1.12,1.3-1.99,2.21-2.61c0.9-0.62,1.89-0.93,2.97-0.93
			c0.86,0,1.63,0.12,2.32,0.37s1.29,0.61,1.81,1.09l-3.16,4.03C106.06,51.05,105.73,50.87,105.35,50.75z"/>
		<path class="st0" d="M112.06,38.54h5.42v26.29h-5.42V38.54z M114.59,58.07l9.57-12.01h5.73l-14.57,17.47L114.59,58.07z
			 M119.45,55.15l4.47-2.46l6.98,12.15h-6.27L119.45,55.15z"/>
		<path class="st0" d="M133.17,38.54h5.42v4.96h-5.42V38.54z M133.17,46.07h5.42v18.77h-5.42V46.07z"/>
		<path class="st0" d="M143.63,46.07h5.42v18.77h-5.42V46.07z M155.5,53.46c0-0.92-0.29-1.63-0.86-2.13
			c-0.57-0.51-1.39-0.76-2.44-0.76c-1,0-1.78,0.26-2.32,0.77s-0.82,1.23-0.82,2.16l-0.42-4.16c0.62-1.18,1.36-2.07,2.22-2.66
			c0.86-0.59,1.95-0.89,3.25-0.89c2.16,0,3.84,0.67,5.02,2c1.19,1.33,1.78,3.22,1.78,5.65v11.39h-5.42V53.46z"/>
		<path class="st0" d="M167.62,64.15c-1.04-0.64-1.82-1.56-2.36-2.78c-0.54-1.21-0.81-2.67-0.81-4.39v-3c0-1.72,0.27-3.2,0.81-4.43
			c0.54-1.23,1.33-2.16,2.36-2.8c1.04-0.64,2.28-0.96,3.73-0.96c1.09,0,2.09,0.3,2.99,0.9c0.9,0.6,1.63,1.44,2.19,2.54l-0.42,4.16
			c0-0.64-0.12-1.18-0.36-1.63c-0.24-0.45-0.58-0.79-1.04-1.02s-1.01-0.35-1.65-0.35c-1.01,0-1.8,0.32-2.36,0.95
			c-0.56,0.63-0.84,1.52-0.84,2.67v2.98c0,1.12,0.28,1.99,0.84,2.6c0.56,0.61,1.35,0.92,2.36,0.92c0.65,0,1.2-0.11,1.65-0.34
			c0.46-0.23,0.8-0.56,1.04-0.99c0.24-0.43,0.36-0.96,0.36-1.57l0.28,4.29c-0.42,1.03-1.07,1.82-1.94,2.38
			c-0.87,0.56-1.9,0.84-3.1,0.84C169.9,65.11,168.65,64.79,167.62,64.15z M167.94,71.68c-1.29-0.52-2.28-1.26-3-2.21l3.64-3.06
			c0.46,0.46,1.02,0.81,1.66,1.06c0.64,0.25,1.32,0.37,2.02,0.37c1.13,0,2.06-0.28,2.78-0.85c0.72-0.57,1.08-1.35,1.08-2.35V46.07
			h5.42v18.21c0,1.72-0.36,3.2-1.08,4.43c-0.72,1.23-1.77,2.16-3.14,2.8c-1.38,0.64-3.04,0.96-4.99,0.96
			C170.68,72.47,169.22,72.21,167.94,71.68z"/>
	</g>
	<g>
		<path class="st0" d="M10.9,15.14c-0.76-0.19-1.6-0.29-2.49-0.29c-1.24,0-2.24,0.22-3,0.66c-0.76,0.44-1.14,1.04-1.14,1.8
			c0,0.74,0.25,1.31,0.74,1.74c0.49,0.42,1.41,0.84,2.76,1.25L9.4,20.8c1.82,0.57,3.15,1.21,4,1.94c0.85,0.73,1.28,1.68,1.28,2.87
			c0,1.68-0.71,2.99-2.14,3.95S9.32,31,7.14,31c-2,0-4.05-0.37-6.15-1.12c0.45-1.57,0.81-3.1,1.09-4.59l0.77-0.11l1.42,3.89
			c0.75,0.27,1.71,0.4,2.87,0.4c1.23,0,2.2-0.23,2.94-0.69c0.73-0.46,1.1-1.1,1.1-1.93c0-0.77-0.25-1.38-0.74-1.83
			c-0.49-0.45-1.28-0.83-2.36-1.16l-2.06-0.63c-1.78-0.54-3.01-1.2-3.69-1.96c-0.68-0.77-1.02-1.71-1.02-2.85
			c0-1.58,0.66-2.82,1.97-3.73c1.31-0.91,3.04-1.37,5.19-1.37c2,0,3.82,0.27,5.46,0.8c-0.37,1.37-0.71,2.83-1.01,4.36l-0.75,0.13
			L10.9,15.14z"/>
		<path class="st0" d="M31.76,28.9c-2.06,1.4-4.12,2.1-6.18,2.1c-2.07,0-3.63-0.48-4.66-1.45s-1.55-2.32-1.55-4.07v-3.83
			c0-2.58-0.03-4.52-0.08-5.81l-2.63-0.65l-0.1-0.61c2.31-0.39,4.45-0.81,6.43-1.27l0.18,0.13c-0.08,1.41-0.12,3.23-0.12,5.44v5.75
			c0,1.46,0.38,2.52,1.12,3.17c0.75,0.66,1.81,0.99,3.18,0.99c1.37,0,2.77-0.33,4.2-0.99v-7.7c0-1.69-0.03-3.1-0.08-4.25l-2.61-0.65
			l-0.1-0.61c2.3-0.39,4.43-0.81,6.41-1.27l0.18,0.13c-0.08,1.45-0.12,3.3-0.12,5.55c0,4.38,0.01,7.05,0.04,8.01
			c0.01,0.49,0.05,0.89,0.12,1.19c0.07,0.3,0.19,0.53,0.38,0.7c0.18,0.16,0.46,0.28,0.82,0.34c0.36,0.07,0.85,0.11,1.45,0.12
			l0.1,0.71c-0.61,0.22-1.31,0.42-2.1,0.62c-0.79,0.2-1.33,0.3-1.62,0.3C33.08,30.98,32.19,30.29,31.76,28.9z"/>
		<path class="st0" d="M44.69,3.39c-0.08,1.81-0.12,4.53-0.12,8.16v3.67c2.13-1.27,4.09-1.9,5.87-1.9c2.49,0,4.46,0.76,5.91,2.28
			c1.44,1.52,2.17,3.5,2.17,5.95c0,2.98-0.93,5.3-2.79,6.95c-1.86,1.66-4.44,2.49-7.74,2.49c-2.2,0-4.57-0.34-7.12-1.03
			c0.03-1.53,0.04-3.5,0.04-5.91V13.31c0-2.66-0.03-5.15-0.08-7.47l-2.67-0.72l-0.1-0.6c2.16-0.37,4.31-0.8,6.45-1.28L44.69,3.39z
			 M44.57,28.96c1.07,0.31,2.14,0.47,3.24,0.47c2.21,0,3.87-0.62,4.98-1.86c1.11-1.24,1.67-3.02,1.67-5.33
			c0-2.12-0.51-3.77-1.54-4.96s-2.55-1.77-4.56-1.77c-1.29,0-2.55,0.27-3.79,0.8V28.96z"/>
		<path class="st0" d="M74.54,28.9c-2.06,1.4-4.12,2.1-6.18,2.1c-2.07,0-3.63-0.48-4.66-1.45s-1.55-2.32-1.55-4.07v-3.83
			c0-2.58-0.03-4.52-0.08-5.81l-2.63-0.65l-0.1-0.61c2.31-0.39,4.45-0.81,6.43-1.27l0.18,0.13c-0.08,1.41-0.12,3.23-0.12,5.44v5.75
			c0,1.46,0.38,2.52,1.12,3.17c0.75,0.66,1.81,0.99,3.18,0.99c1.37,0,2.77-0.33,4.2-0.99v-7.7c0-1.69-0.03-3.1-0.08-4.25l-2.61-0.65
			l-0.1-0.61c2.3-0.39,4.43-0.81,6.41-1.27l0.18,0.13c-0.08,1.45-0.12,3.3-0.12,5.55c0,4.38,0.01,7.05,0.04,8.01
			c0.01,0.49,0.05,0.89,0.12,1.19c0.07,0.3,0.19,0.53,0.38,0.7c0.18,0.16,0.46,0.28,0.82,0.34c0.36,0.07,0.85,0.11,1.45,0.12
			l0.1,0.71c-0.61,0.22-1.31,0.42-2.1,0.62c-0.79,0.2-1.33,0.3-1.62,0.3C75.86,30.98,74.97,30.29,74.54,28.9z"/>
		<path class="st0" d="M82.99,14.58c2.2-0.39,4.3-0.81,6.29-1.27l0.2,0.13v2.12c2.44-1.5,4.83-2.24,7.18-2.24l0.1,0.11
			c-0.38,1.8-0.76,3.66-1.13,5.59l-0.79,0.13c-0.37-1.02-0.73-1.85-1.07-2.47c-0.34-0.62-0.88-0.93-1.62-0.93
			c-0.71,0-1.6,0.3-2.67,0.9v7.83c0,1.88,0.01,3.23,0.04,4.03c0.01,0.33,0.18,0.53,0.49,0.61l2.63,0.69l0.06,0.74
			c-2.06-0.04-3.73-0.05-5.03-0.05c-1.3,0-2.83,0.02-4.6,0.05l-0.08-0.74l2.29-0.62c0.32-0.1,0.48-0.28,0.49-0.56
			c0.01-0.52,0.02-1.26,0.02-2.22v-6.17c0-1.96-0.03-3.43-0.08-4.39l-2.63-0.65L82.99,14.58z"/>
		<path class="st0" d="M104.22,3.39c-0.08,1.81-0.12,4.53-0.12,8.16v3.67c2.13-1.27,4.09-1.9,5.87-1.9c2.49,0,4.46,0.76,5.91,2.28
			c1.44,1.52,2.17,3.5,2.17,5.95c0,2.98-0.93,5.3-2.79,6.95c-1.86,1.66-4.44,2.49-7.75,2.49c-2.2,0-4.57-0.34-7.12-1.03
			c0.03-1.53,0.04-3.5,0.04-5.91V13.31c0-2.66-0.03-5.15-0.08-7.47l-2.67-0.72l-0.1-0.6c2.16-0.37,4.31-0.8,6.45-1.28L104.22,3.39z
			 M104.1,28.96c1.07,0.31,2.14,0.47,3.24,0.47c2.21,0,3.87-0.62,4.98-1.86s1.67-3.02,1.67-5.33c0-2.12-0.51-3.77-1.54-4.96
			s-2.55-1.77-4.56-1.77c-1.29,0-2.55,0.27-3.79,0.8V28.96z"/>
		<path class="st0" d="M121.33,14.85c2.57-1.02,4.84-1.54,6.82-1.54c2.02,0,3.63,0.48,4.8,1.45c1.18,0.96,1.76,2.36,1.74,4.18
			l-0.1,7.52c-0.01,0.61,0,1.11,0.05,1.48c0.05,0.37,0.17,0.66,0.36,0.86s0.48,0.34,0.86,0.42c0.38,0.08,0.9,0.12,1.54,0.14
			l0.1,0.71c-0.57,0.21-1.26,0.41-2.08,0.61c-0.82,0.21-1.38,0.31-1.67,0.31c-1.29,0-2.18-0.6-2.66-1.81
			c-1.87,1.22-3.62,1.83-5.28,1.83c-1.85,0-3.34-0.41-4.47-1.24s-1.69-1.99-1.69-3.5c0-1.86,0.91-3.22,2.72-4.1
			c1.81-0.88,4.66-1.32,8.53-1.32l0.02-1.41c0.01-1.35-0.36-2.35-1.13-3c-0.77-0.65-1.94-0.98-3.52-0.98c-1.2,0-2.7,0.21-4.51,0.62
			L121.33,14.85z M130.92,22.3c-2.77,0-4.67,0.26-5.68,0.78c-1.01,0.52-1.52,1.39-1.52,2.62c0,1.15,0.33,1.96,1.01,2.43
			c0.67,0.48,1.58,0.71,2.74,0.71c1.3,0,2.44-0.21,3.42-0.63L130.92,22.3z"/>
		<path class="st0" d="M139.3,14.58c2.21-0.39,4.31-0.81,6.27-1.27l0.2,0.13v2.1c2.3-1.48,4.43-2.22,6.41-2.22
			c1.87,0,3.34,0.48,4.41,1.44s1.59,2.32,1.59,4.08v6.38c0,1.51,0.01,2.62,0.04,3.35c0.01,0.33,0.18,0.54,0.51,0.63l2.2,0.62
			l0.04,0.74c-1.74-0.04-3.26-0.05-4.56-0.05s-2.74,0.02-4.32,0.05l-0.08-0.74l1.98-0.52c0.3-0.1,0.47-0.28,0.49-0.56
			c0.01-0.17,0.02-0.55,0.02-1.14V19.7c0-1.48-0.39-2.55-1.16-3.19s-1.92-0.97-3.43-0.97c-1.33,0-2.7,0.35-4.12,1.05v7.9
			c0,1.51,0.01,2.89,0.04,4.14c0.01,0.33,0.17,0.53,0.46,0.61l2.06,0.56l0.04,0.74c-1.63-0.04-3.1-0.05-4.4-0.05
			s-2.83,0.02-4.6,0.05l-0.08-0.74l2.33-0.62c0.29-0.11,0.44-0.29,0.45-0.56c0.01-0.77,0.02-1.51,0.02-2.22v-6.17
			c0-1.58-0.03-3.04-0.08-4.39l-2.63-0.65L139.3,14.58z"/>
	</g>
</g>
</svg>
