<svg width="46" height="46" viewBox="0 0 46 46" fill="none" xmlns="http://www.w3.org/2000/svg">
<path d="M14.4584 28.8334V44.0834" stroke="black" stroke-width="2.88" stroke-linecap="round" stroke-linejoin="round"/>
<path d="M8.70837 44.5H20.2084" stroke="black" stroke-width="2.88" stroke-linecap="round" stroke-linejoin="round"/>
<path d="M2 16.375L3.8055 2.83187C3.83617 2.60153 3.9495 2.39017 4.12438 2.23715C4.29926 2.08413 4.52379 1.99986 4.75617 2.00004H24.1605C24.3942 1.99799 24.6206 2.08141 24.7971 2.23461C24.9736 2.3878 25.088 2.60021 25.1188 2.83187L26.9167 16.375C26.9167 19.6792 25.6041 22.848 23.2677 25.1844C20.9313 27.5208 17.7625 28.8334 14.4583 28.8334C11.1542 28.8334 7.98535 27.5208 5.64896 25.1844C3.31257 22.848 2 19.6792 2 16.375Z" stroke="black" stroke-width="2.88" stroke-linecap="round" stroke-linejoin="round"/>
<path d="M30 2V11.5833C30 13.1083 30.6058 14.5709 31.6841 15.6492C32.7625 16.7275 34.225 17.3333 35.75 17.3333C37.275 17.3333 38.7375 16.7275 39.8159 15.6492C40.8942 14.5709 41.5 13.1083 41.5 11.5833V2" stroke="black" stroke-width="2.88" stroke-linecap="round" stroke-linejoin="round"/>
<path d="M35.75 3V44.5" stroke="black" stroke-width="2.88" stroke-linecap="round" stroke-linejoin="round"/>
</svg>
