<svg viewBox="0 0 46 46" height="46" width="46" xmlns="http://www.w3.org/2000/svg"><g transform="matrix(1.9166666666666667,0,0,1.9166666666666667,0,0)"><path d="M21.978,14.934A3.7,3.7,0,0,1,23,17.382c0,3.241-5.037,5.87-11.25,5.87S.5,20.623.5,17.382a3.7,3.7,0,0,1,1.021-2.446" fill="none" stroke="#000" stroke-linecap="round" stroke-linejoin="round" stroke-width="1.5"></path><path d="M6.95,2.219A4.8,4.8,0,0,0,5.3,5.375c0,1.972,1.65,3.944,1.65,5.917A4.8,4.8,0,0,1,5.3,14.447" fill="none" stroke="#000" stroke-linecap="round" stroke-linejoin="round" stroke-width="1.5"></path><path d="M18.2,2.219a4.8,4.8,0,0,0-1.65,3.156c0,1.972,1.65,3.945,1.65,5.917a4.8,4.8,0,0,1-1.65,3.156" fill="none" stroke="#000" stroke-linecap="round" stroke-linejoin="round" stroke-width="1.5"></path><path d="M12.773.752a5.946,5.946,0,0,0-2.046,3.912c0,2.447,2.046,4.892,2.046,7.337a5.95,5.95,0,0,1-2.046,3.914" fill="none" stroke="#000" stroke-linecap="round" stroke-linejoin="round" stroke-width="1.5"></path></g></svg>