<svg viewBox="0 0 46 46" height="46" width="46" xmlns="http://www.w3.org/2000/svg"><g transform="matrix(1.9166666666666667,0,0,1.9166666666666667,0,0)"><path d="M21.75,9.75v9a3,3,0,0,1-3,3H5.25a3,3,0,0,1-3-3v-9" fill="none" stroke="#000" stroke-linecap="round" stroke-linejoin="round" stroke-width="1.5"></path><path d="M21.75,2.25H2.25a1.5,1.5,0,0,0-1.5,1.5v3h22.5v-3A1.5,1.5,0,0,0,21.75,2.25Z" fill="none" stroke="#000" stroke-linecap="round" stroke-linejoin="round" stroke-width="1.5"></path><path d="M15,11.25a1.5,1.5,0,0,1-1.5,1.5h-3a1.5,1.5,0,0,1,0-3h3A1.5,1.5,0,0,1,15,11.25Z" fill="none" stroke="#000" stroke-linecap="round" stroke-linejoin="round" stroke-width="1.5"></path></g></svg>