<svg viewBox="0 0 46 46" height="46" width="46" xmlns="http://www.w3.org/2000/svg"><g transform="matrix(1.9166666666666667,0,0,1.9166666666666667,0,0)"><path d="M20.25,21.411v-2.13l2.67-3.906c.879-1.5-.186-3.865-1.052-6.175" fill="none" stroke="#000" stroke-linecap="round" stroke-linejoin="round" stroke-width="1.5"></path><path d="M19.85,15.91,18.9,12.469a1.218,1.218,0,1,0-2.35.641L17.6,16.9l-.711,1.283a10.462,10.462,0,0,0-.489,3.227" fill="none" stroke="#000" stroke-linecap="round" stroke-linejoin="round" stroke-width="1.5"></path><path d="M3.751,21.411v-2.13L1.079,15.375C.2,13.873,1.265,11.51,2.131,9.2" fill="none" stroke="#000" stroke-linecap="round" stroke-linejoin="round" stroke-width="1.5"></path><path d="M4.15,15.91,5.1,12.469a1.218,1.218,0,1,1,2.35.641L6.4,16.9l.711,1.283A10.462,10.462,0,0,1,7.6,21.411" fill="none" stroke="#000" stroke-linecap="round" stroke-linejoin="round" stroke-width="1.5"></path><path d="M12 18.222L11.996 18.219 14.711 19.902" fill="none" stroke="#000" stroke-linecap="round" stroke-linejoin="round" stroke-width="1.5"></path><path d="M4.714,13.861,1.233,7.58a.979.979,0,0,1,.321-1.293L6.743,2.829a.49.49,0,0,1,.757.41V6.5H9.261a.489.489,0,0,1,.489.489V10.65l3,4.1v-4.5a.49.49,0,0,1,.052-.219L14.31,6.77a.489.489,0,0,1,.438-.27H16.5V3.239a.49.49,0,0,1,.757-.41l5.189,3.458a.979.979,0,0,1,.321,1.293l-3.481,6.281" fill="none" stroke="#000" stroke-linecap="round" stroke-linejoin="round" stroke-width="1.5"></path><path d="M12 18.222L12.004 18.219 9.289 19.902" fill="none" stroke="#000" stroke-linecap="round" stroke-linejoin="round" stroke-width="1.5"></path></g></svg>