<svg width="46" height="46" viewBox="0 0 46 46" fill="none" xmlns="http://www.w3.org/2000/svg">
<g clip-path="url(#clip0)">
<path d="M1.44128 7.1875H44.5663V44.5625H1.44128V7.1875Z" stroke="black" stroke-width="2.875" stroke-linecap="round" stroke-linejoin="round"/>
<path d="M1.44128 18.6875H44.5663" stroke="black" stroke-width="2.875" stroke-linecap="round" stroke-linejoin="round"/>
<path d="M12.9413 11.5V1.4375" stroke="black" stroke-width="2.875" stroke-linecap="round" stroke-linejoin="round"/>
<path d="M33.0663 11.5V1.4375" stroke="black" stroke-width="2.875" stroke-linecap="round" stroke-linejoin="round"/>
<path d="M14.7051 31.3789L18.0449 32.5566V34.1973L13 32.0586V30.6758L18.0449 28.5371V30.1777L14.7051 31.3789Z" fill="black"/>
<path d="M24.8242 30.6289H19.5859V29.2461H24.8242V30.6289ZM24.8242 33.166H19.5859V31.7832H24.8242V33.166Z" fill="black"/>
<path d="M32.2344 31.7891H33.2012V33.1543H32.2344V35H30.541V33.1543H27.043L26.9668 32.0879L30.5234 26.4688H32.2344V31.7891ZM28.6543 31.7891H30.541V28.7773L30.4297 28.9707L28.6543 31.7891Z" fill="black"/>
</g>
<defs>
<clipPath id="clip0">
<rect width="46" height="46" fill="white"/>
</clipPath>
</defs>
</svg>
