<svg width="46" height="46" viewBox="0 0 46 46" fill="none" xmlns="http://www.w3.org/2000/svg">
<g clip-path="url(#clip0)">
<path d="M1.44128 7.1875H44.5663V44.5625H1.44128V7.1875Z" stroke="black" stroke-width="2.875" stroke-linecap="round" stroke-linejoin="round"/>
<path d="M1.44128 18.6875H44.5663" stroke="black" stroke-width="2.875" stroke-linecap="round" stroke-linejoin="round"/>
<path d="M12.9413 11.5V1.4375" stroke="black" stroke-width="2.875" stroke-linecap="round" stroke-linejoin="round"/>
<path d="M33.0663 11.5V1.4375" stroke="black" stroke-width="2.875" stroke-linecap="round" stroke-linejoin="round"/>
<path d="M18.9766 35H17.2832V28.4727L15.2617 29.0996V27.7227L18.7949 26.457H18.9766V35Z" fill="black"/>
<path d="M25.1172 32.0293H21.8184V30.6641H25.1172V32.0293Z" fill="black"/>
<path d="M28.1289 29.9844H29.0312C29.4609 29.9844 29.7793 29.877 29.9863 29.6621C30.1934 29.4473 30.2969 29.1621 30.2969 28.8066C30.2969 28.4629 30.1934 28.1953 29.9863 28.0039C29.7832 27.8125 29.502 27.7168 29.1426 27.7168C28.8184 27.7168 28.5469 27.8066 28.3281 27.9863C28.1094 28.1621 28 28.3926 28 28.6777H26.3066C26.3066 28.2324 26.4258 27.834 26.6641 27.4824C26.9062 27.127 27.2422 26.8496 27.6719 26.6504C28.1055 26.4512 28.582 26.3516 29.1016 26.3516C30.0039 26.3516 30.7109 26.5684 31.2227 27.002C31.7344 27.4316 31.9902 28.0254 31.9902 28.7832C31.9902 29.1738 31.8711 29.5332 31.6328 29.8613C31.3945 30.1895 31.082 30.4414 30.6953 30.6172C31.1758 30.7891 31.5332 31.0469 31.7676 31.3906C32.0059 31.7344 32.125 32.1406 32.125 32.6094C32.125 33.3672 31.8477 33.9746 31.293 34.4316C30.7422 34.8887 30.0117 35.1172 29.1016 35.1172C28.25 35.1172 27.5527 34.8926 27.0098 34.4434C26.4707 33.9941 26.2012 33.4004 26.2012 32.6621H27.8945C27.8945 32.9824 28.0137 33.2441 28.252 33.4473C28.4941 33.6504 28.791 33.752 29.1426 33.752C29.5449 33.752 29.8594 33.6465 30.0859 33.4355C30.3164 33.2207 30.4316 32.9375 30.4316 32.5859C30.4316 31.7344 29.9629 31.3086 29.0254 31.3086H28.1289V29.9844Z" fill="black"/>
</g>
<defs>
<clipPath id="clip0">
<rect width="46" height="46" fill="white"/>
</clipPath>
</defs>
</svg>
