<svg width="46" height="46" viewBox="0 0 46 46" fill="none" xmlns="http://www.w3.org/2000/svg">
<g clip-path="url(#clip0)">
<path d="M1.44128 7.1875H44.5663V44.5625H1.44128V7.1875Z" stroke="black" stroke-width="2.875" stroke-linecap="round" stroke-linejoin="round"/>
<path d="M1.44128 18.6875H44.5663" stroke="black" stroke-width="2.875" stroke-linecap="round" stroke-linejoin="round"/>
<path d="M12.9413 11.5V1.4375" stroke="black" stroke-width="2.875" stroke-linecap="round" stroke-linejoin="round"/>
<path d="M33.0663 11.5V1.4375" stroke="black" stroke-width="2.875" stroke-linecap="round" stroke-linejoin="round"/>
<path d="M19.873 31.7891H20.8398V33.1543H19.873V35H18.1797V33.1543H14.6816L14.6055 32.0879L18.1621 26.4688H19.873V31.7891ZM16.293 31.7891H18.1797V28.7773L18.0684 28.9707L16.293 31.7891Z" fill="black"/>
<path d="M25.1172 32.0293H21.8184V30.6641H25.1172V32.0293Z" fill="black"/>
<path d="M31 26.3809V27.7754H30.8359C30.0703 27.7871 29.4531 27.9863 28.9844 28.373C28.5195 28.7598 28.2402 29.2969 28.1465 29.9844C28.5996 29.5234 29.1719 29.293 29.8633 29.293C30.6055 29.293 31.1953 29.5586 31.6328 30.0898C32.0703 30.6211 32.2891 31.3203 32.2891 32.1875C32.2891 32.7422 32.168 33.2441 31.9258 33.6934C31.6875 34.1426 31.3477 34.4922 30.9062 34.7422C30.4688 34.9922 29.9727 35.1172 29.418 35.1172C28.5195 35.1172 27.793 34.8047 27.2383 34.1797C26.6875 33.5547 26.4121 32.7207 26.4121 31.6777V31.0684C26.4121 30.1426 26.5859 29.3262 26.9336 28.6191C27.2852 27.9082 27.7871 27.3594 28.4395 26.9727C29.0957 26.582 29.8555 26.3848 30.7188 26.3809H31ZM29.3477 30.6523C29.0742 30.6523 28.8262 30.7246 28.6035 30.8691C28.3809 31.0098 28.2168 31.1973 28.1113 31.4316V31.9473C28.1113 32.5137 28.2227 32.957 28.4453 33.2773C28.668 33.5938 28.9805 33.752 29.3828 33.752C29.7461 33.752 30.0391 33.6094 30.2617 33.3242C30.4883 33.0352 30.6016 32.6621 30.6016 32.2051C30.6016 31.7402 30.4883 31.3652 30.2617 31.0801C30.0352 30.7949 29.7305 30.6523 29.3477 30.6523Z" fill="black"/>
</g>
<defs>
<clipPath id="clip0">
<rect width="46" height="46" fill="white"/>
</clipPath>
</defs>
</svg>
