<svg width="46" height="46" viewBox="0 0 46 46" fill="none" xmlns="http://www.w3.org/2000/svg">
<path d="M2.875 12.9375H43.125V44.5625H2.875V12.9375Z" stroke="black" stroke-width="2.875" stroke-linecap="round" stroke-linejoin="round"/>
<path d="M43 12.6672L38.9576 3.70929C38.7313 3.20004 38.362 2.76751 37.8944 2.46432C37.4269 2.16113 36.8813 2.00035 36.3241 2.00154L10.693 2.00154C10.1354 1.99998 9.58945 2.16059 9.12153 2.4638C8.65362 2.76701 8.28396 3.19974 8.05759 3.70929L2.90002 12.6672" stroke="black" stroke-width="2.875" stroke-linecap="round" stroke-linejoin="round"/>
<path d="M23 12.9375V2" stroke="black" stroke-width="2.875" stroke-linecap="round" stroke-linejoin="round"/>
<path d="M27.3125 35.9375H35.9375" stroke="black" stroke-width="2.875" stroke-linecap="round" stroke-linejoin="round"/>
<path d="M20.2534 20.3359L22.9927 28.0703L25.7173 20.3359H28.603V31H26.3984V28.085L26.6182 23.0532L23.7397 31H22.231L19.3599 23.0605L19.5796 28.085V31H17.3823V20.3359H20.2534Z" fill="black"/>
</svg>
