<svg width="46" height="46" viewBox="0 0 46 46" fill="none" xmlns="http://www.w3.org/2000/svg">
<path d="M2.875 12.9375H43.125V44.5625H2.875V12.9375Z" stroke="black" stroke-width="2.875" stroke-linecap="round" stroke-linejoin="round"/>
<path d="M43 12.6672L38.9576 3.70929C38.7313 3.20004 38.362 2.76751 37.8944 2.46432C37.4269 2.16113 36.8813 2.00035 36.3241 2.00154L10.693 2.00154C10.1354 1.99998 9.58945 2.16059 9.12153 2.4638C8.65362 2.76701 8.28396 3.19974 8.05759 3.70929L2.90002 12.6672" stroke="black" stroke-width="2.875" stroke-linecap="round" stroke-linejoin="round"/>
<path d="M23 12.9375V2" stroke="black" stroke-width="2.875" stroke-linecap="round" stroke-linejoin="round"/>
<path d="M27.3125 35.9375H35.9375" stroke="black" stroke-width="2.875" stroke-linecap="round" stroke-linejoin="round"/>
<path d="M24.8677 28.2021C24.8677 27.7871 24.7212 27.4697 24.4282 27.25C24.1353 27.0254 23.6079 26.791 22.8462 26.5469C22.0845 26.2979 21.4814 26.0537 21.0371 25.8145C19.8262 25.1602 19.2207 24.2788 19.2207 23.1704C19.2207 22.5942 19.3818 22.0815 19.7041 21.6323C20.0312 21.1782 20.4976 20.8242 21.103 20.5703C21.7134 20.3164 22.397 20.1895 23.1538 20.1895C23.9155 20.1895 24.5942 20.3286 25.1899 20.6069C25.7856 20.8804 26.2471 21.2686 26.5742 21.7715C26.9062 22.2744 27.0723 22.8457 27.0723 23.4854H24.875C24.875 22.9971 24.7212 22.6187 24.4136 22.3501C24.106 22.0767 23.6738 21.9399 23.1172 21.9399C22.5801 21.9399 22.1626 22.0547 21.8647 22.2842C21.5669 22.5088 21.418 22.8066 21.418 23.1777C21.418 23.5244 21.5913 23.8149 21.938 24.0493C22.2896 24.2837 22.8047 24.5034 23.4834 24.7085C24.7334 25.0845 25.644 25.5508 26.2153 26.1074C26.7866 26.6641 27.0723 27.3574 27.0723 28.1875C27.0723 29.1104 26.7231 29.8354 26.0249 30.3628C25.3267 30.8853 24.3867 31.1465 23.2051 31.1465C22.3848 31.1465 21.6377 30.9976 20.9639 30.6997C20.29 30.397 19.7749 29.9844 19.4185 29.4619C19.0669 28.9395 18.8911 28.334 18.8911 27.6455H21.0957C21.0957 28.8223 21.7988 29.4106 23.2051 29.4106C23.7275 29.4106 24.1353 29.3057 24.4282 29.0957C24.7212 28.8809 24.8677 28.583 24.8677 28.2021Z" fill="black"/>
</svg>
