<svg width="46" height="46" viewBox="0 0 46 46" fill="none" xmlns="http://www.w3.org/2000/svg">
<path d="M2.875 12.9375H43.125V44.5625H2.875V12.9375Z" stroke="black" stroke-width="2.875" stroke-linecap="round" stroke-linejoin="round"/>
<path d="M43 12.6672L38.9576 3.70929C38.7313 3.20004 38.362 2.76751 37.8944 2.46432C37.4269 2.16113 36.8813 2.00035 36.3241 2.00154L10.693 2.00154C10.1354 1.99998 9.58945 2.16059 9.12153 2.4638C8.65362 2.76701 8.28396 3.19974 8.05759 3.70929L2.90002 12.6672" stroke="black" stroke-width="2.875" stroke-linecap="round" stroke-linejoin="round"/>
<path d="M23 12.9375V2" stroke="black" stroke-width="2.875" stroke-linecap="round" stroke-linejoin="round"/>
<path d="M27.3125 35.9375H35.9375" stroke="black" stroke-width="2.875" stroke-linecap="round" stroke-linejoin="round"/>
<path d="M18.9351 24.0127L20.9346 20.3359H23.4614L20.356 25.624L23.542 31H20.9858L18.9351 27.2646L16.8843 31H14.3281L17.5142 25.624L14.4087 20.3359H16.9355L18.9351 24.0127Z" fill="black"/>
<path d="M26.8525 29.2349H31.5181V31H24.6553V20.3359H26.8525V29.2349Z" fill="black"/>
</svg>
