<svg width="46" height="46" viewBox="0 0 46 46" fill="none" xmlns="http://www.w3.org/2000/svg">
<path d="M2.875 12.9375H43.125V44.5625H2.875V12.9375Z" stroke="black" stroke-width="2.875" stroke-linecap="round" stroke-linejoin="round"/>
<path d="M43 12.6672L38.9576 3.70929C38.7313 3.20004 38.362 2.76751 37.8944 2.46432C37.4269 2.16113 36.8813 2.00035 36.3241 2.00154L10.693 2.00154C10.1354 1.99998 9.58945 2.16059 9.12153 2.4638C8.65362 2.76701 8.28396 3.19974 8.05759 3.70929L2.90002 12.6672" stroke="black" stroke-width="2.875" stroke-linecap="round" stroke-linejoin="round"/>
<path d="M23 12.9375V2" stroke="black" stroke-width="2.875" stroke-linecap="round" stroke-linejoin="round"/>
<path d="M27.3125 35.9375H35.9375" stroke="black" stroke-width="2.875" stroke-linecap="round" stroke-linejoin="round"/>
<path d="M14.167 24.0127L16.1665 20.3359H18.6934L15.5879 25.624L18.7739 31H16.2178L14.167 27.2646L12.1162 31H9.56006L12.7461 25.624L9.64062 20.3359H12.1675L14.167 24.0127Z" fill="black"/>
<path d="M23.7031 24.0127L25.7026 20.3359H28.2295L25.124 25.624L28.3101 31H25.7539L23.7031 27.2646L21.6523 31H19.0962L22.2822 25.624L19.1768 20.3359H21.7036L23.7031 24.0127Z" fill="black"/>
<path d="M31.6206 29.2349H36.2861V31H29.4233V20.3359H31.6206V29.2349Z" fill="black"/>
</svg>
