<svg viewBox="0 0 46 46" height="46" width="46" xmlns="http://www.w3.org/2000/svg"><g transform="matrix(1.9166666666666667,0,0,1.9166666666666667,0,0)"><path d="M18.936,23.25H5.064a1.442,1.442,0,0,1-1.383-1.136l-2.138-9A1.484,1.484,0,0,1,2.926,11.25H21.074a1.484,1.484,0,0,1,1.383,1.864l-2.138,9A1.442,1.442,0,0,1,18.936,23.25Z" fill="none" stroke="#000" stroke-linecap="round" stroke-linejoin="round" stroke-width="1.5"></path><path d="M7.5 14.25L7.5 20.25" fill="none" stroke="#000" stroke-linecap="round" stroke-linejoin="round" stroke-width="1.5"></path><path d="M12 14.25L12 20.25" fill="none" stroke="#000" stroke-linecap="round" stroke-linejoin="round" stroke-width="1.5"></path><path d="M16.5 14.25L16.5 20.25" fill="none" stroke="#000" stroke-linecap="round" stroke-linejoin="round" stroke-width="1.5"></path><path d="M9,2.006A7.585,7.585,0,0,0,3.782,8.271" fill="none" stroke="#000" stroke-linecap="round" stroke-linejoin="round" stroke-width="1.5"></path><path d="M20.221,8.309A7.579,7.579,0,0,0,15,2.006" fill="none" stroke="#000" stroke-linecap="round" stroke-linejoin="round" stroke-width="1.5"></path><path d="M9.000 0.750 L15.000 0.750 L15.000 3.750 L9.000 3.750 Z" fill="none" stroke="#000" stroke-linecap="round" stroke-linejoin="round" stroke-width="1.5"></path></g></svg>