<svg width="140" height="140" viewBox="0 0 140 140" fill="none" xmlns="http://www.w3.org/2000/svg">
<path d="M131.25 126.875C131.25 124.554 130.328 122.329 128.687 120.688C127.046 119.047 124.821 118.125 122.5 118.125H17.5C15.1794 118.125 12.9538 119.047 11.3128 120.688C9.67187 122.329 8.75 124.554 8.75 126.875C8.75 129.196 9.67187 131.421 11.3128 133.062C12.9538 134.703 15.1794 135.625 17.5 135.625H122.5C124.821 135.625 127.046 134.703 128.687 133.062C130.328 131.421 131.25 129.196 131.25 126.875Z" stroke="black" stroke-width="8.75" stroke-linecap="round" stroke-linejoin="round"/>
<path d="M122.5 118.125H17.5V39.375H70H122.5V118.125Z" stroke="black" stroke-width="8.75" stroke-linecap="round" stroke-linejoin="round"/>
<path d="M61.25 56.875V65.625" stroke="black" stroke-width="8.75" stroke-linecap="round" stroke-linejoin="round"/>
<path d="M78.75 56.875V65.625" stroke="black" stroke-width="8.75" stroke-linecap="round" stroke-linejoin="round"/>
<path d="M91.8749 83.1251C91.8749 95.2059 91.8749 113.75 69.9999 113.75C52.4999 113.75 51.2399 98.0292 48.8133 88.5909C48.6473 87.9419 48.6325 87.2635 48.7698 86.6078C48.9071 85.9522 49.1929 85.3368 49.6053 84.8089C50.0177 84.281 50.5457 83.8547 51.1486 83.5628C51.7516 83.2709 52.4134 83.1211 53.0833 83.1251H91.8749Z" stroke="black" stroke-width="8.75" stroke-linecap="round" stroke-linejoin="round"/>
<path d="M91.875 83.125C95.356 83.125 98.6944 84.5078 101.156 86.9692C103.617 89.4306 105 92.769 105 96.25" stroke="black" stroke-width="8.75" stroke-linecap="round" stroke-linejoin="round"/>
<path d="M8.75 4.375H131.25V39.375H8.75V4.375Z" stroke="black" stroke-width="8.75" stroke-linecap="round" stroke-linejoin="round"/>
<path d="M52.5 39.375H87.5V56.875H52.5V39.375Z" stroke="black" stroke-width="8.75" stroke-linecap="round" stroke-linejoin="round"/>
<path d="M111.563 17.5C111.995 17.5 112.418 17.6283 112.778 17.8687C113.138 18.109 113.418 18.4507 113.583 18.8504C113.749 19.2501 113.792 19.6899 113.708 20.1143C113.624 20.5386 113.415 20.9284 113.109 21.2343C112.803 21.5402 112.414 21.7486 111.989 21.833C111.565 21.9174 111.125 21.8741 110.725 21.7085C110.326 21.5429 109.984 21.2625 109.744 20.9028C109.503 20.5431 109.375 20.1201 109.375 19.6875C109.375 19.1073 109.605 18.5509 110.016 18.1407C110.426 17.7305 110.982 17.5 111.563 17.5Z" stroke="black" stroke-width="8.75" stroke-linecap="round" stroke-linejoin="round"/>
<path d="M89.6875 17.5C90.1201 17.5 90.5431 17.6283 90.9028 17.8687C91.2625 18.109 91.5429 18.4507 91.7085 18.8504C91.8741 19.2501 91.9174 19.6899 91.833 20.1143C91.7486 20.5386 91.5402 20.9284 91.2343 21.2343C90.9284 21.5402 90.5386 21.7486 90.1143 21.833C89.6899 21.9174 89.2501 21.8741 88.8504 21.7085C88.4507 21.5429 88.109 21.2625 87.8687 20.9028C87.6283 20.5431 87.5 20.1201 87.5 19.6875C87.5 19.1073 87.7305 18.5509 88.1407 18.1407C88.5509 17.7305 89.1073 17.5 89.6875 17.5" stroke="black" stroke-width="8.75" stroke-linecap="round" stroke-linejoin="round"/>
</svg>
