<svg width="140" height="140" viewBox="0 0 140 140" fill="none" xmlns="http://www.w3.org/2000/svg">
<path d="M4.375 13.125H135.625V109.375H4.375V13.125Z" stroke="black" stroke-width="8.75" stroke-linecap="round" stroke-linejoin="round"/>
<path d="M21.875 109.375V126.875" stroke="black" stroke-width="8.75" stroke-linecap="round" stroke-linejoin="round"/>
<path d="M118.125 109.375V126.875" stroke="black" stroke-width="8.75" stroke-linecap="round" stroke-linejoin="round"/>
<path d="M21.875 30.625H91.875V91.875H21.875V30.625Z" stroke="black" stroke-width="8.75" stroke-linecap="round" stroke-linejoin="round"/>
<path d="M74.375 48.125V74.375" stroke="black" stroke-width="8.75" stroke-linecap="round" stroke-linejoin="round"/>
<path d="M111.562 83.125C111.562 82.6924 111.691 82.2694 111.931 81.9097C112.172 81.55 112.513 81.2696 112.913 81.104C113.313 80.9384 113.752 80.8951 114.177 80.9795C114.601 81.0639 114.991 81.2723 115.297 81.5782C115.603 81.8841 115.811 82.2739 115.895 82.6982C115.98 83.1226 115.937 83.5624 115.771 83.9621C115.605 84.3618 115.325 84.7035 114.965 84.9438C114.606 85.1842 114.183 85.3125 113.75 85.3125C113.17 85.3125 112.613 85.082 112.203 84.6718C111.793 84.2616 111.562 83.7052 111.562 83.125Z" stroke="black" stroke-width="8.75" stroke-linecap="round" stroke-linejoin="round"/>
<path d="M111.562 56.875C111.562 56.4424 111.691 56.0194 111.931 55.6597C112.172 55.3 112.513 55.0196 112.913 54.854C113.313 54.6884 113.752 54.6451 114.177 54.7295C114.601 54.8139 114.991 55.0223 115.297 55.3282C115.603 55.6341 115.811 56.0239 115.895 56.4482C115.98 56.8726 115.937 57.3124 115.771 57.7121C115.605 58.1118 115.325 58.4535 114.965 58.6938C114.606 58.9342 114.183 59.0625 113.75 59.0625C113.17 59.0625 112.613 58.832 112.203 58.4218C111.793 58.0116 111.562 57.4552 111.562 56.875Z" stroke="black" stroke-width="8.75" stroke-linecap="round" stroke-linejoin="round"/>
</svg>
