<svg width="140" height="140" viewBox="0 0 140 140" fill="none" xmlns="http://www.w3.org/2000/svg">
<path d="M52.5 109.375C52.5 114.016 54.3437 118.467 57.6256 121.749C60.9075 125.031 65.3587 126.875 70 126.875C74.6413 126.875 79.0925 125.031 82.3744 121.749C85.6563 118.467 87.5 114.016 87.5 109.375C87.5 104.734 85.6563 100.283 82.3744 97.0006C79.0925 93.7187 74.6413 91.875 70 91.875C65.3587 91.875 60.9075 93.7187 57.6256 97.0006C54.3437 100.283 52.5 104.734 52.5 109.375Z" stroke="black" stroke-width="8.75" stroke-linecap="round" stroke-linejoin="round"/>
<path d="M100.917 78.4407C92.7121 70.2371 81.5849 65.6284 69.9825 65.6284C58.3801 65.6284 47.2529 70.2371 39.0483 78.4407" stroke="black" stroke-width="8.75" stroke-linecap="round" stroke-linejoin="round"/>
<path d="M119.496 59.8791C106.369 46.7525 88.5646 39.3782 70.0002 39.3782C51.4359 39.3782 33.6318 46.7525 20.5044 59.8791" stroke="black" stroke-width="8.75" stroke-linecap="round" stroke-linejoin="round"/>
<path d="M135.625 38.9724C117.808 22.3656 94.3567 13.1313 70 13.1313C45.6433 13.1313 22.1924 22.3656 4.375 38.9724" stroke="black" stroke-width="8.75" stroke-linecap="round" stroke-linejoin="round"/>
</svg>
