<svg xmlns="http://www.w3.org/2000/svg" viewBox="-0.5 -0.5 48 48" height="48" width="48"><defs></defs><title>air-polution-co2-no</title><path d="M17.14325 15.525666666666666a4.9682916666666666 4.9682916666666666 0 0 0 -4.966333333333333 4.966333333333333v2.4831666666666665a4.966333333333333 4.966333333333333 0 0 0 4.966333333333333 4.966333333333333" fill="none" stroke="#000000" stroke-linecap="round" stroke-linejoin="round" stroke-width="3"></path><path d="M24.674999999999997 15.525666666666666a2.9120416666666666 2.9120416666666666 0 0 0 -2.910083333333333 2.910083333333333v6.595666666666666a2.910083333333333 2.910083333333333 0 0 0 5.820166666666666 0V18.43575A2.910083333333333 2.910083333333333 0 0 0 24.674999999999997 15.525666666666666Z" fill="none" stroke="#000000" stroke-linecap="round" stroke-linejoin="round" stroke-width="3"></path><path d="M32.383 27.520458333333334a2.203125 2.203125 0 0 1 2.203125 -2.203125h0a2.203125 2.203125 0 0 1 2.203125 2.203125h0a3.1333333333333333 3.1333333333333333 0 0 1 -0.6893333333333332 1.9583333333333333l-3.720833333333333 4.647125h4.40625" fill="none" stroke="#000000" stroke-linecap="round" stroke-linejoin="round" stroke-width="3"></path><path d="M1.9583333333333333 23.5a21.541666666666664 21.541666666666664 0 1 0 43.08333333333333 0 21.541666666666664 21.541666666666664 0 1 0 -43.08333333333333 0" fill="none" stroke="#000000" stroke-linecap="round" stroke-linejoin="round" stroke-width="3"></path><path d="m13.21875 33.78125 -4.950666666666667 4.950666666666667" fill="none" stroke="#000000" stroke-linecap="round" stroke-linejoin="round" stroke-width="3"></path><path d="m38.1875 8.8125 -4.40625 4.40625" fill="none" stroke="#000000" stroke-linecap="round" stroke-linejoin="round" stroke-width="3"></path></svg>
