<svg xmlns="http://www.w3.org/2000/svg" viewBox="-0.5 -0.5 48 48" height="48" width="48"><defs></defs><title>aquascaping-plant</title><path d="M17.625 24.50658333333333v-3.1176666666666666c0 -3.401625 0.94 -5.7105 2.397 -6.548666666666666" fill="none" stroke="#000000" stroke-linecap="round" stroke-linejoin="round" stroke-width="3"></path><path d="M20.023958333333333 14.84025S14.857874999999998 0.41712499999999997 32.54358333333333 0.9967916666666666C27.720208333333332 4.895833333333333 31.542875 16.841666666666665 20.023958333333333 14.84025Z" fill="none" stroke="#000000" stroke-linecap="round" stroke-linejoin="round" stroke-width="3"></path><path d="M14.940124999999998 8.724375c-1.8075416666666666 -1.5666666666666667 -6.345 -4.439541666666666 -13.729875 -2.189416666666667 6.331291666666667 4.128166666666667 4.991791666666666 14.123499999999998 17.07470833333333 10.604375" fill="none" stroke="#000000" stroke-linecap="round" stroke-linejoin="round" stroke-width="3"></path><path d="m43.27916666666667 3.2097083333333334 -15.56875 23.666458333333335L14.360458333333334 31.333333333333332a1.709625 1.709625 0 0 0 -1.1652083333333332 1.9994583333333331h0a1.709625 1.709625 0 0 0 1.7762083333333334 1.3395000000000001l16.467625 -0.9595833333333332a3.9166666666666665 3.9166666666666665 0 0 0 2.8572083333333333 -1.4961666666666666L46.02083333333333 17.233333333333334" fill="none" stroke="#000000" stroke-linecap="round" stroke-linejoin="round" stroke-width="3"></path><path d="m17.611291666666666 39.166666666666664 0 6.854166666666666" fill="none" stroke="#000000" stroke-linecap="round" stroke-linejoin="round" stroke-width="3"></path><path d="M0.9791666666666666 41.125 11.75 41.125" fill="none" stroke="#000000" stroke-linecap="round" stroke-linejoin="round" stroke-width="3"></path><path d="m45.783875 41.125 -22.520833333333332 0" fill="none" stroke="#000000" stroke-linecap="round" stroke-linejoin="round" stroke-width="3"></path></svg>
