<svg width="88" height="88" viewBox="0 0 88 88" fill="none" xmlns="http://www.w3.org/2000/svg">
<path d="M84.1925 37.814L77.2999 32.2715C76.7641 31.8396 76.3457 31.2795 76.0835 30.6431C75.8213 30.0066 75.7238 29.3144 75.8 28.6303L76.7562 19.8365C76.8852 18.6689 76.7501 17.4871 76.361 16.3786C75.9719 15.2702 75.3387 14.2633 74.5081 13.4324C73.6776 12.6015 72.671 11.9679 71.5627 11.5783C70.4544 11.1887 69.2727 11.0531 68.1049 11.1816L59.3 12.1265C58.6159 12.2023 57.9238 12.1047 57.2874 11.8425C56.651 11.5804 56.0909 11.1622 55.6587 10.6265L50.1162 3.7378C49.3569 2.86043 48.4177 2.15669 47.3624 1.67436C46.307 1.19202 45.1603 0.942383 44 0.942383C42.8396 0.942383 41.6929 1.19202 40.6376 1.67436C39.5822 2.15669 38.643 2.86043 37.8837 3.7378L32.3412 10.6265C31.9106 11.1641 31.3507 11.5836 30.7139 11.8459C30.0771 12.1083 29.3842 12.2048 28.7 12.1265L19.9062 11.1816C18.7385 11.0526 17.5568 11.1877 16.4483 11.5768C15.3398 11.9659 14.3329 12.5991 13.502 13.4296C12.6712 14.2601 12.0375 15.2667 11.6479 16.3751C11.2583 17.4834 11.1227 18.6651 11.2512 19.8328L12.2075 28.6265C12.2854 29.3108 12.1887 30.0036 11.9264 30.6403C11.6641 31.2771 11.2447 31.837 10.7075 32.2678L3.80745 37.814C2.89223 38.5492 2.15366 39.4804 1.64618 40.5389C1.13869 41.5974 0.875244 42.7564 0.875244 43.9303C0.875244 45.1042 1.13869 46.2631 1.64618 47.3217C2.15366 48.3802 2.89223 49.3114 3.80745 50.0466L10.7 55.589C11.2369 56.0201 11.6561 56.58 11.9184 57.2167C12.1806 57.8534 12.2775 58.5461 12.2 59.2303L11.2437 68.024C11.1147 69.1917 11.2498 70.3735 11.6389 71.482C12.028 72.5904 12.6612 73.5973 13.4918 74.4282C14.3223 75.2591 15.3289 75.8927 16.4372 76.2823C17.5455 76.6719 18.7272 76.8075 19.895 76.679L28.6925 75.7228C29.3766 75.6466 30.0688 75.7442 30.7052 76.0063C31.3417 76.2685 31.9017 76.6869 32.3337 77.2228L37.8837 84.1265C38.6188 85.0418 39.55 85.7803 40.6086 86.2878C41.6671 86.7953 42.826 87.0588 44 87.0588C45.1739 87.0588 46.3328 86.7953 47.3914 86.2878C48.4499 85.7803 49.3811 85.0418 50.1162 84.1265L55.6587 77.234C56.0909 76.6984 56.651 76.2802 57.2874 76.0181C57.9238 75.7559 58.6159 75.6582 59.3 75.734L68.0937 76.6903C69.2614 76.8193 70.4431 76.6842 71.5516 76.2951C72.6601 75.906 73.667 75.2728 74.4979 74.4422C75.3288 73.6117 75.9624 72.6051 76.352 71.4968C76.7416 70.3885 76.8772 69.2068 76.7487 68.039L75.7925 59.2415C75.7142 58.5573 75.8107 57.8644 76.0731 57.2276C76.3354 56.5908 76.7549 56.0309 77.2925 55.6003L84.185 50.0578C85.1002 49.3227 85.8388 48.3915 86.3462 47.3329C86.8537 46.2744 87.1172 45.1155 87.1172 43.9415C87.1172 42.7676 86.8537 41.6087 86.3462 40.5501C85.8388 39.4916 85.1002 38.5604 84.185 37.8253L84.1925 37.814ZM45.5 55.4315C44.9239 56.1819 44.1953 56.8016 43.3622 57.2498C42.5292 57.6981 41.6105 57.9646 40.6669 58.032C39.7234 58.0993 38.7762 57.9658 37.8879 57.6404C36.9997 57.315 36.1905 56.805 35.5137 56.144L26.3487 47.0015C25.9905 46.6556 25.7049 46.2418 25.5083 45.7843C25.3118 45.3268 25.2083 44.8347 25.204 44.3368C25.1997 43.8389 25.2946 43.3451 25.4831 42.8842C25.6717 42.4234 25.9501 42.0047 26.3022 41.6526C26.6543 41.3005 27.073 41.022 27.5339 40.8335C27.9947 40.6449 28.4885 40.55 28.9865 40.5544C29.4844 40.5587 29.9765 40.6621 30.434 40.8587C30.8915 41.0552 31.3053 41.3409 31.6512 41.699L40.0925 50.1403L54.7512 30.599C55.3479 29.8034 56.2363 29.2774 57.2209 29.1367C57.7084 29.0671 58.2048 29.0942 58.6819 29.2164C59.1589 29.3386 59.6072 29.5536 60.0012 29.849C60.3952 30.1445 60.7271 30.5147 60.978 30.9384C61.2289 31.3622 61.3939 31.8312 61.4635 32.3187C61.5332 32.8062 61.5061 33.3027 61.3839 33.7797C61.2617 34.2568 61.0467 34.7051 60.7512 35.099L45.5 55.4315Z" fill="#7EA425"/>
</svg>
