<svg xmlns="http://www.w3.org/2000/svg" viewBox="-0.5 -0.5 48 48" height="48" width="48"><defs></defs><path d="M30.767374999999998 32.565125a2.990375 2.990375 0 1 0 5.98075 0 2.990375 2.990375 0 1 0 -5.98075 0" fill="none" stroke="#000000" stroke-linecap="round" stroke-linejoin="round" stroke-width="3"></path><path d="m36.29770833333333 20.997249999999998 0.88125 2.8944166666666664a1.9779166666666665 1.9779166666666665 0 0 0 2.33825 1.3590833333333332l2.9375 -0.6814999999999999a2.669208333333333 2.669208333333333 0 0 1 2.5458333333333334 4.421916666666666l-2.0542916666666664 2.2148749999999997a1.9994583333333331 1.9994583333333331 0 0 0 0 2.7162083333333333l2.0542916666666664 2.2148749999999997a2.669208333333333 2.669208333333333 0 0 1 -2.5458333333333334 4.421916666666666l-2.9375 -0.6795416666666666a1.9779166666666665 1.9779166666666665 0 0 0 -2.33825 1.357125l-0.88125 2.896375a2.6535416666666665 2.6535416666666665 0 0 1 -5.079916666666667 0l-0.8832083333333334 -2.896375a1.9779166666666665 1.9779166666666665 0 0 0 -2.33825 -1.357125l-2.9375 0.6795416666666666a2.66725 2.66725 0 0 1 -2.5458333333333334 -4.421916666666666l2.0542916666666664 -2.2148749999999997a1.9994583333333331 1.9994583333333331 0 0 0 0 -2.7162083333333333L22.520833333333332 28.983333333333334a2.66725 2.66725 0 0 1 2.5458333333333334 -4.421916666666666l2.9375 0.6814999999999999a1.9779166666666665 1.9779166666666665 0 0 0 2.3304166666666664 -1.3512499999999998l0.8832083333333334 -2.8944166666666664a2.6515833333333334 2.6515833333333334 0 0 1 5.079916666666667 0Z" fill="none" stroke="#000000" stroke-linecap="round" stroke-linejoin="round" stroke-width="3"></path><path d="m16.025041666666667 45.83479166666667 1.4942083333333334 -8.971125" fill="none" stroke="#000000" stroke-linecap="round" stroke-linejoin="round" stroke-width="3"></path><path d="m11.5385 45.83479166666667 13.955083333333333 0" fill="none" stroke="#000000" stroke-linecap="round" stroke-linejoin="round" stroke-width="3"></path><path d="M17.560375 36.86366666666667H7.05A5.98075 5.98075 0 0 1 1.0731666666666666 30.882916666666663V6.959916666666666A5.98075 5.98075 0 0 1 7.05 0.9791666666666666h32.9a5.98075 5.98075 0 0 1 5.98075 5.98075v11.462124999999999" fill="none" stroke="#000000" stroke-linecap="round" stroke-linejoin="round" stroke-width="3"></path><path d="M16.771166666666666 9.276625 12.521583333333334 14.942083333333333a1.4961666666666666 1.4961666666666666 0 0 1 -2.252083333333333 0.16058333333333333L7.962583333333333 12.79575" fill="none" stroke="#000000" stroke-linecap="round" stroke-linejoin="round" stroke-width="3"></path><path d="m16.771166666666666 20.73875 -4.249583333333333 5.665458333333333a1.4922499999999999 1.4922499999999999 0 0 1 -2.252083333333333 0.16058333333333333l-2.3069166666666665 -2.3049583333333334" fill="none" stroke="#000000" stroke-linecap="round" stroke-linejoin="round" stroke-width="3"></path><path d="m25.493583333333333 11.4445 10.964708333333334 0" fill="none" stroke="#000000" stroke-linecap="round" stroke-linejoin="round" stroke-width="3"></path></svg>
