<svg xmlns="http://www.w3.org/2000/svg" viewBox="-0.5 -0.5 48 48" height="48" width="48"><defs></defs><title>metal-sheet</title><path d="M22.003833333333333 36.96745833333333V8.536375c0 -4.132083333333333 -4.466958333333333 -7.4827916666666665 -9.97575 -7.4827916666666665S2.0523333333333333 4.4042916666666665 2.0523333333333333 8.536375v29.427874999999997" stroke-linecap="round" stroke-linejoin="round" fill="none" stroke="#000000" stroke-width="3"></path><path d="M12.028083333333333 30.982791666666664v5.4833333333333325c0 2.47925 2.6790000000000003 4.490458333333334 5.984666666666667 4.490458333333334h0.08225A3.8990416666666667 3.8990416666666667 0 0 0 21.93333333333333 36.81666666666667c-1.1044999999999998 -2.9375 -5.538166666666666 -5.833875 -9.905249999999999 -5.833875Z" stroke-linecap="round" stroke-linejoin="round" fill="none" stroke="#000000" stroke-width="3"></path><path d="M22.003833333333333 9.03575h20.954166666666666a1.9935833333333333 1.9935833333333333 0 0 1 1.9935833333333333 1.9935833333333333v32.92154166666666a1.9955416666666663 1.9955416666666663 0 0 1 -1.9935833333333333 1.9955416666666663H12.028083333333333c-5.51075 0 -9.97575 -3.3507083333333334 -9.97575 -7.4827916666666665s4.465 -7.480833333333333 9.97575 -7.480833333333333c4.443458333333333 0 8.976999999999999 2.9923333333333333 9.97575 5.984666666666667" stroke-linecap="round" stroke-linejoin="round" fill="none" stroke="#000000" stroke-width="3"></path><path d="M13.412625 7.245833333333334a0.9791666666666666 0.9791666666666666 0 1 0 1.9583333333333333 0 0.9791666666666666 0.9791666666666666 0 1 0 -1.9583333333333333 0" stroke-miterlimit="10" fill="none" stroke="#000000" stroke-width="3"></path><path d="M6.8854999999999995 10.968625a0.9791666666666666 0.9791666666666666 0 1 0 1.9583333333333333 0 0.9791666666666666 0.9791666666666666 0 1 0 -1.9583333333333333 0" stroke-miterlimit="10" fill="none" stroke="#000000" stroke-width="3"></path><path d="M13.412625 15.983916666666667a0.9791666666666666 0.9791666666666666 0 1 0 1.9583333333333333 0 0.9791666666666666 0.9791666666666666 0 1 0 -1.9583333333333333 0" stroke-miterlimit="10" fill="none" stroke="#000000" stroke-width="3"></path><path d="M13.412625 24.534a0.9791666666666666 0.9791666666666666 0 1 0 1.9583333333333333 0 0.9791666666666666 0.9791666666666666 0 1 0 -1.9583333333333333 0" stroke-miterlimit="10" fill="none" stroke="#000000" stroke-width="3"></path><path d="M6.8854999999999995 20.789666666666665a0.9791666666666666 0.9791666666666666 0 1 0 1.9583333333333333 0 0.9791666666666666 0.9791666666666666 0 1 0 -1.9583333333333333 0" stroke-miterlimit="10" fill="none" stroke="#000000" stroke-width="3"></path></svg>
