<svg viewBox="0 0 46 46" height="46" width="46" xmlns="http://www.w3.org/2000/svg">,,,,,,,,,,,,,,,<g transform="matrix(1.9166666666666667,0,0,1.9166666666666667,0,0)"><path d="M0.750 19.500 A3.750 3.750 0 1 0 8.250 19.500 A3.750 3.750 0 1 0 0.750 19.500 Z" fill="none" stroke="#000" stroke-linecap="round" stroke-linejoin="round" stroke-width="1.5"></path><path d="M.75,19.5V4.5a3.75,3.75,0,0,1,7.5,0v15" fill="none" stroke="#000" stroke-linecap="round" stroke-linejoin="round" stroke-width="1.5"></path><path d="M8.25,5.25h13.5a1.5,1.5,0,0,1,1.5,1.5v15a1.5,1.5,0,0,1-1.5,1.5H4.5" fill="none" stroke="#000" stroke-linecap="round" stroke-linejoin="round" stroke-width="1.5"></path><path d="M20.25 8.25L20.25 9.75" fill="none" stroke="#000" stroke-linecap="round" stroke-linejoin="round" stroke-width="1.5"></path><path d="M20.25 12.75L20.25 14.25" fill="none" stroke="#000" stroke-linecap="round" stroke-linejoin="round" stroke-width="1.5"></path><path d="M20.25 17.25L20.25 18.75" fill="none" stroke="#000" stroke-linecap="round" stroke-linejoin="round" stroke-width="1.5"></path><path d="M17.25 9.75L17.25 11.25" fill="none" stroke="#000" stroke-linecap="round" stroke-linejoin="round" stroke-width="1.5"></path><path d="M17.25 14.25L17.25 15.75" fill="none" stroke="#000" stroke-linecap="round" stroke-linejoin="round" stroke-width="1.5"></path><path d="M17.25 18.75L17.25 20.25" fill="none" stroke="#000" stroke-linecap="round" stroke-linejoin="round" stroke-width="1.5"></path><path d="M14.25 8.25L14.25 9.75" fill="none" stroke="#000" stroke-linecap="round" stroke-linejoin="round" stroke-width="1.5"></path><path d="M14.25 12.75L14.25 14.25" fill="none" stroke="#000" stroke-linecap="round" stroke-linejoin="round" stroke-width="1.5"></path><path d="M14.25 17.25L14.25 18.75" fill="none" stroke="#000" stroke-linecap="round" stroke-linejoin="round" stroke-width="1.5"></path><path d="M11.25 9.75L11.25 11.25" fill="none" stroke="#000" stroke-linecap="round" stroke-linejoin="round" stroke-width="1.5"></path><path d="M11.25 14.25L11.25 15.75" fill="none" stroke="#000" stroke-linecap="round" stroke-linejoin="round" stroke-width="1.5"></path><path d="M11.25 18.75L11.25 20.25" fill="none" stroke="#000" stroke-linecap="round" stroke-linejoin="round" stroke-width="1.5"></path><path d="M4.5,19.125a.375.375,0,1,1-.375.375.375.375,0,0,1,.375-.375" fill="none" stroke="#000" stroke-linecap="round" stroke-linejoin="round" stroke-width="1.5"></path></g></svg>