<svg viewBox="0 0 46 46" height="46" width="46" xmlns="http://www.w3.org/2000/svg">,,,,<g transform="matrix(1.9166666666666667,0,0,1.9166666666666667,0,0)"><path d="M6.75 23.251L3 23.251 0.75 6.751 13.5 6.751 13.134 9.434" fill="none" stroke="#000" stroke-linecap="round" stroke-linejoin="round" stroke-width="1.5"></path><path d="M6 17.251L8.25 0.751 12.75 1.501" fill="none" stroke="#000" stroke-linecap="round" stroke-linejoin="round" stroke-width="1.5"></path><path d="M11.25,20.251h10.5v1.5a1.5,1.5,0,0,1-1.5,1.5h-7.5a1.5,1.5,0,0,1-1.5-1.5Z" fill="none" stroke="#000" stroke-linecap="round" stroke-linejoin="round" stroke-width="1.5"></path><path d="M14.25,12.751h4.5a3,3,0,0,1,3,3v1.5H11.25v-1.5A3,3,0,0,1,14.25,12.751Z" fill="none" stroke="#000" stroke-linecap="round" stroke-linejoin="round" stroke-width="1.5"></path><path d="M9.750 17.251 L23.250 17.251 L23.250 20.251 L9.750 20.251 Z" fill="none" stroke="#000" stroke-linecap="round" stroke-linejoin="round" stroke-width="1.5"></path></g></svg>