<svg viewBox="0 0 46 46" height="46" width="46" xmlns="http://www.w3.org/2000/svg">,,,,,,,,<g transform="matrix(1.9166666666666667,0,0,1.9166666666666667,0,0)"><path d="M6.750 12.750 L23.250 12.750 L23.250 23.250 L6.750 23.250 Z" fill="none" stroke="#000" stroke-linecap="round" stroke-linejoin="round" stroke-width="1.5"></path><path d="M11.25 12.75L11.25 23.25" fill="none" stroke="#000" stroke-linecap="round" stroke-linejoin="round" stroke-width="1.5"></path><path d="M18.75 12.75L18.75 23.25" fill="none" stroke="#000" stroke-linecap="round" stroke-linejoin="round" stroke-width="1.5"></path><path d="M12,12.75a3,3,0,0,1,6,0" fill="none" stroke="#000" stroke-linecap="round" stroke-linejoin="round" stroke-width="1.5"></path><path d="M16.014,6.831,15.75,5.25l1.366.456a2.254,2.254,0,0,0,1.718-.123L19.5,5.25l.666.333a2.254,2.254,0,0,0,1.718.123L23.25,5.25l-.75,4.5" fill="none" stroke="#000" stroke-linecap="round" stroke-linejoin="round" stroke-width="1.5"></path><path d="M16.5,2.25a1.5,1.5,0,0,1,3,0v3" fill="none" stroke="#000" stroke-linecap="round" stroke-linejoin="round" stroke-width="1.5"></path><path d="M0.750 6.000 A5.250 5.250 0 1 0 11.250 6.000 A5.250 5.250 0 1 0 0.750 6.000 Z" fill="none" stroke="#000" stroke-linecap="round" stroke-linejoin="round" stroke-width="1.5"></path><path d="M4.359,5.016A1.641,1.641,0,1,1,6,6.657" fill="none" stroke="#000" stroke-linecap="round" stroke-linejoin="round" stroke-width="1.5"></path><path d="M6,8.578a.375.375,0,1,1-.375.375A.375.375,0,0,1,6,8.578" fill="none" stroke="#000" stroke-linecap="round" stroke-linejoin="round" stroke-width="1.5"></path></g></svg>