<svg viewBox="0 0 46 46" height="46" width="46" xmlns="http://www.w3.org/2000/svg">,,,,,,<g transform="matrix(1.9166666666666667,0,0,1.9166666666666667,0,0)"><path d="M11.25,17.25a6,6,0,1,1,6,6,6,6,0,0,1-6-6" fill="none" stroke="#000" stroke-linecap="round" stroke-linejoin="round" stroke-width="1.5"></path><path d="M17.25 20.25L17.25 14.25" fill="none" stroke="#000" stroke-linecap="round" stroke-linejoin="round" stroke-width="1.5"></path><path d="M17.25 14.25L15 16.5" fill="none" stroke="#000" stroke-linecap="round" stroke-linejoin="round" stroke-width="1.5"></path><path d="M17.25 14.25L19.5 16.5" fill="none" stroke="#000" stroke-linecap="round" stroke-linejoin="round" stroke-width="1.5"></path><path d="M8.25,18.75h-6a1.5,1.5,0,0,1-1.5-1.5V6.75a1.5,1.5,0,0,1,1.5-1.5h15a1.5,1.5,0,0,1,1.5,1.5v1.5" fill="none" stroke="#000" stroke-linecap="round" stroke-linejoin="round" stroke-width="1.5"></path><path d="M18.266,5.647,15.445,1.418A1.5,1.5,0,0,0,14.2.75H5.3a1.5,1.5,0,0,0-1.248.668L1.234,5.647" fill="none" stroke="#000" stroke-linecap="round" stroke-linejoin="round" stroke-width="1.5"></path><path d="M9.75 0.75L9.75 5.25" fill="none" stroke="#000" stroke-linecap="round" stroke-linejoin="round" stroke-width="1.5"></path></g></svg>