<svg viewBox="0 0 46 46" height="46" width="46" xmlns="http://www.w3.org/2000/svg">,,,,,,<g transform="matrix(1.9166666666666667,0,0,1.9166666666666667,0,0)"><path d="M8.25,18.75h-6a1.5,1.5,0,0,1-1.5-1.5V6.75a1.5,1.5,0,0,1,1.5-1.5h15a1.5,1.5,0,0,1,1.5,1.5v1.5" fill="none" stroke="#000" stroke-linecap="round" stroke-linejoin="round" stroke-width="1.5"></path><path d="M18.266,5.647,15.445,1.418A1.5,1.5,0,0,0,14.2.75H5.3a1.5,1.5,0,0,0-1.248.668L1.234,5.647" fill="none" stroke="#000" stroke-linecap="round" stroke-linejoin="round" stroke-width="1.5"></path><path d="M9.75 0.75L9.75 5.25" fill="none" stroke="#000" stroke-linecap="round" stroke-linejoin="round" stroke-width="1.5"></path><path d="M15 18.75L11.25 18.75 11.25 22.5" fill="none" stroke="#000" stroke-linecap="round" stroke-linejoin="round" stroke-width="1.5"></path><path d="M22.667,19.483a5.572,5.572,0,0,1-10.74-.733" fill="none" stroke="#000" stroke-linecap="round" stroke-linejoin="round" stroke-width="1.5"></path><path d="M19.5 15.75L23.25 15.75 23.25 12" fill="none" stroke="#000" stroke-linecap="round" stroke-linejoin="round" stroke-width="1.5"></path><path d="M11.833,15.017a5.572,5.572,0,0,1,10.74.733" fill="none" stroke="#000" stroke-linecap="round" stroke-linejoin="round" stroke-width="1.5"></path></g></svg>