<svg viewBox="0 0 46 46" height="46" width="46" xmlns="http://www.w3.org/2000/svg">,,,,<g transform="matrix(1.9166666666666667,0,0,1.9166666666666667,0,0)"><path d="M6,8.25V22.5a.75.75,0,0,0,.75.75h10.5A.75.75,0,0,0,18,22.5V8.25" fill="none" stroke="#000" stroke-linecap="round" stroke-linejoin="round" stroke-width="1.5"></path><path d="M18,12.75h3.75A.75.75,0,0,0,22.5,12V6.75a6,6,0,0,0-6-6H15a3,3,0,0,1-6,0H7.5a6,6,0,0,0-6,6V12a.75.75,0,0,0,.75.75H6" fill="none" stroke="#000" stroke-linecap="round" stroke-linejoin="round" stroke-width="1.5"></path><path d="M12 4.5L12 8.25" fill="none" stroke="#000" stroke-linecap="round" stroke-linejoin="round" stroke-width="1.5"></path><path d="M9,.75,7.9,5.168a.75.75,0,0,0,1.062.853L12,4.5" fill="none" stroke="#000" stroke-linecap="round" stroke-linejoin="round" stroke-width="1.5"></path><path d="M15,.75l1.1,4.418a.75.75,0,0,1-1.062.853L12,4.5" fill="none" stroke="#000" stroke-linecap="round" stroke-linejoin="round" stroke-width="1.5"></path></g></svg>