<svg viewBox="0 0 46 46" height="46" width="46" xmlns="http://www.w3.org/2000/svg">,,,,,,,<g transform="matrix(1.9166666666666667,0,0,1.9166666666666667,0,0)"><path d="M0.766 13.222L3.703 14.709" fill="none" stroke="#000" stroke-linecap="round" stroke-linejoin="round" stroke-width="1.5"></path><path d="M0.86 9.234L3.672 10.74" fill="none" stroke="#000" stroke-linecap="round" stroke-linejoin="round" stroke-width="1.5"></path><path d="M2.045 5.918L3.734 6.959" fill="none" stroke="#000" stroke-linecap="round" stroke-linejoin="round" stroke-width="1.5"></path><path d="M10.859 5.151L19.109 9.366" fill="none" stroke="#000" stroke-linecap="round" stroke-linejoin="round" stroke-width="1.5"></path><path d="M14.062,3.514,7.874,6.676a2.113,2.113,0,0,0-1.14,1.885V15.44a2.113,2.113,0,0,0,1.141,1.885l6.187,3.161a2.022,2.022,0,0,0,1.845,0l6.187-3.161a2.112,2.112,0,0,0,1.14-1.885V8.561a2.111,2.111,0,0,0-1.14-1.885L15.907,3.514A2.028,2.028,0,0,0,14.062,3.514Z" fill="none" stroke="#000" stroke-linecap="round" stroke-linejoin="round" stroke-width="1.5"></path><path d="M22.908 7.425L14.984 11.473 7.061 7.425" fill="none" stroke="#000" stroke-linecap="round" stroke-linejoin="round" stroke-width="1.5"></path><path d="M14.984 11.473L14.984 20.709" fill="none" stroke="#000" stroke-linecap="round" stroke-linejoin="round" stroke-width="1.5"></path><path d="M19.109 9.366L19.109 12.278" fill="none" stroke="#000" stroke-linecap="round" stroke-linejoin="round" stroke-width="1.5"></path></g></svg>