<svg viewBox="0 0 46 46" height="46" width="46" xmlns="http://www.w3.org/2000/svg">,,,,,,,,,,,,,,,,,,,,,,,,,,,,,<g transform="matrix(1.9166666666666667,0,0,1.9166666666666667,0,0)"><path d="M23.25 4.875L0.75 4.875" fill="none" stroke="#000" stroke-linecap="round" stroke-linejoin="round" stroke-width="1.5"></path><path d="M1.525,17.25a.375.375,0,0,1,.375.375" fill="none" stroke="#000" stroke-linecap="round" stroke-linejoin="round" stroke-width="1.5"></path><path d="M1.15,17.625a.375.375,0,0,1,.375-.375" fill="none" stroke="#000" stroke-linecap="round" stroke-linejoin="round" stroke-width="1.5"></path><path d="M1.525,18a.375.375,0,0,1-.375-.375" fill="none" stroke="#000" stroke-linecap="round" stroke-linejoin="round" stroke-width="1.5"></path><path d="M1.9,17.625A.375.375,0,0,1,1.525,18" fill="none" stroke="#000" stroke-linecap="round" stroke-linejoin="round" stroke-width="1.5"></path><path d="M4.525,13.5a.375.375,0,0,1,.375.375" fill="none" stroke="#000" stroke-linecap="round" stroke-linejoin="round" stroke-width="1.5"></path><path d="M4.15,13.875a.375.375,0,0,1,.375-.375" fill="none" stroke="#000" stroke-linecap="round" stroke-linejoin="round" stroke-width="1.5"></path><path d="M4.525,14.25a.375.375,0,0,1-.375-.375" fill="none" stroke="#000" stroke-linecap="round" stroke-linejoin="round" stroke-width="1.5"></path><path d="M4.9,13.875a.375.375,0,0,1-.375.375" fill="none" stroke="#000" stroke-linecap="round" stroke-linejoin="round" stroke-width="1.5"></path><path d="M8.275,17.25a.375.375,0,0,1,.375.375" fill="none" stroke="#000" stroke-linecap="round" stroke-linejoin="round" stroke-width="1.5"></path><path d="M7.9,17.625a.375.375,0,0,1,.375-.375" fill="none" stroke="#000" stroke-linecap="round" stroke-linejoin="round" stroke-width="1.5"></path><path d="M8.275,18a.375.375,0,0,1-.375-.375" fill="none" stroke="#000" stroke-linecap="round" stroke-linejoin="round" stroke-width="1.5"></path><path d="M8.65,17.625A.375.375,0,0,1,8.275,18" fill="none" stroke="#000" stroke-linecap="round" stroke-linejoin="round" stroke-width="1.5"></path><path d="M22.525,17.25a.375.375,0,0,0-.375.375" fill="none" stroke="#000" stroke-linecap="round" stroke-linejoin="round" stroke-width="1.5"></path><path d="M22.9,17.625a.375.375,0,0,0-.375-.375" fill="none" stroke="#000" stroke-linecap="round" stroke-linejoin="round" stroke-width="1.5"></path><path d="M22.525,18a.375.375,0,0,0,.375-.375" fill="none" stroke="#000" stroke-linecap="round" stroke-linejoin="round" stroke-width="1.5"></path><path d="M22.15,17.625a.375.375,0,0,0,.375.375" fill="none" stroke="#000" stroke-linecap="round" stroke-linejoin="round" stroke-width="1.5"></path><path d="M19.525,13.5a.375.375,0,0,0-.375.375" fill="none" stroke="#000" stroke-linecap="round" stroke-linejoin="round" stroke-width="1.5"></path><path d="M19.9,13.875a.375.375,0,0,0-.375-.375" fill="none" stroke="#000" stroke-linecap="round" stroke-linejoin="round" stroke-width="1.5"></path><path d="M19.525,14.25a.375.375,0,0,0,.375-.375" fill="none" stroke="#000" stroke-linecap="round" stroke-linejoin="round" stroke-width="1.5"></path><path d="M19.15,13.875a.375.375,0,0,0,.375.375" fill="none" stroke="#000" stroke-linecap="round" stroke-linejoin="round" stroke-width="1.5"></path><path d="M15.775,17.25a.375.375,0,0,0-.375.375" fill="none" stroke="#000" stroke-linecap="round" stroke-linejoin="round" stroke-width="1.5"></path><path d="M16.15,17.625a.375.375,0,0,0-.375-.375" fill="none" stroke="#000" stroke-linecap="round" stroke-linejoin="round" stroke-width="1.5"></path><path d="M15.775,18a.375.375,0,0,0,.375-.375" fill="none" stroke="#000" stroke-linecap="round" stroke-linejoin="round" stroke-width="1.5"></path><path d="M15.4,17.625a.375.375,0,0,0,.375.375" fill="none" stroke="#000" stroke-linecap="round" stroke-linejoin="round" stroke-width="1.5"></path><path d="M12.025,13.5a.375.375,0,0,1,.375.375" fill="none" stroke="#000" stroke-linecap="round" stroke-linejoin="round" stroke-width="1.5"></path><path d="M11.65,13.875a.375.375,0,0,1,.375-.375" fill="none" stroke="#000" stroke-linecap="round" stroke-linejoin="round" stroke-width="1.5"></path><path d="M12.025,14.25a.375.375,0,0,1-.375-.375" fill="none" stroke="#000" stroke-linecap="round" stroke-linejoin="round" stroke-width="1.5"></path><path d="M12.4,13.875a.375.375,0,0,1-.375.375" fill="none" stroke="#000" stroke-linecap="round" stroke-linejoin="round" stroke-width="1.5"></path><path d="M23.25,10.9c-1.93-1.228-5.155-3.8-8.825-1.05a4,4,0,0,1-4.8,0l0,0C6.057,7.176,2.939,9.509.75,10.9" fill="none" stroke="#000" stroke-linecap="round" stroke-linejoin="round" stroke-width="1.5"></path></g></svg>