<svg viewBox="0 0 46 46" height="46" width="46" xmlns="http://www.w3.org/2000/svg"><g transform="matrix(1.9166666666666667,0,0,1.9166666666666667,0,0)"><path d="M11.4,1.316,5.524,9.322A9.159,9.159,0,0,0,3.75,14.741h0A8.25,8.25,0,0,0,12,22.991h0a8.25,8.25,0,0,0,8.25-8.25h0a9.159,9.159,0,0,0-1.774-5.419L12.605,1.316A.75.75,0,0,0,11.4,1.316Z" fill="none" stroke="#000" stroke-linecap="round" stroke-linejoin="round" stroke-width="1.5"></path><path d="M18.363 19.991L12.75 19.991" fill="none" stroke="#000" stroke-linecap="round" stroke-linejoin="round" stroke-width="1.5"></path><path d="M20.216 15.491L12.75 15.491" fill="none" stroke="#000" stroke-linecap="round" stroke-linejoin="round" stroke-width="1.5"></path><path d="M19.447 10.991L12.75 10.991" fill="none" stroke="#000" stroke-linecap="round" stroke-linejoin="round" stroke-width="1.5"></path><path d="M16.4 6.491L12.75 6.491" fill="none" stroke="#000" stroke-linecap="round" stroke-linejoin="round" stroke-width="1.5"></path></g></svg>