<svg viewBox="0 0 46 46" height="46" width="46" xmlns="http://www.w3.org/2000/svg"><g transform="matrix(1.9166666666666667,0,0,1.9166666666666667,0,0)"><path d="M10.645,1.316,4.774,9.322A9.159,9.159,0,0,0,3,14.741H3a8.25,8.25,0,0,0,8.25,8.25h0a8.25,8.25,0,0,0,8.25-8.25h0a9.159,9.159,0,0,0-1.774-5.419L11.855,1.316A.75.75,0,0,0,10.645,1.316Z" fill="none" stroke="#000" stroke-linecap="round" stroke-linejoin="round" stroke-width="1.5"></path><path d="M17.614 19.991L12 19.991" fill="none" stroke="#000" stroke-linecap="round" stroke-linejoin="round" stroke-width="1.5"></path><path d="M18.697 10.991L14.25 10.991" fill="none" stroke="#000" stroke-linecap="round" stroke-linejoin="round" stroke-width="1.5"></path><path d="M15.65 6.491L12 6.491" fill="none" stroke="#000" stroke-linecap="round" stroke-linejoin="round" stroke-width="1.5"></path><path d="M22.5 22.991L1.5 1.991" fill="none" stroke="#000" stroke-linecap="round" stroke-linejoin="round" stroke-width="1.5"></path><path d="M19.466 15.491L18 15.491" fill="none" stroke="#000" stroke-linecap="round" stroke-linejoin="round" stroke-width="1.5"></path></g></svg>