<svg viewBox="0 0 46 46" height="46" width="46" xmlns="http://www.w3.org/2000/svg"><g transform="matrix(1.9166666666666667,0,0,1.9166666666666667,0,0)"><path d="M1.500 0.750 L9.000 0.750 L9.000 23.250 L1.500 23.250 Z" fill="none" stroke="#000" stroke-linecap="round" stroke-linejoin="round" stroke-width="1.5"></path><path d="M11.765.864l4.159,1.717a1.5,1.5,0,0,1,.814,1.959L9,21.75" fill="none" stroke="#000" stroke-linecap="round" stroke-linejoin="round" stroke-width="1.5"></path><path d="M19.081,5.79,22.11,9.118a1.5,1.5,0,0,1-.1,2.119L8.824,22.455" fill="none" stroke="#000" stroke-linecap="round" stroke-linejoin="round" stroke-width="1.5"></path><path d="M1.5 5.25L9 5.25" fill="none" stroke="#000" stroke-linecap="round" stroke-linejoin="round" stroke-width="1.5"></path><path d="M1.5 9.75L9 9.75" fill="none" stroke="#000" stroke-linecap="round" stroke-linejoin="round" stroke-width="1.5"></path><path d="M1.5 14.25L9 14.25" fill="none" stroke="#000" stroke-linecap="round" stroke-linejoin="round" stroke-width="1.5"></path><path d="M5.25,19.5a.375.375,0,1,1-.375.375A.375.375,0,0,1,5.25,19.5" fill="none" stroke="#000" stroke-linecap="round" stroke-linejoin="round" stroke-width="1.5"></path></g></svg>