<svg xmlns="http://www.w3.org/2000/svg" viewBox="0 0 46 46" height="46" width="46">
  
<g transform="matrix(1.9166666666666667,0,0,1.9166666666666667,0,0)"><g>
    <path d="M21.75,23.25H2.25a14.15,14.15,0,0,0,1.5-6.35V15.75h16.5V16.9A14.15,14.15,0,0,0,21.75,23.25Z" style="fill: none;stroke: #000000;stroke-linecap: round;stroke-linejoin: round;stroke-width: 1.5px"></path>
    <path d="M14.56,8.21h0A23,23,0,0,0,15,3.75h0a3,3,0,0,0-3-3h0a3,3,0,0,0-3,3H9a23,23,0,0,0,.44,4.46h0A1.29,1.29,0,0,1,8.18,9.75H5.25a3,3,0,0,0-3,3V15a.76.76,0,0,0,.75.75H21a.76.76,0,0,0,.75-.75V12.75a3,3,0,0,0-3-3H15.82A1.29,1.29,0,0,1,14.56,8.21Z" style="fill: none;stroke: #000000;stroke-linecap: round;stroke-linejoin: round;stroke-width: 1.5px"></path>
    <line x1="16.25" y1="23.25" x2="16.25" y2="19.25" style="fill: none;stroke: #000000;stroke-linecap: round;stroke-linejoin: round;stroke-width: 1.5px"></line>
    <line x1="12.25" y1="23.25" x2="12.25" y2="20.5" style="fill: none;stroke: #000000;stroke-linecap: round;stroke-linejoin: round;stroke-width: 1.5px"></line>
  </g></g></svg>