<svg width="34" height="47" viewBox="0 0 34 47" fill="none" xmlns="http://www.w3.org/2000/svg">
<path d="M15.7636 1.40341L3.65552 17.9006C1.27992 21.139 -0.000666509 25.0508 2.60246e-07 29.067C2.60246e-07 33.5757 1.79107 37.8997 4.97919 41.0879C8.16731 44.276 12.4913 46.067 17 46.067C21.507 46.067 25.8295 44.2773 29.0173 41.0914H18.0751C17.2216 41.0914 16.5296 40.3995 16.5296 39.5459C16.5296 38.6924 17.2216 38.0005 18.0751 38.0005H31.4636C32.5093 36.3074 33.2505 34.4422 33.6518 32.4906H18.0751C17.2216 32.4906 16.5296 31.7987 16.5296 30.9451C16.5296 30.0916 17.2216 29.3997 18.0751 29.3997H33.9967C33.9989 29.2889 34 29.178 34 29.067C34.0004 26.9244 33.6361 24.8115 32.9354 22.8147H18.0751C17.2216 22.8147 16.5296 22.1228 16.5296 21.2692C16.5296 20.4157 17.2216 19.7238 18.0751 19.7238H31.5268C31.1694 19.0962 30.7749 18.4874 30.3445 17.9006L26.8525 13.1388H18.0751C17.2216 13.1388 16.5296 12.4469 16.5296 11.5934C16.5296 10.7398 17.2216 10.0479 18.0751 10.0479H24.5859L18.2467 1.40341C18.1029 1.2095 17.9157 1.05196 17.7002 0.943411C17.4846 0.834861 17.2465 0.77832 17.0052 0.77832C16.7638 0.77832 16.5257 0.834861 16.3102 0.943411C16.0946 1.05196 15.9074 1.2095 15.7636 1.40341Z" fill="black"/>
</svg>
