<svg width="46" height="46" viewBox="0 0 46 46" fill="none" xmlns="http://www.w3.org/2000/svg">
<path d="M44.0834 22.6378C44.0976 28.2673 41.8923 33.6756 37.9456 37.6901C33.999 41.7046 28.629 44.0017 23 44.0834C20.2509 44.1247 17.5208 43.6199 14.9683 42.598C12.4157 41.5762 10.0914 40.0578 8.13017 38.1308C6.16895 36.2038 4.60982 33.9066 3.54322 31.3724C2.47661 28.8382 1.92376 26.1175 1.91671 23.368C1.90098 17.7375 4.1056 12.3277 8.05242 8.31199C11.9992 4.29627 17.3701 1.99839 23 1.91669C25.7496 1.87558 28.48 2.38081 31.0329 3.40308C33.5857 4.42535 35.9101 5.94431 37.8714 7.87186C39.8326 9.79942 41.3917 12.0972 42.458 14.6319C43.5244 17.1666 44.0768 19.8879 44.0834 22.6378Z" stroke="black" stroke-width="2.88" stroke-linecap="round" stroke-linejoin="round"/>
<path d="M23 26.8429V13.4263" stroke="black" stroke-width="2.88" stroke-linecap="round" stroke-linejoin="round"/>
<path d="M22.9828 30.6763C22.9202 30.6772 22.8583 30.6907 22.801 30.716C22.7436 30.7412 22.6919 30.7777 22.6488 30.8233C22.6058 30.8688 22.5723 30.9225 22.5503 30.9812C22.5283 31.0399 22.5183 31.1024 22.5209 31.165C22.5254 31.2908 22.5784 31.41 22.6688 31.4975C22.7592 31.5851 22.88 31.6342 23.0058 31.6346V31.6346C23.0684 31.6334 23.1301 31.6197 23.1874 31.5944C23.2446 31.569 23.2962 31.5326 23.3392 31.4871C23.3822 31.4416 23.4157 31.388 23.4378 31.3294C23.4599 31.2708 23.47 31.2084 23.4677 31.1459C23.4639 31.0229 23.4135 30.9059 23.3266 30.8187C23.2398 30.7315 23.1231 30.6806 23.0001 30.6763H22.9905" stroke="black" stroke-width="2.88" stroke-linecap="round" stroke-linejoin="round"/>
</svg>
