<svg width="46" height="46" viewBox="0 0 46 46" fill="none" xmlns="http://www.w3.org/2000/svg">
<path d="M2.6479 29.8239C2.23988 30.2373 2.01111 30.7948 2.01111 31.3756C2.01111 31.9564 2.23988 32.5138 2.6479 32.9272L13.2356 43.5149C13.4391 43.7191 13.6809 43.8811 13.9472 43.9917C14.2134 44.1023 14.4989 44.1592 14.7872 44.1592C15.0755 44.1592 15.361 44.1023 15.6273 43.9917C15.8935 43.8811 16.1353 43.7191 16.3389 43.5149L43.3557 16.4981C43.5599 16.2946 43.7219 16.0527 43.8325 15.7865C43.9431 15.5202 44 15.2347 44 14.9464C44 14.6581 43.9431 14.3727 43.8325 14.1064C43.7219 13.8401 43.5599 13.5983 43.3557 13.3948L39.1571 9.19623C38.9536 8.99201 38.7118 8.82998 38.4455 8.71942C38.1793 8.60885 37.8938 8.55194 37.6055 8.55194C37.3172 8.55194 37.0317 8.60885 36.7654 8.71942C36.4992 8.82998 36.2573 8.99201 36.0538 9.19623L14.7872 30.4628L9.94974 25.6254C9.53637 25.2174 8.97892 24.9886 8.3981 24.9886C7.81728 24.9886 7.25983 25.2174 6.84646 25.6254L2.6479 29.8239Z" stroke="black" stroke-width="2.88" stroke-linecap="round" stroke-linejoin="round"/>
</svg>
