<svg viewBox="0 0 46 46" height="46" width="46" xmlns="http://www.w3.org/2000/svg"><g transform="matrix(1.9166666666666667,0,0,1.9166666666666667,0,0)"><path d="M22.252.792a.749.749,0,0,1,.986.84c-.426,2.391-1.764,7.207-5.6,6.9A3.534,3.534,0,1,1,18.2,1.485,10.583,10.583,0,0,0,22.252.792Z" fill="none" stroke="#000" stroke-linecap="round" stroke-linejoin="round" stroke-width="1.5"></path><path d="M12,23.25V10.8a6,6,0,0,1,6-6" fill="none" stroke="#000" stroke-linecap="round" stroke-linejoin="round" stroke-width="1.5"></path><path d="M1.748.792a.749.749,0,0,0-.986.84c.426,2.391,1.764,7.207,5.6,6.9A3.534,3.534,0,1,0,5.8,1.485,10.583,10.583,0,0,1,1.748.792Z" fill="none" stroke="#000" stroke-linecap="round" stroke-linejoin="round" stroke-width="1.5"></path><path d="M12,10.8a6,6,0,0,0-6-6" fill="none" stroke="#000" stroke-linecap="round" stroke-linejoin="round" stroke-width="1.5"></path><path d="M15 15L23.25 15" fill="none" stroke="#000" stroke-linecap="round" stroke-linejoin="round" stroke-width="1.5"></path><path d="M0.75 15L9 15" fill="none" stroke="#000" stroke-linecap="round" stroke-linejoin="round" stroke-width="1.5"></path><path d="M12,18h.75a3.75,3.75,0,0,1,3.75,3.75" fill="none" stroke="#000" stroke-linecap="round" stroke-linejoin="round" stroke-width="1.5"></path><path d="M12,20.25H10.5a3,3,0,0,0-3,3" fill="none" stroke="#000" stroke-linecap="round" stroke-linejoin="round" stroke-width="1.5"></path></g></svg>