<svg viewBox="0 0 46 46" height="46" width="46" xmlns="http://www.w3.org/2000/svg"><g transform="matrix(1.9166666666666667,0,0,1.9166666666666667,0,0)"><path d="M9.751,3.889V2.264a1.5,1.5,0,0,0-1.5-1.5h-1.5a1.5,1.5,0,0,0-1.5,1.5V3.889" fill="none" stroke="#000" stroke-linecap="round" stroke-linejoin="round" stroke-width="1.5"></path><path d="M14.128,8.271A5.691,5.691,0,0,0,8.561,3.764H6.44A5.689,5.689,0,0,0,.751,9.453a.754.754,0,0,0,.219.531l.75.75a.749.749,0,0,1,0,1.06l-.75.75a.754.754,0,0,0-.219.531v2.378a.754.754,0,0,0,.219.531l.75.75a.749.749,0,0,1,0,1.06l-.75.75a.754.754,0,0,0-.219.531v2.689a1.5,1.5,0,0,0,1.5,1.5H9" fill="none" stroke="#000" stroke-linecap="round" stroke-linejoin="round" stroke-width="1.5"></path><path d="M1.94 11.264L10.501 11.264" fill="none" stroke="#000" stroke-linecap="round" stroke-linejoin="round" stroke-width="1.5"></path><path d="M1.94 17.264L8.251 17.264" fill="none" stroke="#000" stroke-linecap="round" stroke-linejoin="round" stroke-width="1.5"></path><path d="M15.001 18.764L11.251 18.764 11.251 22.514" fill="none" stroke="#000" stroke-linecap="round" stroke-linejoin="round" stroke-width="1.5"></path><path d="M22.668,19.5a5.572,5.572,0,0,1-10.74-.733" fill="none" stroke="#000" stroke-linecap="round" stroke-linejoin="round" stroke-width="1.5"></path><path d="M19.501 15.764L23.251 15.764 23.251 12.014" fill="none" stroke="#000" stroke-linecap="round" stroke-linejoin="round" stroke-width="1.5"></path><path d="M11.834,15.031a5.572,5.572,0,0,1,10.74.733" fill="none" stroke="#000" stroke-linecap="round" stroke-linejoin="round" stroke-width="1.5"></path></g></svg>