<svg viewBox="0 0 46 46" height="46" width="46" xmlns="http://www.w3.org/2000/svg"><g transform="matrix(1.9166666666666667,0,0,1.9166666666666667,0,0)"><path d="M9.738 0.766L9.738 23.266" fill="none" stroke="#000" stroke-linecap="round" stroke-linejoin="round" stroke-width="1.5"></path><path d="M14.238 0.766L14.238 23.266" fill="none" stroke="#000" stroke-linecap="round" stroke-linejoin="round" stroke-width="1.5"></path><path d="M7.488 0.766L16.488 0.766" fill="none" stroke="#000" stroke-linecap="round" stroke-linejoin="round" stroke-width="1.5"></path><path d="M7.488 8.266L16.488 8.266" fill="none" stroke="#000" stroke-linecap="round" stroke-linejoin="round" stroke-width="1.5"></path><path d="M7.488 15.766L16.488 15.766" fill="none" stroke="#000" stroke-linecap="round" stroke-linejoin="round" stroke-width="1.5"></path><path d="M7.488 23.266L16.488 23.266" fill="none" stroke="#000" stroke-linecap="round" stroke-linejoin="round" stroke-width="1.5"></path><path d="M21.24,12.263a5.716,5.716,0,0,1-4,1.248,5.719,5.719,0,0,1,1.248-4,5.716,5.716,0,0,1,4-1.248A5.719,5.719,0,0,1,21.24,12.263Z" fill="none" stroke="#000" stroke-linecap="round" stroke-linejoin="round" stroke-width="1.5"></path><path d="M2.736,19.772a5.719,5.719,0,0,0,4,1.248,5.713,5.713,0,0,0-1.249-4,5.716,5.716,0,0,0-4-1.248A5.716,5.716,0,0,0,2.736,19.772Z" fill="none" stroke="#000" stroke-linecap="round" stroke-linejoin="round" stroke-width="1.5"></path></g></svg>