<svg width="46" height="46" viewBox="0 0 46 46" fill="none" xmlns="http://www.w3.org/2000/svg">
<path d="M38.5218 14.7552C34.4051 14.7552 30.4571 16.3905 27.5462 19.3014C24.6353 22.2123 23 26.1603 23 30.2769C27.1166 30.2769 31.0646 28.6416 33.9755 25.7307C36.8864 22.8198 38.5218 18.8718 38.5218 14.7552Z" stroke="black" stroke-width="2.88" stroke-linecap="round" stroke-linejoin="round"/>
<path d="M27.0831 19.786C28.1479 16.7393 28.3313 13.4539 27.6123 10.3076C26.8932 7.16122 25.3008 4.28167 23.0182 1.99994C20.728 4.29086 19.1334 7.18363 18.4192 10.3433C17.705 13.503 17.9003 16.8004 18.9826 19.8536" stroke="black" stroke-width="2.88" stroke-linecap="round" stroke-linejoin="round"/>
<path d="M7.47827 14.7552C11.5949 14.7552 15.5429 16.3905 18.4538 19.3014C21.3647 22.2123 23 26.1603 23 30.2769C18.8834 30.2769 14.9354 28.6416 12.0245 25.7307C9.11359 22.8198 7.47827 18.8718 7.47827 14.7552Z" stroke="black" stroke-width="2.88" stroke-linecap="round" stroke-linejoin="round"/>
<path d="M23 33.9565V29.3639" stroke="black" stroke-width="2.88" stroke-linecap="round" stroke-linejoin="round"/>
<path d="M43.0303 44C42.8579 42.5883 42.2754 41.2581 41.3548 40.174C40.4342 39.0899 39.216 38.2995 37.8509 37.9005C36.4858 37.5016 35.0337 37.5116 33.6742 37.9294C32.3147 38.3471 31.1076 39.1543 30.2021 40.251C29.9661 38.5083 29.1062 36.9103 27.7819 35.7532C26.4575 34.5961 24.7586 33.9585 23 33.9585C21.2414 33.9585 19.5424 34.5961 18.2181 35.7532C16.8937 36.9103 16.0339 38.5083 15.7979 40.251C14.8924 39.1543 13.6852 38.3471 12.3257 37.9294C10.9663 37.5116 9.51414 37.5016 8.14903 37.9005C6.78392 38.2995 5.56572 39.0899 4.64515 40.174C3.72458 41.2581 3.14204 42.5883 2.9696 44" stroke="black" stroke-width="2.88" stroke-linecap="round" stroke-linejoin="round"/>
</svg>
