<svg viewBox="0 0 46 46" height="46" width="46" xmlns="http://www.w3.org/2000/svg"><g transform="matrix(1.9166666666666667,0,0,1.9166666666666667,0,0)"><path d="M6 23.236L6 0.736" fill="none" stroke="#000" stroke-linecap="round" stroke-linejoin="round" stroke-width="1.5"></path><path d="M1.5,17.986a4.769,4.769,0,0,0,4.5,3,4.769,4.769,0,0,0,4.5-3" fill="none" stroke="#000" stroke-linecap="round" stroke-linejoin="round" stroke-width="1.5"></path><path d="M1.5,12.736a4.769,4.769,0,0,0,4.5,3,4.769,4.769,0,0,0,4.5-3" fill="none" stroke="#000" stroke-linecap="round" stroke-linejoin="round" stroke-width="1.5"></path><path d="M1.5,7.486a4.769,4.769,0,0,0,4.5,3,4.769,4.769,0,0,0,4.5-3" fill="none" stroke="#000" stroke-linecap="round" stroke-linejoin="round" stroke-width="1.5"></path><path d="M1.5,2.236a4.769,4.769,0,0,0,4.5,3,4.769,4.769,0,0,0,4.5-3" fill="none" stroke="#000" stroke-linecap="round" stroke-linejoin="round" stroke-width="1.5"></path><path d="M18 23.236L18 0.736" fill="none" stroke="#000" stroke-linecap="round" stroke-linejoin="round" stroke-width="1.5"></path><path d="M13.5,17.986a4.875,4.875,0,0,0,9,0" fill="none" stroke="#000" stroke-linecap="round" stroke-linejoin="round" stroke-width="1.5"></path><path d="M13.5,12.736a4.875,4.875,0,0,0,9,0" fill="none" stroke="#000" stroke-linecap="round" stroke-linejoin="round" stroke-width="1.5"></path><path d="M13.5,7.486a4.875,4.875,0,0,0,9,0" fill="none" stroke="#000" stroke-linecap="round" stroke-linejoin="round" stroke-width="1.5"></path><path d="M13.5,2.236a4.875,4.875,0,0,0,9,0" fill="none" stroke="#000" stroke-linecap="round" stroke-linejoin="round" stroke-width="1.5"></path></g></svg>