<svg xmlns="http://www.w3.org/2000/svg" viewBox="0 0 46 46" xml:space="preserve">
  <path d="M19.8 7.2c.7.4 1.6.3 2-.4L24 3.5l5 7.5h-1.2c-.5 0-1 .3-1.2.7-.3.4-.3 1 0 1.4l2.9 5.1c.3.5.8.7 1.2.7.2 0 .5-.1.7-.2.7-.4.9-1.3.5-2l-1.7-3h1.4c.5 0 1-.3 1.3-.8s.2-1-.1-1.5l-6.6-9.9c-.4-.6-1-1-1.7-1.2-.7-.1-1.4 0-2 .4-.3.2-.6.5-.8.8L19.4 5c-.4.9-.2 1.8.4 2.2z"/>
  <path d="M33.1 20.1c-5.3 0-9.9 3.3-11.9 7.9l-2.5-5.2h1.5c.5 0 1-.3 1.2-.7.3-.4.3-1 0-1.4l-3.9-6.8h1.4c.5 0 1-.3 1.3-.8.2-.5.2-1-.1-1.5l-6.6-9.9c-.4-.6-1-1-1.7-1.2-.7-.1-1.4 0-2 .4-.4.2-.6.5-.8.8l-6.6 9.9c-.3.4-.3 1-.1 1.5.3.5.7.8 1.3.8H5l-4 6.8c-.3.4-.3 1 0 1.4.3.4.7.7 1.2.7h1.5L.7 29c-.7 1.3-.3 2.9 1 3.7.4.2.9.4 1.4.4h6.6v6.2c0 .8.6 1.4 1.4 1.4s1.4-.6 1.4-1.4v-6.2h6.6c.3 0 .6-.1.9-.2v.2C20 40.2 25.8 46 32.9 46S46 40.2 46 33.1s-5.8-13-12.9-13zM11.4 30.2H3.5l4-8.2c.2-.4.2-1-.1-1.4-.3-.4-.7-.7-1.2-.7H4.8l3.9-6.8c.3-.4.3-1 0-1.4-.3-.5-.8-.7-1.3-.7H6.2l5-7.5 5 7.5H15c-.5 0-1 .3-1.2.7-.3.4-.3 1 0 1.4l3.9 6.8h-1.4c-.5 0-1 .3-1.2.7-.3.4-.3.9-.1 1.4l4 8.2h-7.6zm21.7 12.9C27.6 43.1 23 38.6 23 33s4.5-10 10.1-10 10.1 4.5 10.1 10.1-4.6 10-10.1 10z"/>
  <path d="m37 28.9-5.6 7.4-2.9-2.9c-.6-.6-1.5-.6-2 0-.6.6-.6 1.5 0 2l2.9 2.9.3.3c.5.4 1.1.6 1.7.6.9 0 1.7-.4 2.3-1.1l5.6-7.4c.5-.6.3-1.5-.3-2-.6-.6-1.5-.5-2 .2z"/>
</svg>
