<svg xmlns="http://www.w3.org/2000/svg" viewBox="-1.4375 -1.4375 46 46" height="46" width="46"><defs></defs><title>3d-box-expand-corners</title><path d="M13.327421874999999 36.686796875000006 21.5625 40.4296875l0 -16.171875 -14.82421875 -6.73828125 0 10.78125" fill="none" stroke="#000000" stroke-linecap="round" stroke-linejoin="round" stroke-width="2.875"></path><path d="M16.171875 13.2321875 6.73828125 17.51953125" fill="none" stroke="#000000" stroke-linecap="round" stroke-linejoin="round" stroke-width="2.875"></path><path d="m36.38671875 17.51953125 -9.43 -4.285546875" fill="none" stroke="#000000" stroke-linecap="round" stroke-linejoin="round" stroke-width="2.875"></path><path d="m21.5625 12.12890625 0 -10.78125" fill="none" stroke="#000000" stroke-linecap="round" stroke-linejoin="round" stroke-width="2.875"></path><path d="m16.171875 6.73828125 5.390625 -5.390625 5.390625 5.390625" fill="none" stroke="#000000" stroke-linecap="round" stroke-linejoin="round" stroke-width="2.875"></path><path d="m1.34765625 36.38671875 0 5.390625 5.390625 0" fill="none" stroke="#000000" stroke-linecap="round" stroke-linejoin="round" stroke-width="2.875"></path><path d="m1.34765625 41.77734375 8.759765625 -8.759765625" fill="none" stroke="#000000" stroke-linecap="round" stroke-linejoin="round" stroke-width="2.875"></path><path d="M29.799374999999998 36.686796875000006 21.5625 40.4296875l0 -16.171875 14.82421875 -6.73828125 0 10.78125" fill="none" stroke="#000000" stroke-linecap="round" stroke-linejoin="round" stroke-width="2.875"></path><path d="m41.77734375 36.38671875 0 5.390625 -5.390625 0" fill="none" stroke="#000000" stroke-linecap="round" stroke-linejoin="round" stroke-width="2.875"></path><path d="m41.77734375 41.77734375 -8.759765625 -8.759765625" fill="none" stroke="#000000" stroke-linecap="round" stroke-linejoin="round" stroke-width="2.875"></path></svg>