<svg xmlns="http://www.w3.org/2000/svg" viewBox="-1.4375 -1.4375 46 46" height="46" width="46"><g><path d="M31.4453125 8.53515625H39.53125a0.8984375 0.8984375 0 0 1 0.8984375 0.8984375v8.984375l0 0H30.546875l0 0v-8.984375a0.8984375 0.8984375 0 0 1 0.8984375 -0.8984375Z" fill="none" stroke="#000000" stroke-linecap="round" stroke-linejoin="round" stroke-width="2.875"></path><path d="M41.77734375 27.8515625h-12.578125v-8.48125c0 -0.5210937499999999 0.30546875 -0.95234375 0.66484375 -0.95234375h11.23046875c0.37734375 0 0.6828125 0.43124999999999997 0.6828125 0.95234375Z" fill="none" stroke="#000000" stroke-linecap="round" stroke-linejoin="round" stroke-width="2.875"></path><path d="M4.04296875 29.6484375v-2.2640625c0 -4.240625 2.82109375 -5.821875 7.49296875 -8.46328125L17.68125 1.34765625" fill="none" stroke="#000000" stroke-linecap="round" stroke-linejoin="round" stroke-width="2.875"></path><path d="m14.06953125 1.34765625 27.7078125 0" fill="none" stroke="#000000" stroke-linecap="round" stroke-linejoin="round" stroke-width="2.875"></path><path d="M22.91015625 1.34765625v31.93046875a1.796875 1.796875 0 0 0 1.796875 1.796875h17.10625" fill="none" stroke="#000000" stroke-linecap="round" stroke-linejoin="round" stroke-width="2.875"></path><path d="M4.04296875 35.0390625H1.34765625v-4.1328125a1.29375 1.29375 0 0 1 1.31171875 -1.2578125H5.390625" fill="none" stroke="#000000" stroke-linecap="round" stroke-linejoin="round" stroke-width="2.875"></path><path d="m11.5359375 18.8671875 11.37421875 0" fill="none" stroke="#000000" stroke-linecap="round" stroke-linejoin="round" stroke-width="2.875"></path><path d="m22.91015625 27.8515625 18.8671875 0" fill="none" stroke="#000000" stroke-linecap="round" stroke-linejoin="round" stroke-width="2.875"></path><path d="m35.48828125 18.41796875 0 3.521875" fill="none" stroke="#000000" stroke-linecap="round" stroke-linejoin="round" stroke-width="2.875"></path><path d="M8.0859375 36.38671875a5.390625 5.390625 0 1 0 10.78125 0 5.390625 5.390625 0 1 0 -10.78125 0" fill="none" stroke="#000000" stroke-linecap="round" stroke-linejoin="round" stroke-width="2.875"></path></g></svg>