<svg xmlns="http://www.w3.org/2000/svg" viewBox="-1.4375 -1.4375 46 46" height="46" width="46"><defs></defs><title>rotate-back</title><path d="m22.91015625 13.4765625 -5.390625 -5.390625 5.390625 -5.390625" fill="none" stroke="#000000" stroke-linecap="round" stroke-linejoin="round" stroke-width="2.875"></path><path d="M5.446328125 22.91015625c-0.035937500000000004 0.443828125 -0.055703125 0.8984375 -0.055703125 1.34765625a16.123359375 16.123359375 0 0 0 0.5103125 4.04296875" fill="none" stroke="#000000" stroke-linecap="round" stroke-linejoin="round" stroke-width="2.875"></path><path d="M9.174843749999999 13.862890625a16.114375 16.114375 0 0 0 -2.208359375 3.42484375" fill="none" stroke="#000000" stroke-linecap="round" stroke-linejoin="round" stroke-width="2.875"></path><path d="M9.214375 34.70125q0.43124999999999997 0.5103125 0.9128125 0.9918750000000001a16.134140624999997 16.134140624999997 0 0 0 3.22 2.49765625" fill="none" stroke="#000000" stroke-linecap="round" stroke-linejoin="round" stroke-width="2.875"></path><path d="M20.21484375 40.373984375c0.443828125 0.035937500000000004 0.8984375 0.055703125 1.34765625 0.055703125a16.171875 16.171875 0 0 0 0 -32.34375H17.51953125" fill="none" stroke="#000000" stroke-linecap="round" stroke-linejoin="round" stroke-width="2.875"></path></svg>