<svg viewBox="0 0 46 46" height="46" width="46" xmlns="http://www.w3.org/2000/svg"><g transform="matrix(1.9166666666666667,0,0,1.9166666666666667,0,0)"><path d="M16.506 21.750 A1.500 1.500 0 1 0 19.506 21.750 A1.500 1.500 0 1 0 16.506 21.750 Z" fill="none" stroke="#000" stroke-linecap="round" stroke-linejoin="round" stroke-width="1.5"></path><path d="M2.256 21.750 A1.500 1.500 0 1 0 5.256 21.750 A1.500 1.500 0 1 0 2.256 21.750 Z" fill="none" stroke="#000" stroke-linecap="round" stroke-linejoin="round" stroke-width="1.5"></path><path d="M.756,18H16.689a1.5,1.5,0,0,0,1.487-1.306L20.085,2.056A1.5,1.5,0,0,1,21.573.75h1.683" fill="none" stroke="#000" stroke-linecap="round" stroke-linejoin="round" stroke-width="1.5"></path><path d="M3.006 3.750 L15.006 3.750 L15.006 15.000 L3.006 15.000 Z" fill="none" stroke="#000" stroke-linecap="round" stroke-linejoin="round" stroke-width="1.5"></path><path d="M7.506 3.75H10.506V8.25H7.506z" fill="none" stroke="#000" stroke-linecap="round" stroke-linejoin="round" stroke-width="1.5" transform="translate(18.011 12) rotate(-180)"></path></g></svg>