<svg viewBox="0 0 46 46" height="46" width="46" xmlns="http://www.w3.org/2000/svg"><g transform="matrix(1.9166666666666667,0,0,1.9166666666666667,0,0)"><path d="M14.441,4.97a1.5,1.5,0,0,1-.191-.732V1.5A.75.75,0,0,0,13.5.75h-3a.75.75,0,0,0-.75.75V4.238a1.5,1.5,0,0,1-.191.732L7.95,7.847A7.785,7.785,0,0,0,6.75,12h0v9.333a1.481,1.481,0,0,0,1.132,1.455,18.584,18.584,0,0,0,8.236,0,1.481,1.481,0,0,0,1.132-1.455V12h0a7.785,7.785,0,0,0-1.2-4.153Z" fill="none" stroke="#000000" stroke-linecap="round" stroke-linejoin="round" stroke-width="1.5"></path><path d="M9.75 3.75L14.25 3.75" fill="none" stroke="#000000" stroke-linecap="round" stroke-linejoin="round" stroke-width="1.5"></path></g></svg>