<svg viewBox="0 0 46 46" height="46" width="46" xmlns="http://www.w3.org/2000/svg"><g transform="matrix(1.9166666666666667,0,0,1.9166666666666667,0,0)"><path d="M13.5,12.37v6.76H6a1.5,1.5,0,0,1-1.5-1.5V4.88" fill="none" stroke="#000" stroke-linecap="round" stroke-linejoin="round" stroke-width="1.5"></path><path d="M21.75,10.13v7.5a1.5,1.5,0,0,1-1.5,1.5H13.5" fill="none" stroke="#000" stroke-linecap="round" stroke-linejoin="round" stroke-width="1.5"></path><path d="M3.75,4.88.829,9.32a.522.522,0,0,0-.007.539.554.554,0,0,0,.48.271H4.5" fill="none" stroke="#000" stroke-linecap="round" stroke-linejoin="round" stroke-width="1.5"></path><path d="M13.681,4.88,15.6,9.668a.751.751,0,0,0,.693.462H22.7a.552.552,0,0,0,.513-.757l-1.868-4.5" fill="none" stroke="#000" stroke-linecap="round" stroke-linejoin="round" stroke-width="1.5"></path><path d="M3.75 4.88L21.343 4.87" fill="none" stroke="#000" stroke-linecap="round" stroke-linejoin="round" stroke-width="1.5"></path></g></svg>