<svg viewBox="0 0 46 46" height="46" width="46" xmlns="http://www.w3.org/2000/svg"><g transform="matrix(1.9166666666666667,0,0,1.9166666666666667,0,0)"><path d="M8.993,23.25H2.451A1.5,1.5,0,0,1,.964,21.556L2.822,7.306A1.5,1.5,0,0,1,4.31,6H5.426A1.5,1.5,0,0,1,6.913,7.306Z" fill="none" stroke="#000" stroke-linecap="round" stroke-linejoin="round" stroke-width="1.5"></path><path d="M14.243,6h5.433a1.5,1.5,0,0,1,1.487,1.306l1.859,14.25a1.5,1.5,0,0,1-1.488,1.694H8.993" fill="none" stroke="#000" stroke-linecap="round" stroke-linejoin="round" stroke-width="1.5"></path><path d="M5.426 6L11.993 6" fill="none" stroke="#000" stroke-linecap="round" stroke-linejoin="round" stroke-width="1.5"></path><path d="M17.993,10.5V3.75a3,3,0,1,0-6,0V10.5" fill="none" stroke="#000" stroke-linecap="round" stroke-linejoin="round" stroke-width="1.5"></path><path d="M9.578,1.253a3,3,0,0,0-1.335,2.5V6" fill="none" stroke="#000" stroke-linecap="round" stroke-linejoin="round" stroke-width="1.5"></path></g></svg>