<svg viewBox="0 0 46 46" height="46" width="46" xmlns="http://www.w3.org/2000/svg"><g transform="matrix(1.9166666666666667,0,0,1.9166666666666667,0,0)"><path d="M2.250 0.750 L21.750 0.750 L21.750 23.250 L2.250 23.250 Z" fill="none" stroke="#000" stroke-linecap="round" stroke-linejoin="round" stroke-width="1.5"></path><path d="M5.250 3.750 L9.750 3.750 L9.750 6.750 L5.250 6.750 Z" fill="none" stroke="#000" stroke-linecap="round" stroke-linejoin="round" stroke-width="1.5"></path><path d="M5.250 10.500 L9.750 10.500 L9.750 13.500 L5.250 13.500 Z" fill="none" stroke="#000" stroke-linecap="round" stroke-linejoin="round" stroke-width="1.5"></path><path d="M5.250 17.250 L9.750 17.250 L9.750 20.250 L5.250 20.250 Z" fill="none" stroke="#000" stroke-linecap="round" stroke-linejoin="round" stroke-width="1.5"></path><path d="M14.250 3.750 L18.750 3.750 L18.750 6.750 L14.250 6.750 Z" fill="none" stroke="#000" stroke-linecap="round" stroke-linejoin="round" stroke-width="1.5"></path><path d="M14.250 10.500 L18.750 10.500 L18.750 13.500 L14.250 13.500 Z" fill="none" stroke="#000" stroke-linecap="round" stroke-linejoin="round" stroke-width="1.5"></path><path d="M14.250 17.250 L18.750 17.250 L18.750 20.250 L14.250 20.250 Z" fill="none" stroke="#000" stroke-linecap="round" stroke-linejoin="round" stroke-width="1.5"></path></g></svg>