<svg viewBox="0 0 46 46" height="46" width="46" xmlns="http://www.w3.org/2000/svg"><g transform="matrix(1.9166666666666667,0,0,1.9166666666666667,0,0)"><path d="M0.750 8.250 A11.25 4.5 0 1 0 23.250 8.250 A11.25 4.5 0 1 0 0.750 8.250 Z" fill="none" stroke="#000" stroke-linecap="round" stroke-linejoin="round" stroke-width="1.5"></path><path d="M.75,8.25v1.5c0,5.8,5.037,10.5,11.25,10.5s11.25-4.7,11.25-10.5V8.25" fill="none" stroke="#000" stroke-linecap="round" stroke-linejoin="round" stroke-width="1.5"></path><path d="M4.500 9.750 A7.5 3 0 1 0 19.500 9.750 A7.5 3 0 1 0 4.500 9.750 Z" fill="none" stroke="#000" stroke-linecap="round" stroke-linejoin="round" stroke-width="1.5"></path><path d="M8.25 9.75L9.75 9.75" fill="none" stroke="#000" stroke-linecap="round" stroke-linejoin="round" stroke-width="1.5"></path><path d="M12.75 9.75L14.25 9.75" fill="none" stroke="#000" stroke-linecap="round" stroke-linejoin="round" stroke-width="1.5"></path></g></svg>