<svg width="46" height="46" viewBox="0 0 46 46" fill="none" xmlns="http://www.w3.org/2000/svg">
<path d="M35 44.5625C20.3309 44.5625 1.4375 44.5625 1.4375 44.5625V7.1875H44.5625V35M35 44.5625C37.1723 42.3902 44.5625 35 44.5625 35M35 44.5625C35 42.3902 35 35 35 35H44.5625" stroke="black" stroke-width="2.875" stroke-linecap="round" stroke-linejoin="round"/>
<path d="M12.9375 11.5V1.4375" stroke="black" stroke-width="2.875" stroke-linecap="round" stroke-linejoin="round"/>
<path d="M33.0625 11.5V1.4375" stroke="black" stroke-width="2.875" stroke-linecap="round" stroke-linejoin="round"/>
<path d="M10.0625 18H18.6875V27H10.0625V18Z" stroke="black" stroke-width="2.875" stroke-linecap="round" stroke-linejoin="round"/>
<path d="M27 19L27 27" stroke="black" stroke-width="2.875" stroke-linecap="round" stroke-linejoin="round"/>
<path d="M19 18H36V27H19V18Z" stroke="black" stroke-width="2.875" stroke-linecap="round" stroke-linejoin="round"/>
<path d="M10.0625 27H18.6875V36H10.0625V27Z" stroke="black" stroke-width="2.875" stroke-linecap="round" stroke-linejoin="round"/>
<path d="M27 28L27 36" stroke="black" stroke-width="2.875" stroke-linecap="round" stroke-linejoin="round"/>
<path d="M36 30.5V27H19V36H30.5" stroke="black" stroke-width="2.875" stroke-linecap="round" stroke-linejoin="round"/>
</svg>
