<?xml version="1.0" encoding="utf-8"?>
<!-- Generator: Adobe Illustrator 24.1.2, SVG Export Plug-In . SVG Version: 6.00 Build 0)  -->
<svg version="1.1" id="Layer_1" xmlns="http://www.w3.org/2000/svg" xmlns:xlink="http://www.w3.org/1999/xlink" x="0px" y="0px"
	 viewBox="0 0 463.9 321" style="enable-background:new 0 0 463.9 321;" xml:space="preserve">
<style type="text/css">
	.st0{display:none;}
	.st1{fill:#73804D;}
	.st2{fill:#97A85E;}
	.st3{fill:#DBDBDB;}
	.st4{fill:#00C5C5;}
	.st5{fill:#FFFFFF;}
	.st6{fill-rule:evenodd;clip-rule:evenodd;fill:#DBDBDB;}
	.st7{fill-rule:evenodd;clip-rule:evenodd;fill:#42373B;}
	.st8{fill:#E8E8E8;}
	.st9{fill-rule:evenodd;clip-rule:evenodd;fill:#8C767E;}
	.st10{fill-rule:evenodd;clip-rule:evenodd;fill:#ED6C6C;}
	.st11{fill-rule:evenodd;clip-rule:evenodd;fill:#BA9DA8;}
	.st12{fill-rule:evenodd;clip-rule:evenodd;fill:#705E65;}
	.st13{fill-rule:evenodd;clip-rule:evenodd;fill:#57484E;}
	.st14{fill-rule:evenodd;clip-rule:evenodd;fill:#D66262;}
	.st15{fill:#ED6C6C;}
	.st16{fill-rule:evenodd;clip-rule:evenodd;fill:#00C5C5;}
	.st17{fill-rule:evenodd;clip-rule:evenodd;fill:#009B97;}
	.st18{fill-rule:evenodd;clip-rule:evenodd;fill:#FFFFFF;}
	.st19{fill-rule:evenodd;clip-rule:evenodd;fill:#F7AD36;}
</style>
<g id="background" class="st0">
</g>
<g id="image" class="st0">
</g>
<g id="Layer_4">
	<g>
		<path class="st1" d="M360.6,226.4c0,0,6.8-40.7,33.9-66.3c0,0,14.4,53.9-22.2,67.4C369.6,228.6,360.6,226.4,360.6,226.4z"/>
		<path class="st1" d="M353.7,179.8c0,0-1.1-36.3-29.5-45.2c0,0-6.9,56.2,26.4,91.8l6.9,3.4L353.7,179.8z"/>
		<path class="st2" d="M353,227.6c0,0-12.4-70.5,19.9-101c0,0,17.1,51.5-11.1,103.3L353,227.6z"/>
		<path class="st3" d="M365.2,106.9h-97c-6.6,0-12-5.4-12-12V66.2c0-6.6,5.4-12,12-12h97c6.6,0,12,5.4,12,12v28.6
			C377.2,101.5,371.8,106.9,365.2,106.9z"/>
		<path class="st4" d="M323.3,76.8h-50.8c-2.9,0-5.2-2.3-5.2-5.2l0,0c0-2.9,2.4-5.2,5.2-5.2h50.8c2.9,0,5.2,2.3,5.2,5.2l0,0
			C328.5,74.4,326.1,76.8,323.3,76.8z"/>
		<path class="st4" d="M362.2,76.8h-20.4c-2.9,0-5.2-2.3-5.2-5.2l0,0c0-2.9,2.4-5.2,5.2-5.2h20.4c2.9,0,5.2,2.3,5.2,5.2l0,0
			C367.4,74.4,365,76.8,362.2,76.8z"/>
		<path class="st5" d="M325.9,95.4h-56c-1.4,0-2.6-1.2-2.6-2.6l0,0c0-1.4,1.2-2.6,2.6-2.6h56c1.4,0,2.6,1.2,2.6,2.6l0,0
			C328.5,94.2,327.3,95.4,325.9,95.4z"/>
		<ellipse class="st6" cx="192.4" cy="69.6" rx="28.6" ry="28.6"/>
		<rect x="240.1" y="127.6" class="st7" width="16.1" height="26.9"/>
		<path class="st7" d="M267,160h-35c-1.5,0-2.7-1.2-2.7-2.7l0,0c0-1.5,1.2-2.7,2.7-2.7h35c1.5,0,2.7,1.2,2.7,2.7l0,0
			C269.7,158.7,268.5,160,267,160z"/>
		<ellipse class="st8" cx="208" cy="288.3" rx="169.2" ry="8.5"/>
		<path class="st9" d="M131.8,283.9L131.8,283.9c1-0.4,1.4-1.4,1.1-2.3l-32.6-77.2c-0.4-0.9-1.5-1.3-2.4-0.9l0,0
			c-1,0.4-1.4,1.4-1.1,2.3l32.6,77.2C129.8,283.9,130.9,284.3,131.8,283.9z"/>
		<polygon class="st10" points="114.7,264.5 126.8,270.3 135.1,260.8 122.9,255 		"/>
		<path class="st7" d="M135,286.6c-0.3,0.4-0.7,0.6-1.2,0.7c-0.5,0.1-4.4-1.4-4.9-1.7c-4.3-2.5-12.2-7.8-17.9-11.1
			c-0.9-0.5-1.5-1.3-1.8-2.2c-0.2-0.9,0-1.8,0.5-2.5c2.1-2.7,5.1-6.5,5.1-6.5l12.6,6.3c0,0,4.5,8.6,7.7,12.8
			C136.4,284.1,136.1,284.9,135,286.6L135,286.6L135,286.6z"/>
		<path class="st7" d="M181.3,218.3l-48.1,47.5l-15.7-8.8c11.4-22.9,28.9-51,44.8-50.4L181.3,218.3z"/>
		<polygon class="st10" points="191.9,279.1 203.3,272 199.9,260 188.4,267 		"/>
		<path class="st7" d="M221.5,274.5c0.2,0.4,0.1,1-0.1,1.4c-0.2,0.5-3.7,2.9-4.1,3.1c-4.5,2.1-13.3,5.7-19.3,8.5
			c-0.9,0.4-2,0.5-2.8,0.2c-0.9-0.3-1.5-1-1.8-1.9c-1.1-3.3-2.5-7.9-2.5-7.9l12.4-6.9c0,0,9.6,1.2,14.9,0.9
			C220.3,271.9,220.8,272.5,221.5,274.5L221.5,274.5L221.5,274.5z"/>
		<path class="st9" d="M358.7,285L358.7,285c-1.4,0.5-3-0.1-3.5-1.5l-47.8-117.3c-0.5-1.3,0.1-2.8,1.5-3.4l0,0
			c1.4-0.5,3,0.1,3.5,1.5l47.8,117.3C360.8,283,360.1,284.5,358.7,285z"/>
		<path class="st11" d="M42.8,287.8L42.8,287.8c-1.4-0.5-2-2.1-1.4-3.5l51.3-122.4c0.6-1.4,2.2-2.1,3.6-1.6l0,0
			c1.4,0.5,2,2.1,1.4,3.5L46.4,286.3C45.8,287.7,44.2,288.4,42.8,287.8z"/>
		<path class="st12" d="M225,296.6L225,296.6c-1.4-0.5-2-2.1-1.4-3.6l53.6-128.2c0.6-1.5,2.2-2.2,3.6-1.7l0,0c1.4,0.5,2,2.1,1.4,3.6
			L228.6,295C228,296.4,226.4,297.1,225,296.6z"/>
		<path class="st13" d="M93.4,174.1c0,0-3.9,30.4,21.5,33.9c25.4,3.4,74.9,2.2,74.9,2.2s4.2-21.8-11.4-25.5c-19.7-4.7-30-7.1-30-7.1
			L93.4,174.1z"/>
		<path class="st10" d="M110.2,99.7l6.1-19.2l13.5,5.1l-2.6,18.3C123.2,99.4,117.1,98.8,110.2,99.7L110.2,99.7z"/>
		<path class="st14" d="M122.1,86.6c0,0,0.5,6.6,6,11.6l0.5-3.8l0.8-5.6C126.6,88.7,124.1,88.2,122.1,86.6z"/>
		<path class="st15" d="M113.6,71c1.8-9,2.5-10.5,10.4-12c8-0.8,2.7,2,11,3.9c4.9,1.1,4.9,5.6,4.1,11.3c-0.3,2,0.6,3.8,2.4,6
			c0.5,1.4-1.8,2.4-2.4,3c-0.8,0.7-0.2,7.4-2.1,8.5c-5.2,3.1-13.7-0.5-13.7-0.5c-9.1-4.7-4-23.2-4-23.2
			C118.9,64.9,113.1,73.4,113.6,71z"/>
		<path class="st7" d="M123.9,75.1c0,0-4.7,9.6-8.9,13.7c-2.3,2.2-4.7-0.4-4.9-3.6c-0.4-6.3-4.9-11.9-2.2-21
			c1.4-4.6,12.1-7.1,20.2-7.8c9.4-0.8,20.1,11.7,4.5,13.1l-4.8,8.8c-0.7,1.3-2.6,1.1-3.1-0.3L123.9,75.1z"/>
		<path class="st10" d="M119.8,73.1c1.9-0.6,4,0.9,4.7,3.3c0.7,2.4-0.2,4.8-2.1,5.3s-4-0.9-4.7-3.3C117,76.1,117.9,73.7,119.8,73.1
			L119.8,73.1z"/>
		<rect x="174.3" y="156.8" class="st12" width="50.5" height="3.2"/>
		<path class="st7" d="M320.2,166H82.4c-1.7,0-3-1.4-3-3l0,0c0-1.7,1.4-3,3-3h237.8c1.7,0,3,1.4,3,3l0,0
			C323.2,164.6,321.8,166,320.2,166z"/>
		<path class="st8" d="M365.4,289.9h-9.9c-12.7,0-22.9-10.3-22.9-22.9v-43.1h55.7V267C388.3,279.7,378,289.9,365.4,289.9z"/>
		<path class="st3" d="M388.3,271.1v-43.4c-11.2,31.9-33.6,52.3-42.6,59.4c4.3,1.8,9.3,2.9,14.7,2.9l0,0
			C375.8,289.9,388.3,281.5,388.3,271.1z"/>
		<path class="st16" d="M150.1,131.2l-1.7,46.4c0,0-24,7.5-56-1.1c-2.2-1.6-2.6-4.5-0.5-9l-0.6-30.7c-0.1-7.1,0.7-14.2,2.6-21
			c2.4-8.5,6.6-17.8,14.2-19.2c7.9-1.4,12.1-0.8,20.9,1.2c10.6,2.3,18.6,11.4,19.8,21.9L150.1,131.2z"/>
		<path class="st10" d="M195.8,149.9c0,0,4.3-4,7.6-2.9c1.6,0.5,4,0.2,6.4,1.1c2.6,1,5.8,4.2,5.8,4.2s0.5,3.4-2.4,4.5
			c-1,0.4-4.7-2-4.7-2c-2.8,1.5-8,3.1-12.1,2.8l-7.7-0.4l-3.5-4.3L195.8,149.9z"/>
		<path class="st16" d="M145.1,109.9l20.7,32.4l26.3,3.4c2.4,0.3,4.1,2.3,4.1,4.7v8l-36,1.1L136.7,146L145.1,109.9z"/>
		<path class="st13" d="M190.2,205.6l13.2,58.7l-16.3,7.7c-10.9-22.5-21.1-42.9-18.7-61.5L190.2,205.6z"/>
		<path class="st9" d="M168.2,288.4L168.2,288.4c1-0.4,1.4-1.4,1.1-2.4l-34.3-81.4c-0.4-0.9-1.5-1.4-2.5-1l0,0
			c-1,0.4-1.4,1.4-1.1,2.4l34.4,81.4C166.1,288.3,167.2,288.7,168.2,288.4z"/>
		<path class="st9" d="M112.7,244.2H82.4c-0.8,0-1.4-0.6-1.4-1.4l0,0c0-0.8,0.6-1.4,1.4-1.4h30.4c0.8,0,1.4,0.6,1.4,1.4l0,0
			C114.2,243.5,113.5,244.2,112.7,244.2z"/>
		<path class="st9" d="M96,288.4L96,288.4c-1-0.4-1.4-1.4-1.1-2.4l34.3-81.4c0.4-0.9,1.5-1.4,2.5-1l0,0c1,0.4,1.4,1.4,1.1,2.4
			l-34.4,81.4C98.1,288.3,97,288.7,96,288.4z"/>
		<path class="st9" d="M148.9,244.2h-32.5c-0.8,0-1.4-0.6-1.4-1.4l0,0c0-0.8,0.6-1.4,1.4-1.4h32.5c0.8,0,1.4,0.6,1.4,1.4l0,0
			C150.3,243.5,149.7,244.2,148.9,244.2z"/>
		<path class="st9" d="M61.9,287.5l-0.2-0.1c-0.9-0.4-1.4-1.4-1-2.3l33.1-78.4c0.4-0.9,1.4-1.3,2.4-1l0.2,0.1c0.9,0.4,1.4,1.4,1,2.3
			l-33.1,78.4C63.8,287.5,62.8,287.9,61.9,287.5z"/>
		<path class="st12" d="M143.9,218.5H86c-4.6,0-8.4-3.8-8.4-8.4l0,0c0-4.6,3.8-8.4,8.4-8.4h57.9c4.6,0,8.4,3.8,8.4,8.4l0,0
			C152.3,214.8,148.5,218.5,143.9,218.5z"/>
		<path class="st17" d="M149.3,152.2l-12.6-11.8v39.3c0,0,7.4,0.2,11.7-2.2c2.1-1.6,2.8-3.5,0.3-6.6L149.3,152.2z"/>
		<path class="st7" d="M278.9,141.5h-70.3c-2.9,0-5.3-2.4-5.2-5.4l2-46c0.1-2.8,2.4-4.9,5.2-4.9H281c2.9,0,5.3,2.4,5.2,5.4l-2,46
			C284,139.3,281.7,141.5,278.9,141.5z"/>
		<path class="st6" d="M273.7,135.5h-59.5c-2.5,0-4.5-2-4.4-4.3l1.7-37c0.1-2.2,2-4,4.4-4h59.5c2.5,0,4.5,2,4.4,4.3l-1.7,37
			C277.9,133.7,276,135.5,273.7,135.5z"/>
		<path class="st18" d="M254.6,125.9h-21.8c-6.1,0-11.1-5-11.1-11.1v-6.7c0-6.1,5-11.1,11.1-11.1h21.8c6.1,0,11.1,5,11.1,11.1v6.7
			C265.8,120.9,260.7,125.9,254.6,125.9z"/>
		<path class="st16" d="M229.2,119l6.9-11.9c0.8-1.4,2.8-1.4,3.6,0.1l5.9,11l3.1-4.2c0.9-1.2,2.6-1.1,3.4,0.1l3.1,5L229.2,119
			L229.2,119z"/>
		<circle class="st19" cx="250.4" cy="104.9" r="3"/>
	</g>
</g>
<g id="Illustration_01">
</g>
</svg>
