<?xml version="1.0" encoding="utf-8"?>
<!-- Generator: Adobe Illustrator 24.1.2, SVG Export Plug-In . SVG Version: 6.00 Build 0)  -->
<svg version="1.1" xmlns="http://www.w3.org/2000/svg" xmlns:xlink="http://www.w3.org/1999/xlink" x="0px" y="0px"
	 viewBox="0 0 601.94 448.01" style="enable-background:new 0 0 601.94 448.01;" xml:space="preserve">
<style type="text/css">
	.st0{display:none;}
	.st1{display:inline;fill:#ED6C6C;}
	.st2{display:inline;fill-rule:evenodd;clip-rule:evenodd;fill:#ED6C6C;}
	.st3{display:inline;fill-rule:evenodd;clip-rule:evenodd;fill:#E8E8E8;}
	.st4{display:inline;fill:#E8E8E8;}
	.st5{display:inline;fill-rule:evenodd;clip-rule:evenodd;fill:#42373B;}
	.st6{display:inline;fill-rule:evenodd;clip-rule:evenodd;fill:#859459;}
	.st7{display:inline;fill-rule:evenodd;clip-rule:evenodd;fill:#8C767E;}
	.st8{display:inline;fill:#DBDBDB;}
	.st9{display:inline;fill:#97A85E;}
	
		.st10{display:inline;fill:none;stroke:#42373B;stroke-width:1.5054;stroke-linecap:round;stroke-linejoin:round;stroke-miterlimit:10;}
	.st11{display:inline;fill:#73804D;}
	.st12{display:inline;}
	.st13{fill:#42373B;}
	.st14{fill:#796FBF;}
	.st15{fill:#7168B3;}
	.st16{fill:#675FA3;}
	.st17{display:inline;fill-rule:evenodd;clip-rule:evenodd;fill:#E0B2B7;}
	.st18{display:inline;fill-rule:evenodd;clip-rule:evenodd;fill:#F7C4C9;}
	.st19{fill-rule:evenodd;clip-rule:evenodd;fill:#8C767E;}
	.st20{fill:#E8E8E8;}
	.st21{fill-rule:evenodd;clip-rule:evenodd;fill:#F7AD36;}
	.st22{fill-rule:evenodd;clip-rule:evenodd;fill:#ED6C6C;}
	.st23{fill-rule:evenodd;clip-rule:evenodd;fill:#42373B;}
	.st24{fill-rule:evenodd;clip-rule:evenodd;fill:#705E65;}
	.st25{fill-rule:evenodd;clip-rule:evenodd;fill:#F7C4C9;}
	.st26{fill-rule:evenodd;clip-rule:evenodd;fill:#DBAEB2;}
	.st27{fill-rule:evenodd;clip-rule:evenodd;fill:#FFFFFF;}
	.st28{fill-rule:evenodd;clip-rule:evenodd;fill:#E8E8E8;}
	.st29{fill-rule:evenodd;clip-rule:evenodd;fill:#796FBF;}
	.st30{fill-rule:evenodd;clip-rule:evenodd;fill:#D1D1D1;}
	.st31{display:inline;fill-rule:evenodd;clip-rule:evenodd;fill:#796FBF;}
	.st32{display:inline;fill-rule:evenodd;clip-rule:evenodd;fill:#675FA3;}
	.st33{display:inline;fill-rule:evenodd;clip-rule:evenodd;fill:#97A85E;}
	.st34{fill:#8C767E;}
	.st35{display:inline;fill-rule:evenodd;clip-rule:evenodd;fill:#705E65;}
	.st36{display:inline;fill-rule:evenodd;clip-rule:evenodd;fill:#D1D1D1;}
	.st37{display:inline;fill:#7168B3;}
	.st38{fill:#73804D;}
	.st39{fill:#97A85E;}
	.st40{fill:#DBDBDB;}
	.st41{fill:#FFFFFF;}
	.st42{fill-rule:evenodd;clip-rule:evenodd;fill:#DBDBDB;}
	.st43{fill-rule:evenodd;clip-rule:evenodd;fill:#BA9DA8;}
	.st44{fill-rule:evenodd;clip-rule:evenodd;fill:#57484E;}
	.st45{fill-rule:evenodd;clip-rule:evenodd;fill:#D66262;}
	.st46{fill:#ED6C6C;}
	.st47{fill-rule:evenodd;clip-rule:evenodd;fill:#665DA1;}
	.st48{fill:#D1D1D1;}
	.st49{fill:#DBAEB2;}
	.st50{fill:#D66262;}
	.st51{fill:#829CBC;}
	.st52{fill:#748CA8;}
	.st53{fill:#F7C4C9;}
	.st54{fill:#F7AD36;}
	.st55{fill-rule:evenodd;clip-rule:evenodd;fill:#73804D;}
	.st56{fill-rule:evenodd;clip-rule:evenodd;fill:#635A9C;}
	.st57{fill-rule:evenodd;clip-rule:evenodd;fill:#474F30;}
	.st58{fill-rule:evenodd;clip-rule:evenodd;fill:#5E4F55;}
	.st59{fill-rule:evenodd;clip-rule:evenodd;fill:#E6B1B7;}
	.st60{fill:none;stroke:#42373B;stroke-width:1.5054;stroke-linecap:round;stroke-linejoin:round;stroke-miterlimit:10;}
	.st61{fill:#00C5C5;}
	.st62{fill-rule:evenodd;clip-rule:evenodd;fill:#00C5C5;}
	.st63{fill-rule:evenodd;clip-rule:evenodd;fill:#009B97;}
	.st64{fill:#104848;}
	.st65{fill-rule:evenodd;clip-rule:evenodd;fill:#104848;}
	.st66{fill-rule:evenodd;clip-rule:evenodd;fill:#1D7C7A;}
	.st67{fill-rule:evenodd;clip-rule:evenodd;fill:#082D2C;}
	.st68{fill-rule:evenodd;clip-rule:evenodd;fill:#00E5DF;}
</style>
<g id="background" class="st0">
</g>
<g id="image" class="st0">
</g>
<g id="Layer_4">
	<g>
		<path class="st38" d="M429.58,251.44c0,0,6.78-40.7,33.88-66.25c0,0,14.35,53.89-22.24,67.45
			C438.58,253.62,429.58,251.44,429.58,251.44z"/>
		<path class="st38" d="M422.73,204.84c0,0-1.06-36.26-29.47-45.18c0,0-6.93,56.24,26.44,91.78l6.91,3.45L422.73,204.84z"/>
		<path class="st39" d="M422.03,252.64c0,0-12.35-70.51,19.94-101.03c0,0,17.07,51.54-11.13,103.28L422.03,252.64z"/>
		<path class="st40" d="M434.19,131.87h-96.97c-6.6,0-12-5.4-12-12V91.24c0-6.6,5.4-12,12-12h96.97c6.6,0,12,5.4,12,12v28.63
			C446.19,126.47,440.79,131.87,434.19,131.87z"/>
		<path class="st61" d="M392.27,101.77h-50.8c-2.87,0-5.22-2.35-5.22-5.22l0,0c0-2.87,2.35-5.22,5.22-5.22h50.8
			c2.87,0,5.22,2.35,5.22,5.22l0,0C397.49,99.42,395.14,101.77,392.27,101.77z"/>
		<path class="st61" d="M431.18,101.77h-20.35c-2.87,0-5.22-2.35-5.22-5.22l0,0c0-2.87,2.35-5.22,5.22-5.22h20.35
			c2.87,0,5.22,2.35,5.22,5.22l0,0C436.4,99.42,434.05,101.77,431.18,101.77z"/>
		<path class="st41" d="M394.88,120.41h-56.02c-1.44,0-2.61-1.17-2.61-2.61l0,0c0-1.44,1.17-2.61,2.61-2.61h56.02
			c1.44,0,2.61,1.17,2.61,2.61l0,0C397.49,119.24,396.31,120.41,394.88,120.41z"/>
		
			<ellipse transform="matrix(0.1623 -0.9867 0.9867 0.1623 125.6619 337.2419)" class="st42" cx="261.46" cy="94.61" rx="28.59" ry="28.59"/>
		<rect x="309.08" y="152.56" class="st23" width="16.14" height="26.95"/>
		<path class="st23" d="M335.99,184.96h-35.04c-1.5,0-2.73-1.23-2.73-2.73l0,0c0-1.5,1.23-2.73,2.73-2.73h35.04
			c1.5,0,2.73,1.23,2.73,2.73l0,0C338.72,183.74,337.49,184.96,335.99,184.96z"/>
		<ellipse class="st20" cx="276.96" cy="313.32" rx="169.23" ry="8.47"/>
		<path class="st19" d="M200.84,308.94L200.84,308.94c0.97-0.38,1.45-1.39,1.08-2.27l-32.64-77.2c-0.37-0.88-1.46-1.29-2.43-0.91
			l0,0c-0.97,0.38-1.45,1.39-1.08,2.27l32.64,77.2C198.78,308.91,199.87,309.32,200.84,308.94z"/>
		<polygon class="st22" points="183.67,289.45 195.8,295.25 204.05,285.83 191.92,280.04 		"/>
		<path class="st23" d="M203.96,311.58c-0.26,0.39-0.7,0.65-1.21,0.74c-0.51,0.09-4.44-1.41-4.9-1.67
			c-4.3-2.53-12.22-7.79-17.92-11.14c-0.89-0.52-1.52-1.33-1.75-2.23c-0.23-0.9-0.04-1.82,0.52-2.55c2.13-2.74,5.06-6.51,5.06-6.51
			l12.65,6.34c0,0,4.46,8.56,7.67,12.78C205.43,309.1,205.13,309.86,203.96,311.58L203.96,311.58L203.96,311.58z"/>
		<path class="st23" d="M250.31,243.3l-48.08,47.54l-15.69-8.79c11.43-22.92,28.87-50.97,44.79-50.42L250.31,243.3z"/>
		<polygon class="st22" points="260.85,304.07 272.31,297.03 268.88,284.98 257.42,292.02 		"/>
		<path class="st23" d="M290.53,299.46c0.17,0.44,0.14,0.95-0.07,1.42c-0.22,0.47-3.67,2.87-4.15,3.09
			c-4.52,2.12-13.33,5.68-19.32,8.49c-0.93,0.44-1.95,0.5-2.83,0.19c-0.87-0.32-1.53-0.99-1.81-1.87c-1.06-3.3-2.51-7.85-2.51-7.85
			l12.38-6.85c0,0,9.59,1.16,14.88,0.89C289.31,296.85,289.77,297.53,290.53,299.46L290.53,299.46L290.53,299.46z"/>
		<path class="st19" d="M427.73,310.02L427.73,310.02c-1.39,0.52-2.96-0.13-3.5-1.47l-47.84-117.27c-0.55-1.34,0.14-2.84,1.53-3.37
			l0,0c1.39-0.52,2.96,0.13,3.5,1.47l47.84,117.27C429.81,307.99,429.12,309.5,427.73,310.02z"/>
		<path class="st43" d="M111.82,312.83L111.82,312.83c-1.38-0.54-2.03-2.1-1.45-3.5l51.31-122.41c0.58-1.39,2.18-2.09,3.56-1.55l0,0
			c1.38,0.54,2.03,2.1,1.45,3.5l-51.31,122.41C114.8,312.67,113.21,313.37,111.82,312.83z"/>
		<path class="st24" d="M293.98,321.62L293.98,321.62c-1.38-0.54-2.01-2.15-1.4-3.61l53.63-128.17c0.61-1.46,2.23-2.21,3.61-1.67
			l0,0c1.38,0.54,2.01,2.15,1.4,3.61l-53.63,128.17C296.98,321.4,295.36,322.15,293.98,321.62z"/>
		<path class="st44" d="M162.4,199.12c0,0-3.9,30.42,21.52,33.86c25.41,3.44,74.87,2.16,74.87,2.16s4.24-21.75-11.38-25.48
			c-19.73-4.72-30.01-7.06-30.01-7.06L162.4,199.12z"/>
		<path class="st22" d="M179.24,124.74l6.12-19.19l13.49,5.09l-2.58,18.29C192.24,124.37,186.13,123.81,179.24,124.74L179.24,124.74
			z"/>
		<path class="st45" d="M191.1,111.59c0,0,0.53,6.55,5.98,11.61l0.54-3.83l0.79-5.62C195.64,113.69,193.1,113.16,191.1,111.59z"/>
		<path class="st46" d="M182.63,96.04C184.45,87.05,185.1,85.52,193,84c8.01-0.81,2.72,2.03,11.02,3.9
			c4.89,1.1,4.93,5.63,4.12,11.33c-0.28,1.99,0.62,3.85,2.37,6.04c0.48,1.38-1.79,2.37-2.44,2.96c-0.77,0.69-0.18,7.39-2.07,8.53
			c-5.19,3.11-13.68-0.51-13.68-0.51c-9.12-4.74-3.96-23.21-3.96-23.21C187.85,89.92,182.15,98.43,182.63,96.04z"/>
		<path class="st23" d="M192.88,100.13c0,0-4.71,9.55-8.85,13.65c-2.25,2.23-4.67-0.45-4.85-3.62c-0.35-6.31-4.86-11.92-2.22-20.95
			c1.35-4.63,12.07-7.09,20.21-7.78c9.45-0.81,20.15,11.73,4.51,13.11l-4.84,8.85c-0.71,1.29-2.62,1.1-3.05-0.31L192.88,100.13z"/>
		<path class="st22" d="M188.75,98.12c1.86-0.57,3.97,0.9,4.7,3.27c0.73,2.38-0.19,4.78-2.05,5.35c-1.86,0.57-3.97-0.9-4.7-3.27
			C185.96,101.09,186.88,98.69,188.75,98.12L188.75,98.12z"/>
		
			<rect x="243.26" y="181.76" transform="matrix(-1 -1.224647e-16 1.224647e-16 -1 537.0069 366.7228)" class="st24" width="50.48" height="3.2"/>
		<path class="st23" d="M389.17,191.02h-237.8c-1.66,0-3.03-1.36-3.03-3.03v0c0-1.66,1.36-3.03,3.03-3.03h237.8
			c1.66,0,3.03,1.36,3.03,3.03v0C392.19,189.65,390.83,191.02,389.17,191.02z"/>
		<path class="st20" d="M434.38,314.93h-9.86c-12.66,0-22.92-10.26-22.92-22.92V248.9h55.7v43.11
			C457.3,304.67,447.04,314.93,434.38,314.93z"/>
		<path class="st40" d="M457.3,296.07v-43.43c-11.19,31.9-33.64,52.28-42.57,59.42c4.27,1.81,9.31,2.87,14.71,2.87h0
			C444.83,314.93,457.3,306.49,457.3,296.07z"/>
		<path class="st62" d="M219.13,156.23l-1.73,46.37c0,0-23.97,7.52-55.99-1.11c-2.21-1.61-2.55-4.5-0.48-9.03l-0.56-30.72
			c-0.13-7.1,0.67-14.19,2.55-21.04c2.35-8.53,6.62-17.83,14.22-19.19c7.91-1.41,12.12-0.75,20.92,1.19
			c10.56,2.33,18.64,11.36,19.8,21.91L219.13,156.23z"/>
		<path class="st22" d="M264.75,174.95c0,0,4.29-4.04,7.61-2.92c1.58,0.53,4.02,0.19,6.39,1.06c2.61,0.96,5.77,4.22,5.77,4.22
			s0.54,3.4-2.39,4.46c-1.05,0.38-4.74-2-4.74-2c-2.76,1.5-8,3.11-12.1,2.83l-7.67-0.35l-3.53-4.32L264.75,174.95z"/>
		<path class="st62" d="M214.11,134.87l20.74,32.39l26.32,3.43c2.35,0.31,4.11,2.31,4.11,4.69v7.99l-35.99,1.1l-23.56-13.5
			L214.11,134.87z"/>
		<path class="st44" d="M259.22,230.57l13.22,58.66l-16.25,7.7c-10.87-22.55-21.1-42.92-18.69-61.51L259.22,230.57z"/>
		<path class="st19" d="M237.19,313.35L237.19,313.35c0.97-0.37,1.44-1.43,1.05-2.36l-34.35-81.43c-0.39-0.93-1.49-1.38-2.46-1l0,0
			c-0.97,0.37-1.44,1.43-1.05,2.36l34.35,81.43C235.12,313.28,236.22,313.73,237.19,313.35z"/>
		<path class="st19" d="M181.74,269.17h-30.37c-0.79,0-1.43-0.65-1.43-1.43l0,0c0-0.79,0.65-1.43,1.43-1.43h30.37
			c0.79,0,1.43,0.65,1.43,1.43l0,0C183.17,268.52,182.52,269.17,181.74,269.17z"/>
		<path class="st19" d="M165,313.35L165,313.35c-0.97-0.37-1.44-1.43-1.05-2.36l34.35-81.43c0.39-0.93,1.49-1.38,2.46-1h0
			c0.97,0.37,1.44,1.43,1.05,2.36l-34.35,81.43C167.07,313.28,165.97,313.73,165,313.35z"/>
		<path class="st19" d="M217.87,269.17h-32.52c-0.79,0-1.43-0.65-1.43-1.43l0,0c0-0.79,0.65-1.43,1.43-1.43h32.52
			c0.79,0,1.43,0.65,1.43,1.43l0,0C219.31,268.52,218.66,269.17,217.87,269.17z"/>
		<path class="st19" d="M130.86,312.54l-0.16-0.06c-0.93-0.36-1.37-1.37-1-2.25l33.07-78.39c0.37-0.89,1.43-1.32,2.35-0.96
			l0.16,0.06c0.93,0.36,1.37,1.37,1,2.25l-33.07,78.39C132.84,312.47,131.79,312.9,130.86,312.54z"/>
		<path class="st24" d="M212.87,243.52h-57.91c-4.63,0-8.38-3.75-8.38-8.38l0,0c0-4.63,3.75-8.38,8.38-8.38h57.91
			c4.63,0,8.38,3.75,8.38,8.38l0,0C221.25,239.77,217.5,243.52,212.87,243.52z"/>
		<path class="st63" d="M218.34,177.23l-12.6-11.75v39.35c0,0,7.43,0.23,11.66-2.24c2.08-1.65,2.81-3.48,0.25-6.56L218.34,177.23z"
			/>
		<path class="st23" d="M347.92,166.48H277.6c-2.94,0-5.29-2.45-5.16-5.39l2.05-45.97c0.12-2.76,2.39-4.93,5.16-4.93h70.32
			c2.94,0,5.29,2.45,5.16,5.39l-2.05,45.97C352.95,164.31,350.68,166.48,347.92,166.48z"/>
		<path class="st42" d="M342.68,160.49h-59.5c-2.49,0-4.47-1.97-4.36-4.34l1.73-36.97c0.1-2.22,2.03-3.97,4.36-3.97h59.5
			c2.49,0,4.47,1.97,4.36,4.34l-1.73,36.98C346.94,158.74,345.02,160.49,342.68,160.49z"/>
		<path class="st27" d="M323.62,150.95h-21.77c-6.12,0-11.13-5.01-11.13-11.13v-6.68c0-6.12,5.01-11.13,11.13-11.13h21.77
			c6.12,0,11.13,5.01,11.13,11.13v6.68C334.75,145.94,329.74,150.95,323.62,150.95z"/>
		<path class="st62" d="M298.22,144.03l6.88-11.9c0.81-1.4,2.84-1.37,3.61,0.05l5.92,10.97l3.14-4.24c0.87-1.17,2.64-1.1,3.41,0.13
			l3.15,5H298.22z"/>
		<circle class="st21" cx="319.4" cy="129.87" r="2.99"/>
	</g>
</g>
<g id="Illustration_01">
</g>
</svg>
