<svg width="140" height="140" viewBox="0 0 140 140" fill="none" xmlns="http://www.w3.org/2000/svg">
<path d="M120.312 13.125L131.25 6.5625" stroke="black" stroke-width="8.75" stroke-linecap="round" stroke-linejoin="round"/>
<path d="M120.312 43.75L131.25 50.3125" stroke="black" stroke-width="8.75" stroke-linecap="round" stroke-linejoin="round"/>
<path d="M120.312 28.4375H133.438" stroke="black" stroke-width="8.75" stroke-linecap="round" stroke-linejoin="round"/>
<path d="M85.3125 10.9375H45.9375C38.9756 10.9375 32.2988 13.7031 27.3759 18.6259C22.4531 23.5488 19.6875 30.2256 19.6875 37.1875H41.5625V63.4375H59.0625V37.1875H85.3125V10.9375Z" stroke="black" stroke-width="8.75" stroke-linecap="round" stroke-linejoin="round"/>
<path d="M59.0625 37.1875C59.0625 37.1875 72.1875 59.0625 89.6875 59.0625" stroke="black" stroke-width="8.75" stroke-linecap="round" stroke-linejoin="round"/>
<path d="M67.8125 80.9375V72.1875C67.8125 69.8669 66.8906 67.6413 65.2497 66.0003C63.6087 64.3594 61.3831 63.4375 59.0625 63.4375H41.5625C39.2419 63.4375 37.0163 64.3594 35.3753 66.0003C33.7344 67.6413 32.8125 69.8669 32.8125 72.1875V80.9375C19.6875 80.9375 6.5625 89.6875 6.5625 115.938C6.5625 120.579 8.40625 125.03 11.6881 128.312C14.97 131.594 19.4212 133.438 24.0625 133.438H76.5625C81.2038 133.438 85.655 131.594 88.9369 128.312C92.2188 125.03 94.0625 120.579 94.0625 115.938C94.0625 89.6875 80.9375 80.9375 67.8125 80.9375Z" stroke="black" stroke-width="8.75" stroke-linecap="round" stroke-linejoin="round"/>
<path d="M102.812 19.6875V32.8125" stroke="black" stroke-width="8.75" stroke-linecap="round" stroke-linejoin="round"/>
</svg>
