<svg width="140" height="140" viewBox="0 0 140 140" fill="none" xmlns="http://www.w3.org/2000/svg">
<g clip-path="url(#clip0)">
<path d="M74.6664 57.2074C74.6647 50.6616 72.8362 44.2475 69.3885 38.6935C65.9409 33.1395 61.0122 28.6683 55.1623 25.7876C49.3124 22.907 42.7758 21.7325 36.2949 22.3974C29.814 23.0623 23.6486 25.54 18.4988 29.5491C13.3491 33.5582 9.42146 38.9381 7.16206 45.0776C4.90266 51.2171 4.40203 57.8702 5.71704 64.2813C7.03205 70.6923 10.11 76.6044 14.6013 81.3459C19.0926 86.0875 24.8172 89.4685 31.1249 91.1049V126.898C31.1249 129.219 32.0424 131.445 33.6755 133.085C35.3086 134.726 37.5236 135.648 39.8332 135.648C42.1428 135.648 44.3578 134.726 45.9909 133.085C47.624 131.445 48.5415 129.219 48.5415 126.898V91.1049C56.0201 89.1647 62.6448 84.782 67.374 78.6458C72.1031 72.5097 74.6684 64.9683 74.6664 57.2074V57.2074Z" stroke="black" stroke-width="8.75" stroke-linecap="round" stroke-linejoin="round"/>
<path d="M79.386 91.8749C83.935 91.2439 88.3139 89.7112 92.2685 87.3657L120.756 115.984C122.399 117.578 124.598 118.46 126.882 118.44C129.165 118.42 131.349 117.5 132.964 115.877C134.578 114.255 135.494 112.061 135.514 109.766C135.534 107.472 134.656 105.262 133.07 103.612L104.565 74.9932C108.475 68.3373 110.084 60.5678 109.138 52.897C108.192 45.2262 104.746 38.0857 99.3375 32.5897C93.9286 27.0936 86.8612 23.5512 79.2381 22.5151C71.615 21.4791 63.8649 23.0077 57.1973 26.8624" stroke="black" stroke-width="8.75" stroke-linecap="round" stroke-linejoin="round"/>
<path d="M31.125 52.8325C31.125 55.1532 32.0425 57.3788 33.6756 59.0197C35.3087 60.6606 37.5237 61.5825 39.8333 61.5825C42.1429 61.5825 44.3579 60.6606 45.991 59.0197C47.6241 57.3788 48.5416 55.1532 48.5416 52.8325C48.5416 50.5119 47.6241 48.2863 45.991 46.6453C44.3579 45.0044 42.1429 44.0825 39.8333 44.0825C37.5237 44.0825 35.3087 45.0044 33.6756 46.6453C32.0425 48.2863 31.125 50.5119 31.125 52.8325V52.8325Z" stroke="black" stroke-width="8.75" stroke-linecap="round" stroke-linejoin="round"/>
<path d="M39.833 44.0825V17.5C39.833 14.019 41.2092 10.6806 43.6589 8.21922C46.1086 5.75781 49.4311 4.375 52.8955 4.375C56.3598 4.375 59.6823 5.75781 62.132 8.21922C64.5817 10.6806 65.9579 14.019 65.9579 17.5V23.2692" stroke="black" stroke-width="8.75" stroke-linecap="round" stroke-linejoin="round"/>
</g>
<defs>
<clipPath id="clip0">
<rect width="140" height="140" fill="white"/>
</clipPath>
</defs>
</svg>
