<?xml version="1.0" encoding="utf-8"?>
<!-- Generator: Adobe Illustrator 24.1.2, SVG Export Plug-In . SVG Version: 6.00 Build 0)  -->
<svg version="1.1" xmlns="http://www.w3.org/2000/svg" xmlns:xlink="http://www.w3.org/1999/xlink" x="0px" y="0px"
	 viewBox="0 0 794.24 482.98" style="enable-background:new 0 0 794.24 482.98;" xml:space="preserve">
<style type="text/css">
	.st0{display:none;}
	.st1{display:inline;fill:#ED6C6C;}
	.st2{display:inline;fill-rule:evenodd;clip-rule:evenodd;fill:#ED6C6C;}
	.st3{display:inline;fill-rule:evenodd;clip-rule:evenodd;fill:#E8E8E8;}
	.st4{display:inline;fill:#E8E8E8;}
	.st5{display:inline;fill-rule:evenodd;clip-rule:evenodd;fill:#42373B;}
	.st6{display:inline;fill-rule:evenodd;clip-rule:evenodd;fill:#859459;}
	.st7{display:inline;fill-rule:evenodd;clip-rule:evenodd;fill:#8C767E;}
	.st8{display:inline;fill:#DBDBDB;}
	.st9{display:inline;fill:#97A85E;}
	
		.st10{display:inline;fill:none;stroke:#42373B;stroke-width:1.5054;stroke-linecap:round;stroke-linejoin:round;stroke-miterlimit:10;}
	.st11{display:inline;fill:#73804D;}
	.st12{display:inline;}
	.st13{fill:#42373B;}
	.st14{fill:#796FBF;}
	.st15{fill:#7168B3;}
	.st16{fill:#675FA3;}
	.st17{display:inline;fill-rule:evenodd;clip-rule:evenodd;fill:#E0B2B7;}
	.st18{display:inline;fill-rule:evenodd;clip-rule:evenodd;fill:#F7C4C9;}
	.st19{fill-rule:evenodd;clip-rule:evenodd;fill:#8C767E;}
	.st20{fill:#E8E8E8;}
	.st21{fill-rule:evenodd;clip-rule:evenodd;fill:#F7AD36;}
	.st22{fill-rule:evenodd;clip-rule:evenodd;fill:#ED6C6C;}
	.st23{fill-rule:evenodd;clip-rule:evenodd;fill:#42373B;}
	.st24{fill-rule:evenodd;clip-rule:evenodd;fill:#705E65;}
	.st25{fill-rule:evenodd;clip-rule:evenodd;fill:#F7C4C9;}
	.st26{fill-rule:evenodd;clip-rule:evenodd;fill:#DBAEB2;}
	.st27{fill-rule:evenodd;clip-rule:evenodd;fill:#FFFFFF;}
	.st28{fill-rule:evenodd;clip-rule:evenodd;fill:#E8E8E8;}
	.st29{fill-rule:evenodd;clip-rule:evenodd;fill:#796FBF;}
	.st30{fill-rule:evenodd;clip-rule:evenodd;fill:#D1D1D1;}
	.st31{display:inline;fill-rule:evenodd;clip-rule:evenodd;fill:#796FBF;}
	.st32{display:inline;fill-rule:evenodd;clip-rule:evenodd;fill:#675FA3;}
	.st33{display:inline;fill-rule:evenodd;clip-rule:evenodd;fill:#97A85E;}
	.st34{fill:#8C767E;}
	.st35{display:inline;fill-rule:evenodd;clip-rule:evenodd;fill:#705E65;}
	.st36{display:inline;fill-rule:evenodd;clip-rule:evenodd;fill:#D1D1D1;}
	.st37{display:inline;fill:#7168B3;}
	.st38{fill:#73804D;}
	.st39{fill:#97A85E;}
	.st40{fill:#DBDBDB;}
	.st41{fill:#FFFFFF;}
	.st42{fill-rule:evenodd;clip-rule:evenodd;fill:#DBDBDB;}
	.st43{fill-rule:evenodd;clip-rule:evenodd;fill:#BA9DA8;}
	.st44{fill-rule:evenodd;clip-rule:evenodd;fill:#57484E;}
	.st45{fill-rule:evenodd;clip-rule:evenodd;fill:#D66262;}
	.st46{fill:#ED6C6C;}
	.st47{fill-rule:evenodd;clip-rule:evenodd;fill:#665DA1;}
	.st48{fill:#D1D1D1;}
	.st49{fill:#DBAEB2;}
	.st50{fill:#D66262;}
	.st51{fill:#829CBC;}
	.st52{fill:#748CA8;}
	.st53{fill:#F7C4C9;}
	.st54{fill:#F7AD36;}
	.st55{fill-rule:evenodd;clip-rule:evenodd;fill:#73804D;}
	.st56{fill-rule:evenodd;clip-rule:evenodd;fill:#635A9C;}
	.st57{fill-rule:evenodd;clip-rule:evenodd;fill:#474F30;}
	.st58{fill-rule:evenodd;clip-rule:evenodd;fill:#5E4F55;}
	.st59{fill-rule:evenodd;clip-rule:evenodd;fill:#E6B1B7;}
	.st60{fill:none;stroke:#42373B;stroke-width:1.5054;stroke-linecap:round;stroke-linejoin:round;stroke-miterlimit:10;}
	.st61{fill:#00C5C5;}
	.st62{fill-rule:evenodd;clip-rule:evenodd;fill:#00C5C5;}
	.st63{fill-rule:evenodd;clip-rule:evenodd;fill:#009B97;}
	.st64{fill:#104848;}
	.st65{fill-rule:evenodd;clip-rule:evenodd;fill:#104848;}
	.st66{fill-rule:evenodd;clip-rule:evenodd;fill:#1D7C7A;}
	.st67{fill-rule:evenodd;clip-rule:evenodd;fill:#082D2C;}
	.st68{fill-rule:evenodd;clip-rule:evenodd;fill:#00E5DF;}
</style>
<g id="background" class="st0">
</g>
<g id="image" class="st0">
</g>
<g id="Layer_4">
</g>
<g id="Illustration_01">
	<g>
		<path class="st28" d="M295.18,175.8h-218c-5.92,0-10.72-4.8-10.72-10.72V43.67c0-5.92,4.8-10.72,10.72-10.72h218
			c5.92,0,10.72,4.8,10.72,10.72v121.42C305.9,171,301.1,175.8,295.18,175.8z"/>
		<path class="st48" d="M271.08,160.97h-89.05c-3.98,0-7.2-3.22-7.2-7.2v-23.01c0-3.98,3.22-7.2,7.2-7.2h89.05
			c3.98,0,7.2,3.22,7.2,7.2v23.01C278.28,157.75,275.05,160.97,271.08,160.97z"/>
		<path class="st48" d="M154.92,87.41H93.27c-3.98,0-7.2-3.22-7.2-7.2V57.2c0-3.98,3.22-7.2,7.2-7.2h61.65c3.98,0,7.2,3.22,7.2,7.2
			v23.01C162.12,84.19,158.9,87.41,154.92,87.41z"/>
		<path class="st48" d="M154.92,160.51H93.27c-3.98,0-7.2-3.22-7.2-7.2v-44.24c0-3.98,3.22-7.2,7.2-7.2h61.65
			c3.98,0,7.2,3.22,7.2,7.2v44.24C162.12,157.29,158.9,160.51,154.92,160.51z"/>
		<ellipse class="st20" cx="344.75" cy="355.87" rx="77.45" ry="8.86"/>
		<g>
			<g>
				<g>
					<g>
						<path class="st61" d="M176.61,105.4c0,0,5.62-9.2,16.02-9.25c7.95-0.04,3.78,1.71,13.31-0.2c5.62-1.12,14.32-14.21,28.2-15.17
							c25.12-1.74,33.81-26.66,44.75-20.48l0.14,53.21l-102.4-0.11L176.61,105.4z"/>
					</g>
				</g>
			</g>
		</g>
		<g>
			<g>
				<path class="st13" d="M175.97,113.59c-0.04,0-0.07,0-0.11-0.01c-0.35-0.05-0.64-0.37-0.64-0.71l-0.39-60.83
					c0-0.34,0.28-0.58,0.64-0.53c0.35,0.05,0.64,0.37,0.64,0.71l0.39,60.83C176.5,113.36,176.27,113.59,175.97,113.59z"/>
			</g>
		</g>
		<g>
			<g>
				<path class="st13" d="M279.14,114.14c-0.04,0-0.07,0-0.11-0.01c-0.35-0.05-0.64-0.37-0.64-0.71l-0.12-61.39
					c0-0.34,0.29-0.58,0.64-0.53c0.35,0.05,0.64,0.37,0.64,0.71l0.12,61.39C279.67,113.91,279.44,114.13,279.14,114.14z"/>
			</g>
		</g>
		<g>
			<g>
				<path class="st13" d="M248.04,113.36c-0.04,0-0.07,0-0.11-0.01c-0.35-0.05-0.64-0.37-0.64-0.71l-0.17-63.11
					c0-0.34,0.28-0.58,0.64-0.53c0.35,0.05,0.64,0.37,0.64,0.71l0.17,63.11C248.57,113.13,248.34,113.36,248.04,113.36z"/>
			</g>
		</g>
		<g>
			<g>
				<path class="st13" d="M210.32,114.59c-0.04,0-0.07,0-0.11-0.01c-0.35-0.05-0.64-0.37-0.64-0.71l-0.41-64.14
					c0-0.34,0.28-0.58,0.64-0.53c0.35,0.05,0.64,0.37,0.64,0.71l0.41,64.14C210.85,114.36,210.62,114.59,210.32,114.59z"/>
			</g>
		</g>
		<g>
			<g>
				<g>
					<path class="st64" d="M176.46,96.12c-0.37,0.01-0.77-0.17-1.04-0.5c-0.41-0.51-0.37-1.2,0.09-1.53l17.76-12.75
						c0.05-0.04,0.11-0.07,0.17-0.1l16.9-7.3c0.07-0.03,0.15-0.05,0.23-0.07l29.63-5.04l33.59-21.84c0.48-0.31,1.19-0.14,1.59,0.38
						c0.4,0.53,0.33,1.21-0.16,1.52l-33.75,21.95c-0.11,0.07-0.23,0.12-0.37,0.14l-29.71,5.05l-16.7,7.21l-17.68,12.69
						C176.86,96.05,176.66,96.11,176.46,96.12z"/>
				</g>
			</g>
		</g>
		<g>
			<g>
				<path class="st64" d="M271.48,54.76c-0.25,0.01-0.52-0.07-0.76-0.24c-0.54-0.38-0.72-1.08-0.41-1.56l2.76-4.19l-4.37,0.41
					c-0.59,0.06-1.22-0.39-1.37-1c-0.15-0.61,0.22-1.15,0.83-1.21l6.95-0.66c0.45-0.05,0.9,0.19,1.17,0.58
					c0.27,0.39,0.3,0.87,0.07,1.22l-4.1,6.24C272.08,54.61,271.79,54.75,271.48,54.76z"/>
			</g>
		</g>
		<polygon class="st22" points="397.95,326.59 388.35,330.21 393.28,343.32 402.89,339.71 397.95,326.59 		"/>
		<polygon class="st22" points="328.39,327.88 338.63,328.44 337.88,342.43 327.63,341.88 328.39,327.88 		"/>
		<path class="st65" d="M349.97,219.38c10.11,33.07,32.3,105.33,35.76,113.93c6.82,1.14,11.72-1.08,15.32-5.55
			c-1.53-5.27-6.64-49.1-14.04-68.95c-4.92-25.31-8.99-46.82-10.87-56.83c-0.13-1.65-0.28-3.1-0.44-4.11
			c-0.17-1.05-0.32-2.1-0.45-3.15c-0.62-4.92-2.48-19.66-2.48-19.66c-11.75,6.23-27.58,7.83-46.15,0.42l-3.24-0.22l-0.45,43.77
			l-0.07,0l3.81,114.13c5.09,2.43,10.09,2.31,15.04,0.24c2.78-24.09,5.73-52.36,4.5-67.38l3.11-46.63L349.97,219.38z"/>
		<path class="st23" d="M338.58,339.83l-0.35,5.77c-0.2,3.21-2.66,5.83-5.86,6.22l-20.85,2.54c-0.96,0.12-1.9-0.32-2.44-1.13
			l-0.26-0.4c-0.76-1.15-0.47-2.71,0.67-3.5l8.67-3.83l9.69-8.57C331.15,336.25,335.43,336.63,338.58,339.83z"/>
		<path class="st23" d="M404.65,348.61l-6.15,11.05c-0.58,1.05-1.72,1.66-2.92,1.57l-1.31-0.1c-1.73-0.13-3-1.67-2.81-3.39
			l1.11-10.13l-1.46-9.34c2.08-4.01,5.07-6.23,9.95-4.71l3.91,9.38C405.74,344.77,405.62,346.86,404.65,348.61z"/>
		<path class="st66" d="M370.02,199.05c0,0-30.37,14.42-47.04,14.21l0.18-17.04L370.02,199.05z"/>
		<path class="st27" d="M393.23,203.84c0.67,2.31-0.66,5.09-2.97,6.22c-2.3,1.13-4.71,0.17-5.37-2.14
			c-0.67-2.31,0.66-5.09,2.97-6.22C390.15,200.58,392.56,201.54,393.23,203.84z"/>
		<path class="st62" d="M291.57,147.95l6.95,19.07l17.31-11.71l5.71,46.05c0,0,24.39,4.21,55.17-5.08l-2.96-43.02
			c0,0,0.41-30.56-14.06-32.81c-14.48-2.24-37.25-0.23-46.03,10.46L291.57,147.95z"/>
		<path class="st22" d="M348.83,124.5l-2.48-19.99l-14.2,2.51l-0.84,18.45C336.12,121.73,342.23,122.31,348.83,124.5L348.83,124.5z"
			/>
		<path class="st23" d="M338.28,133.57c0.09,0.76-0.44,1.44-1.2,1.54c-0.76,0.09-1.44-0.44-1.54-1.2c-0.09-0.76,0.44-1.44,1.2-1.54
			C337.5,132.28,338.19,132.82,338.28,133.57z"/>
		<path class="st23" d="M339.16,140.66c0.09,0.76-0.44,1.44-1.2,1.54c-0.76,0.09-1.44-0.44-1.54-1.2c-0.09-0.76,0.44-1.44,1.2-1.54
			C338.38,139.37,339.06,139.91,339.16,140.66z"/>
		<path class="st23" d="M340.04,147.75c0.09,0.76-0.44,1.44-1.2,1.54c-0.76,0.09-1.44-0.44-1.54-1.2c-0.09-0.76,0.44-1.44,1.2-1.54
			C339.26,146.46,339.94,147,340.04,147.75z"/>
		<path class="st28" d="M331.23,116.07l-5.39,7.1l5.2,8.02c2.14-2.87,4.46-5.38,6.91-7.65L331.23,116.07z"/>
		<path class="st28" d="M337.85,123.55l10.45-8.95l6.73,5.31c-4.54,2.33-8.63,13.09-8.63,13.09S341.46,125.48,337.85,123.55z"/>
		<path class="st45" d="M339.6,109.39c0,0-6.91,6.19-5.85,8.66l-2-2.22l0.26-5.67C334.74,110.61,337.34,110.57,339.6,109.39z"/>
		<path class="st63" d="M343.92,201.49c0,0,26.09-16.07,29.11-52.23l5.71,46.05C368.66,199.33,355.94,200.17,343.92,201.49z"/>
		<polygon class="st63" points="297.67,167.99 316.26,155.19 315.83,146.98 297.63,160.86 		"/>
		<path class="st22" d="M263.02,117.48c0,0-6.69-3.25-5.97-6.06s11.23,4.42,11.23,4.42l-2.16,4.67L263.02,117.48z"/>
		<path class="st22" d="M271.9,131.46c0,0-4.49-3.36-8.65-6.73c-4.55-3.67-4.32-6.16-0.11-8.95c1.18-0.78,5.15,0.06,5.15,0.06
			l5.88,5.56c0,0,7.55,5.43,4.96,9.04C276.55,134.06,271.9,131.46,271.9,131.46z"/>
		<path class="st22" d="M299.13,157.77l-21.03-32.4l-7.33,5.35c0,0,14.67,36.28,18.2,37.55
			C292.49,169.54,304.04,170.58,299.13,157.77z"/>
		<path class="st23" d="M328.76,84.34c0,0-9.42,4.08-2.23,12.91C333.72,106.08,328.76,84.34,328.76,84.34L328.76,84.34z"/>
		<path class="st22" d="M326.91,91.77c0.17-3.12,1.63-6.03,4.02-8.04c2.39-2.01,5.5-2.95,8.61-2.6l0,0
			c6,0.69,10.43,5.94,10.09,11.97c-0.2,3.47-0.8,4.77-0.99,8.07c-0.13,2.23-1.56,5.63-3.26,7.07c-1.71,1.44-3.14,3.28-5.36,3.03
			c-2.05-0.24-4.24-0.49-6.26-0.72c-4.41-0.5-7.66-4.36-7.41-8.79C326.52,98.71,326.72,95.14,326.91,91.77L326.91,91.77z"/>
		<path class="st23" d="M343.12,90.69c0,0-1.61,10.35,6.52,10.71c0,0,0.65-10.59,1.54-15.33c0.89-4.74-13.51-9.7-20.8-6.02
			C323.08,83.73,327.41,90.65,343.12,90.69L343.12,90.69z"/>
		<path class="st22" d="M348.07,97.35c-1.52-0.15-2.91,1.3-3.1,3.23c-0.19,1.94,0.88,3.63,2.4,3.79c1.52,0.15,2.91-1.3,3.1-3.23
			C350.66,99.2,349.59,97.5,348.07,97.35L348.07,97.35z"/>
		<g>
			<g>
				<g>
					<path class="st23" d="M425.95,195.94l-41.7,21.93c-2.02,1.06-4.52,0.29-5.58-1.73l-12.76-24.27c-1.06-2.02-0.29-4.52,1.73-5.58
						l41.7-21.93c2.02-1.06,4.52-0.29,5.58,1.73l12.76,24.27C428.74,192.38,427.97,194.88,425.95,195.94z"/>
				</g>
				<path class="st27" d="M401.79,187.86c1.7,3.24,0.46,7.25-2.78,8.95c-3.24,1.7-7.25,0.46-8.95-2.78
					c-1.7-3.24-0.46-7.25,2.78-8.95C396.08,183.37,400.09,184.62,401.79,187.86z"/>
			</g>
		</g>
		<path class="st22" d="M405.71,194.4c0,0,4.59,8.55,4.65,10.74c0.06,2.19-0.96,2.95-4.48,3.83c-3.51,0.88-6.43,2.27-7.45-1.29
			c-1.02-3.56-0.17-0.44-0.17-0.44s-3.52-2.02-3.91-5.79c-0.38-3.77,1.32-4.75,1.13-8.09C395.29,190.01,405.71,194.4,405.71,194.4z"
			/>
		<path class="st22" d="M365.53,123.78c0,0,25.34,20.41,30.89,33.45c5.55,13.05,8.84,37.92,8.84,37.92l-10.21,1.39
			c0,0-7.63-27.61-12.21-34.92c-4.57-7.31-22.43-24.17-22.43-24.17L365.53,123.78z"/>
		<path class="st62" d="M358.59,137.58c0,0,22.63,21.38,25.52,30.16c6.28-1.65,9.9-2.82,13.41-9.71c0,0-17.11-28.99-35.39-36.88
			C352.23,116.88,358.59,137.58,358.59,137.58z"/>
		<path class="st63" d="M384.11,167.74c0,0-3.72-7.49-10.72-14.96l-7.02-7.49c0,0,18.14,8.68,22.11,21.17L384.11,167.74z"/>
		<polygon class="st67" points="349.31,219.39 340.93,220.18 347.21,250.91 		"/>
	</g>
	<g>
		<path class="st19" d="M664.49,365.09L664.49,365.09c0.97-0.39,1.44-1.49,1.05-2.46l-34.35-85.05c-0.39-0.97-1.49-1.44-2.46-1.05
			l0,0c-0.97,0.39-1.44,1.49-1.05,2.46l34.35,85.05C662.41,365.01,663.52,365.48,664.49,365.09z"/>
		<ellipse class="st20" cx="552" cy="371.44" rx="150.69" ry="8.47"/>
		<path class="st19" d="M597.85,318.94h-30.24c-0.82,0-1.5-0.67-1.5-1.5l0,0c0-0.82,0.67-1.5,1.5-1.5h30.24c0.82,0,1.5,0.67,1.5,1.5
			l0,0C599.35,318.27,598.67,318.94,597.85,318.94z"/>
		<path class="st19" d="M592.29,365.09L592.29,365.09c-0.97-0.39-1.44-1.49-1.05-2.46l34.35-85.05c0.39-0.97,1.49-1.44,2.46-1.05
			l0,0c0.97,0.39,1.44,1.49,1.05,2.46l-34.35,85.05C594.37,365.01,593.26,365.48,592.29,365.09z"/>
		<path class="st19" d="M618.8,365.09L618.8,365.09c0.97-0.39,1.44-1.49,1.05-2.46l-34.35-85.05c-0.39-0.97-1.49-1.44-2.46-1.05h0
			c-0.97,0.39-1.44,1.49-1.05,2.46l34.35,85.05C616.73,365.01,617.83,365.48,618.8,365.09z"/>
		<path class="st19" d="M645.1,318.94h-32.4c-0.82,0-1.5-0.67-1.5-1.5l0,0c0-0.82,0.67-1.5,1.5-1.5h32.4c0.82,0,1.5,0.67,1.5,1.5
			l0,0C646.6,318.27,645.93,318.94,645.1,318.94z"/>
		<path class="st62" d="M580.2,178.18c0,0-8.45,13.81-10.01,38.6c0,0,6.12-0.58,6.1-1.46C576.27,214.44,580.2,178.18,580.2,178.18z"
			/>
		<path class="st19" d="M690.44,368.14L690.44,368.14c-1.39,0.52-2.96-0.13-3.5-1.47l-47.84-117.27c-0.55-1.34,0.14-2.84,1.53-3.37
			l0,0c1.39-0.52,2.96,0.13,3.5,1.47l47.84,117.27C692.51,366.11,691.82,367.62,690.44,368.14z"/>
		<polygon class="st22" points="522.66,361.55 510.27,360.66 514.37,346.39 526.23,347.24 		"/>
		<polygon class="st22" points="578.33,361.44 565.07,360.48 566.74,346.82 580,347.78 		"/>
		<path class="st23" d="M493.14,370c-0.04,0.51,0.14,0.99,0.49,1.34c0.35,0.35,4.43,0.9,4.96,0.88c5.03-0.26,14.68-1.32,21.35-1.66
			c1.04-0.05,2.05-0.51,2.81-1.27c0.76-0.76,1.2-1.75,1.21-2.74c0.06-3.74,0.13-8.9,0.13-8.9l-12.68-1.24c0,0-10.42,6.96-15.66,9.41
			C493.55,366.85,493.31,367.73,493.14,370L493.14,370L493.14,370z"/>
		<path class="st19" d="M544.6,370.05L544.6,370.05c-0.97-0.39-1.44-1.49-1.05-2.46l36.36-90.01c0.39-0.97,1.49-1.44,2.46-1.05l0,0
			c0.97,0.39,1.44,1.49,1.05,2.46l-36.36,90.01C546.67,369.98,545.57,370.44,544.6,370.05z"/>
		<path class="st19" d="M546.86,371.33L546.86,371.33c-1.39,0.52-3.02-0.3-3.65-1.84l-54.79-134.98c-0.62-1.54,0-3.21,1.39-3.73l0,0
			c1.39-0.52,3.02,0.3,3.65,1.84l54.79,134.98C548.87,369.14,548.25,370.81,546.86,371.33z"/>
		<path class="st24" d="M632.68,282.67h-71.67c-4.5,0-8.16-3.65-8.16-8.16v-0.45c0-4.5,3.65-8.16,8.16-8.16h71.67
			c4.5,0,8.16,3.65,8.16,8.16v0.45C640.84,279.01,637.19,282.67,632.68,282.67z"/>
		<path class="st25" d="M583.59,230.16c0,0-7.82,22.46-7.28,26.83c1.01,8.2,5.49,14.01,5.49,14.01l38.36-0.3
			c10.95-0.09,19.21-9.97,17.36-20.77c-0.01-0.05-0.02-0.1-0.03-0.15c-0.18-1.03-0.34-2.06-0.48-3.1
			c-0.66-4.86-2.63-19.42-2.63-19.42c-11.91,7.72-33.5,10.9-52.42,5.8L583.59,230.16z"/>
		<path class="st62" d="M552.04,231.71l14.11-12.36l10.67-13.36l6.33,14.97c-6.28,9.41-15.03,16.98-28.78,20.77l-1.67-5.02
			L552.04,231.71z"/>
		<path class="st25" d="M511.68,350.69c0-2.15,12.29-48.95,19.23-68.62c1.92-5.44,5.88-9.91,11.04-12.48l41.2-20.46L610.06,272
			l-56.65,23.38c-2.2,14.86-12.69,36.36-24.65,56.75L511.68,350.69z"/>
		<path class="st26" d="M521.86,351.55c1.65-13.63,12.28-25.83,17.07-32.61c6.1-8.62,2.38-22.98,4.91-30.16
			c0.72-2.04,2.73-4.69,5.24-7.34c5.56-5.87,12.7-9.96,20.46-12.24c10.5-3.09,16.72-7.52,23.27-11.85L610.06,272l-56.65,23.38
			c-2.2,14.86-12.69,36.36-24.65,56.75L521.86,351.55z"/>
		<path class="st24" d="M405.41,370.95L405.41,370.95c-1.38-0.54-2.03-2.1-1.45-3.5l51.31-122.41c0.58-1.39,2.18-2.09,3.56-1.55l0,0
			c1.38,0.54,2.03,2.1,1.45,3.5L408.97,369.4C408.39,370.79,406.79,371.49,405.41,370.95z"/>
		<path class="st23" d="M548.02,372.18c-0.04,0.51,0.14,0.99,0.49,1.34c0.35,0.35,4.43,0.9,4.96,0.88
			c5.03-0.26,14.68-1.32,21.35-1.66c1.04-0.05,2.05-0.51,2.81-1.27c0.76-0.76,1.2-1.75,1.21-2.74c0.06-3.74,0.13-8.9,0.13-8.9
			l-14.09-0.31c0,0-9.01,6.03-14.25,8.48C548.43,369.02,548.19,369.91,548.02,372.18L548.02,372.18L548.02,372.18z"/>
		<path class="st23" d="M593.87,132.88c0,0-9.07,4.1-1.97,12.55C599,153.88,593.87,132.88,593.87,132.88L593.87,132.88z"/>
		<path class="st62" d="M624.58,172.65c0,0-0.09-5.1-5.15-7.61c-2.42-1.2-6.29-2.17-11.3-1c-10,2.34-13.36,3.86-13.36,3.86
			L591,180.39l12.59,5.99l24.8-18.57L624.58,172.65z"/>
		<path class="st22" d="M592.19,140.12c0.12-3.03,1.49-5.87,3.77-7.86c2.29-1.99,5.29-2.95,8.3-2.65l0,0
			c5.83,0.58,10.2,5.6,9.97,11.46c-0.14,3.37-0.29,7.06-0.42,10.25c-0.09,2.16-1.06,4.19-2.69,5.61c-1.63,1.42-3.78,2.1-5.93,1.89
			c-2-0.2-4.12-0.41-6.08-0.6c-4.28-0.42-7.49-4.11-7.32-8.41C591.92,146.84,592.06,143.38,592.19,140.12L592.19,140.12z"/>
		<polygon class="st22" points="619.68,171.46 611.77,150.94 597.39,157.35 601.38,177.12 619.68,171.46 		"/>
		<path class="st23" d="M607.88,138.82c0,0-1.41,10.06,6.49,10.29c0,0,4.02-9.06,4.48-13.72c0.86-8.65-16.46-10.37-23.48-6.69
			C588.35,132.37,592.65,139.02,607.88,138.82L607.88,138.82z"/>
		<path class="st27" d="M599.5,167.8c4.77,7.2,16.18,0.67,18.04-1.87c0.29-0.4,5.33,2.54,5.98,2.99
			c10.03,6.92,11.34,36.63,13.13,47.34c0.83,4.98,5.51,21.73,3.01,26.08c-0.82,1.44-8.65,0.34-10.2,0.61
			c-6.54,1.16-35.86,3.44-39.89-1.05c-4-4.46-1-12.76-1.77-18.04c-4.06-27.73,3.7-51.79,3.7-51.79L599.5,167.8z"/>
		<path class="st28" d="M588.66,206.93c5.69,15.17,48.07-1.11,43.25-8.4c-6.72-10.17,2.95,7.01,4.74,17.72
			c0.83,4.98,5.51,21.73,3.01,26.08c-0.82,1.44-4.17,13.07-5.74,13.13c-20.75,0.75-52.65,1.93-54.09-3.93
			c-2.02-8.25,7.29-22.39,7.97-27.68C589.58,210.14,588.66,206.93,588.66,206.93z"/>
		<path class="st22" d="M614.2,144.9c-1.43-0.37-2.97,0.82-3.44,2.65c-0.47,1.83,0.32,3.61,1.75,3.98c1.43,0.36,2.97-0.82,3.44-2.65
			C616.41,147.05,615.63,145.26,614.2,144.9L614.2,144.9z"/>
		<path class="st23" d="M591.77,149.82c-0.51-0.9-2.67,13.55,6.02,14.28c8.69,0.73,12.33-2.81,12.92-19.41
			c0,0-3.48,10.08-8.56,10.24C591.55,155.26,592.38,150.9,591.77,149.82L591.77,149.82z"/>
		<path class="st25" d="M628.19,268.72l-4.37-6.68l-29.41-2.11l-21.73,10.32c-6.55,3.11-10.7,9.73-10.64,16.98l0.15,18.16l0.04-0.02
			l-1.17,50.3l19.3-0.54c6.09-24.18,8.49-44.75,6.58-63.49L628.19,268.72z"/>
		<path class="st62" d="M594.76,167.91c0,0-5.32,27.07-5.45,43.37c-0.13,16.3-7.4,49.53-7.4,49.53c-2.62-4.87-11.92-3.41-12.76-7.85
			c0,0,8.15-53.62,9.59-67.68C580.14,171.55,585.45,171.65,594.76,167.91z"/>
		<path class="st23" d="M602.23,138.5c0,0-19.24-1.51-14.77-10.04c4.13-7.89,17.6,8.73,20.43,5.69L602.23,138.5z"/>
		<path class="st22" d="M578.74,235.26c0,0-4.86-3.33-7.97-1.71c-1.48,0.77-3.94,0.81-6.15,2.04c-2.43,1.35-5.05,5.07-5.05,5.07
			s-0.01,3.44,3.05,4.04c1.09,0.21,4.37-2.71,4.37-2.71c2.96,1.06,6.5,1.04,10.5,0.13L578.74,235.26z"/>
		<path class="st22" d="M556.11,234.98c0,0-4.6-3.68-7.82-2.29c-1.53,0.66-3.99,0.52-6.28,1.58c-2.52,1.17-5.41,4.68-5.41,4.68
			s-0.26,3.43,2.75,4.25c1.08,0.29,4.56-2.38,4.56-2.38c2.87,1.27,6.4,1.51,10.47,0.9L556.11,234.98z"/>
		<polygon class="st22" points="578.74,235.26 594.16,234.12 594.76,242.35 575.46,241.28 		"/>
		<rect x="534.12" y="239.88" class="st27" width="50.48" height="3.2"/>
		<path class="st62" d="M647.18,222.63c-0.18-7.5-0.76-16.4-2.19-25.53c-1.67-10.71-3.83-18.74-7.59-23.18
			c-3.29-3.89-6.44-4.48-10.63-6.55l-7.34-2.32c-4.49,20.88-7.59,40.81-5.64,61.48l-24.52,4.86l0.05,11.69h27.12h10.74l7.55-2.45
			l7.18-4.01C645.28,232.95,647.3,228.02,647.18,222.63z"/>
		<path class="st27" d="M546.98,243.08h-57.93l-17.48-38.95h56.6c0.81,0,1.54,0.47,1.87,1.21L546.98,243.08z"/>
		<path class="st23" d="M544.73,243.08H486.8l-16.67-37.16c-0.38-0.84,0.24-1.79,1.16-1.79h55.14c0.5,0,0.96,0.29,1.16,0.75
			L544.73,243.08z"/>
		<path class="st62" d="M613.19,217.82c0,0-0.49,20.72-5.27,30.25c-2.11,4.21-13.15,15.43-13.15,15.43s42.34,4.19,43.69-12.89
			c1.41-17.83,5.47-36.97,5.47-36.97L613.19,217.82z"/>
		<path class="st27" d="M509.13,223.85c0.69,2.43-1.19,4.4-4.2,4.4c-3.01,0-6.01-1.97-6.69-4.4c-0.69-2.43,1.19-4.4,4.2-4.4
			C505.45,219.45,508.44,221.42,509.13,223.85z"/>
		<path class="st24" d="M556.68,379.74L556.68,379.74c-1.38-0.54-2.01-2.15-1.4-3.61l53.63-128.17c0.61-1.46,2.23-2.21,3.61-1.67
			l0,0c1.38,0.54,2.01,2.15,1.4,3.61l-53.63,128.17C559.68,379.52,558.06,380.27,556.68,379.74z"/>
		<path class="st62" d="M647.18,222.63c-0.18-7.5-0.76-16.4-2.19-25.53c-1.67-10.71-3.83-18.74-7.59-23.18
			c-3.29-3.89-6.44-4.48-10.63-6.55l-7.34-2.32c28.13,14.41,19.02,45.24,20.97,65.92c-4.52,2.41-6.66,1.64-17.18,3.74
			c-5.62,1.71-11.13,4.19-19.58,5.69c-6.35-1.35-9.92-1.78-14.31-0.52v3.21h27.12h10.74l7.55-2.45l7.18-4.01
			C645.28,232.95,647.3,228.02,647.18,222.63z"/>
		<path class="st62" d="M613.02,226.72c0,0,12.2-4.25,16.87-4.25c0,0-14.19-0.39-16.75,0.2L613.02,226.72z"/>
		<path class="st23" d="M653.88,249.14H444.95c-1.66,0-3.03-1.36-3.03-3.03l0,0c0-1.66,1.36-3.03,3.03-3.03h208.92
			c1.66,0,3.03,1.36,3.03,3.03l0,0C656.9,247.77,655.54,249.14,653.88,249.14z"/>
		<path class="st22" d="M598.73,216.5l6.99-2.1l-3.4-7.19c0,0-11.03-4.95-12.75-1.57c-1.71,3.38-0.25,11.85,4.46,11.35
			C598.73,216.5,598.73,216.5,598.73,216.5z"/>
		<path class="st22" d="M595.24,209.38l-9.99-0.51c-1.09-0.06-1.94-0.99-1.88-2.08l0,0c0.06-1.09,0.99-1.94,2.08-1.88l9.99,0.51
			c1.09,0.06,1.94,0.99,1.88,2.08l0,0C597.26,208.59,596.33,209.44,595.24,209.38z"/>
		<path class="st22" d="M711.43,198.4c-0.97,7.27,10.35,21.98,9.54,37.43l6.7-0.06c0,0,1.72-31.16-9.22-46.4
			C716.61,193.31,714.38,196.54,711.43,198.4z"/>
		
			<rect x="693.09" y="347.14" transform="matrix(0.9997 -0.0233 0.0233 0.9997 -8.0567 16.3518)" class="st22" width="7.88" height="12.9"/>
		
			<rect x="660.43" y="346.27" transform="matrix(0.9997 -0.0234 0.0234 0.9997 -8.1007 15.6756)" class="st22" width="8.16" height="14.11"/>
		<path class="st65" d="M694.17,209.3l-35.06,1.46c-9.69,17.81-8.23,39.38-8.23,39.38s-0.62,43.21-0.13,45.01l8.45,54.88l11.89-1.73
			c-0.87-21.17-0.28-30.86-1.8-45.39l7.68-50.93c11.94-0.25,26.06,9.02,27.55-10.66C706.21,218.82,694.17,209.3,694.17,209.3z"/>
		<path class="st65" d="M674.68,214.99l7.75,77.65l6.83,58.11l13.08,0.54c1.88-22.86,4.12-36.39-1.63-52.96l3.83-57.3l-16.51-21.41
			L674.68,214.99z"/>
		<path class="st23" d="M692.94,358.14c0,0-1.65,8.28-1.47,13.35c0.03,0.86,0.5,1.76,1.27,2.4c0.77,0.64,1.73,0.95,2.58,0.83
			c1.84-0.26,3.94-0.56,5.24-0.74c0.81-0.12,1.5-0.5,1.95-1.09c0.27-0.35,0.6-0.78,0.95-1.24c1.58-2.06,0.81-4.1-0.21-6.98
			c-1.05-2.98-1.81-6.41-1.81-6.41C696.78,355.12,692.94,358.14,692.94,358.14z"/>
		<path class="st23" d="M648.2,120.82c0,0-9.72,13.11,3.3,24.33c13.03,11.22,11.12-0.74,11.12-0.74S657.84,122.95,648.2,120.82z"/>
		<path class="st23" d="M674.77,117.01c0,0,3.51,3.33,10.84,5.16c6.35,1.58,9.98,4.05,13.99,10.35
			c6.42,10.09,16.23,2.68,21.01,18.59c2.93,9.75-3.83,19.88-21.58,14.86c-17.75-5.02-36.07,14.86-46.32-18.13
			c-3.63-11.66,16.04-20.69,16.04-20.69L674.77,117.01z"/>
		<path class="st28" d="M650.74,156.38l14.09-5.32l8.93-1.85l11.61,2.55c5.76,1.26,9.67,6.62,9.12,12.49l-2.35,25.12l3.42,20.91
			c-14.02,5.73-27.12,8.68-36.46,0.48l-7.01-22.83L650.74,156.38z"/>
		<path class="st22" d="M661.01,139.77c0,0,1.75,7.52,3.2,13.74c0.39,1.66,1.64,2.98,3.27,3.46c1.63,0.48,3.4,0.04,4.62-1.15
			c0.4-0.39,0.79-0.77,1.16-1.13c1.67-1.63,2.25-4.08,1.49-6.29c-1.95-5.66-5.51-15.96-5.51-15.96L661.01,139.77L661.01,139.77z"/>
		<path class="st22" d="M661.92,143.66c0,0,5.24-0.4,7.36-2.66c0,0-1.85,6.36-6.23,7.55L661.92,143.66z"/>
		<path class="st22" d="M668.65,122.54c-0.65-2.86-3.49-4.66-6.35-4.02c-3.06,0.69-6.91,1.56-9.97,2.25
			c-2.86,0.65-4.21,3.42-4.02,6.35c0.23,3.46,2.31,10.27,4.42,15.03c1.19,2.68,3.99,4.77,6.86,4.13
			c3.06-0.69,11.56-5.66,11.21-11.33C670.53,130.64,669.6,126.75,668.65,122.54L668.65,122.54z"/>
		<path class="st23" d="M682.29,125.03c0,0-7.49-10.01-13.06-11.17c-8.04-1.68-16.16-2.14-21.55,7.85c0,0,5.2,16.65,29.95,6.31
			L682.29,125.03z"/>
		<path class="st22" d="M674.39,133.19c-0.31,2.39-2.16,4.13-4.14,3.87c-1.98-0.25-3.34-2.4-3.03-4.79
			c0.31-2.39,2.16-4.13,4.14-3.87C673.34,128.66,674.7,130.8,674.39,133.19z"/>
		<path class="st23" d="M659.82,358.69l-6.03,5.97c-1.43,1.42-3.29,2.33-5.29,2.6l-2.04,0.27c-0.91,0.12-1.63,0.81-1.8,1.71l0,0
			c-0.23,1.24,0.65,2.4,1.91,2.51l6.81,0.58l15.68-2.95c0,0,5.22-1.53,0.91-11.31L659.82,358.69z"/>
		<path class="st28" d="M650.74,156.38c0,0-5.47,0.79-8.74,12.36c-3.28,11.58-11.51,28.29-11.51,28.29s-11.75,17.22,8.96,16.46
			c12.16-0.45,21.29-32.9,21.29-32.9l1.51-11.05L650.74,156.38z"/>
		<path class="st22" d="M637.17,212.91l-32.56,1.65l-1.62-7.27l27.56-7.99C637.27,197.08,642.24,210.31,637.17,212.91z"/>
		<path class="st22" d="M720.98,235.83l-1.4,14.49c0,0,2.37,11.7,8.2,8.63c5.83-3.07,2.92-7.04,2.39-8.63
			c-0.53-1.59,2.43-5.55-2.49-14.55L720.98,235.83z"/>
		<path class="st28" d="M689.72,153.71c0,0,15.65,9.62,20.77,18.44c5.12,8.82,21.34,24.43,17.29,33.83
			c-4.05,9.4-13.58,9.71-19.58-1.92s-18.48-19.92-18.48-19.92V153.71z"/>
		<path class="st65" d="M528.33,177.25H497c-8.87,0-16.13-7.26-16.13-16.13v0c0-8.87,7.26-16.13,16.13-16.13h31.34
			c8.87,0,16.13,7.26,16.13,16.13v0C544.46,169.99,537.2,177.25,528.33,177.25z"/>
		<polygon class="st65" points="530.72,175.73 548.67,182.29 543.08,165.85 		"/>
		<path class="st27" d="M501.43,159.29c0,1.94-1.57,3.52-3.52,3.52c-1.94,0-3.52-1.57-3.52-3.52c0-1.94,1.57-3.52,3.52-3.52
			C499.85,155.77,501.43,157.35,501.43,159.29z"/>
		<path class="st27" d="M515.28,159.29c0,1.94-1.57,3.52-3.52,3.52c-1.94,0-3.52-1.57-3.52-3.52c0-1.94,1.57-3.52,3.52-3.52
			C513.71,155.77,515.28,157.35,515.28,159.29z"/>
		<path class="st27" d="M529.14,159.29c0,1.94-1.57,3.52-3.52,3.52c-1.94,0-3.52-1.57-3.52-3.52c0-1.94,1.57-3.52,3.52-3.52
			C527.56,155.77,529.14,157.35,529.14,159.29z"/>
		<polygon class="st23" points="676.96,251.98 667.17,251.98 671.69,286.92 		"/>
		<path class="st30" d="M654.77,196.64c0,0-10.1-5.44-8.12-14.12c1.99-8.69,1.64-9.75,1.64-9.75s-7.78,11.88-2.7,21.71
			c5.08,9.83,5.08,9.83,5.08,9.83L654.77,196.64z"/>
		<path class="st30" d="M695.54,187.96l-6.4-8.19c0.85,4.33-0.5,8.51-4.59,12.5c-0.69,7.44,2.03,20.08-2.26,22.72l13.83-4.38
			l-0.21-17.24L695.54,187.96z"/>
	</g>
	<g>
		<ellipse class="st20" cx="209.25" cy="438.12" rx="127.33" ry="9.03"/>
		<path class="st19" d="M124.87,437.28L124.87,437.28c-1.03-0.42-1.53-1.59-1.11-2.63l36.6-90.63c0.42-1.03,1.59-1.53,2.63-1.11l0,0
			c1.03,0.42,1.53,1.59,1.11,2.62l-36.6,90.63C127.08,437.2,125.9,437.7,124.87,437.28z"/>
		<path class="st19" d="M178.43,437.28L178.43,437.28c-1.03-0.42-1.53-1.59-1.11-2.63l36.6-90.63c0.42-1.03,1.59-1.53,2.63-1.11l0,0
			c1.03,0.42,1.53,1.59,1.11,2.62l-36.6,90.63C180.63,437.2,179.46,437.7,178.43,437.28z"/>
		<path class="st19" d="M201.79,437.28L201.79,437.28c1.03-0.42,1.53-1.59,1.11-2.63l-36.6-90.63c-0.42-1.03-1.59-1.53-2.63-1.11
			l0,0c-1.03,0.42-1.53,1.59-1.11,2.62l36.6,90.63C199.59,437.2,200.76,437.7,201.79,437.28z"/>
		<path class="st19" d="M196.46,396.42h36.52c0.88,0,1.6-0.72,1.6-1.6l0,0c0-0.88-0.72-1.6-1.6-1.6h-36.52c-0.88,0-1.6,0.72-1.6,1.6
			l0,0C194.86,395.7,195.58,396.42,196.46,396.42z"/>
		<path class="st19" d="M145.52,396.42h37.11c0.88,0,1.6-0.72,1.6-1.6l0,0c0-0.88-0.72-1.6-1.6-1.6h-37.11c-0.88,0-1.6,0.72-1.6,1.6
			l0,0C143.93,395.7,144.64,396.42,145.52,396.42z"/>
		<path class="st21" d="M200.96,216.95c0,0,16.64,6.77,1.28,23.22l-8.26-8.28v-8.41L200.96,216.95z"/>
		<path class="st23" d="M207.56,271.5c0,0-11.4-59.49-62.73-53.79c-61.51,6.84-52.24,147.35,42.38,146.72
			C314.01,363.59,232.38,267.18,207.56,271.5z"/>
		<path class="st21" d="M167.96,243.54c0,5.4,4.38,9.77,9.77,9.77c5.4,0,9.77-4.38,9.77-9.77c0-5.4-4.38-9.77-9.77-9.77
			C172.34,233.77,167.96,238.14,167.96,243.54z"/>
		<path class="st21" d="M157.45,251.62c0,5.4,4.38,9.77,9.77,9.77c5.4,0,9.77-4.38,9.77-9.77c0-5.4-4.38-9.77-9.77-9.77
			C161.83,241.85,157.45,246.22,157.45,251.62z"/>
		<path class="st19" d="M255.26,437.16L255.26,437.16c1.03-0.42,1.53-1.59,1.11-2.62L219.8,344c-0.42-1.03-1.59-1.53-2.62-1.11l0,0
			c-1.03,0.42-1.53,1.59-1.11,2.62l36.57,90.54C253.06,437.08,254.23,437.58,255.26,437.16z"/>
		
			<rect x="264.15" y="415.56" transform="matrix(-0.9944 0.1052 -0.1052 -0.9944 580.0169 815.5705)" class="st22" width="8.7" height="15.05"/>
		<path class="st23" d="M274.18,428.11l7.2,5.48c1.71,1.3,3.8,2.01,5.94,2.02l2.19,0.01c0.98,0,1.84,0.63,2.14,1.56l0,0
			c0.41,1.27-0.64,4.25-4.17,4.3l-4.62,0.15l-16.99-0.97c0,0-5.73-0.91-2.51-11.83L274.18,428.11z"/>
		<polygon class="st22" points="239.86,431.36 248.5,430.45 244.47,415.52 235.82,416.43 		"/>
		<path class="st23" d="M249.07,428.45l7.2,5.48c1.71,1.3,3.8,2.01,5.94,2.02l2.19,0.01c0.98,0,1.84,0.63,2.14,1.56l0,0
			c0.41,1.27-0.64,4.25-4.17,4.3l-4.62,0.15l-16.99-0.97c0,0-5.73-0.91-2.51-11.83L249.07,428.45z"/>
		<path class="st24" d="M225.57,311.97c0,0,8.33,23.93,7.75,28.59c-1.08,8.74-5.85,14.93-5.85,14.93l-40.87-0.32
			c-11.67-0.09-20.47-10.63-18.49-22.13c0.01-0.06,0.02-0.11,0.03-0.16c0.19-1.1,0.36-2.2,0.51-3.3c0.7-5.18,5.47-13.98,5.47-13.98
			c12.7,8.23,33.04,4.9,53.2-0.54L225.57,311.97z"/>
		<path class="st24" d="M268.7,421.2c3.5,0,6.26-2.95,6.03-6.44c-1.1-16.65-3.81-59.85-5.38-64.07c-2.16-5.82-7.38-10.1-12.96-12.52
			l-44.55-19.32l-23.83,25.41l61.37,15.41c-1.89,16.04,5.46,36.03,11.09,57.45c0.63,2.4,2.8,4.07,5.29,4.07H268.7z"/>
		<path class="st58" d="M266.56,421.2c-0.08-0.61-4.5-5.53-4.5-12.42c0-8.76-0.89-20.97-3.21-29.53
			c-4.55-16.82-0.97-24.46-1.87-26.79c-2.21-5.73-17.52-3.53-23.33-5.5l-41.72-12.98l-6.49,13.49l63.95,12.2
			c-2.06,16.08,2.85,35.23,8.12,55.92c0.84,3.29,3.81,5.6,7.2,5.6H266.56z"/>
		<path class="st24" d="M244.06,423.22c4.13-0.07,7.19-3.86,6.39-7.91c-2.91-14.81-9.98-46.75-13.46-61.92
			c-1.24-5.43-4.79-9.9-9.87-12.44l-40.58-20.32l-31.13,18.9l56.51,21.12c3.44,1.28,5.76,4.56,5.74,8.23
			c-0.1,13.77,6.92,29.89,12.93,48.15c1.25,3.79,4.8,6.34,8.78,6.27L244.06,423.22z"/>
		<path class="st22" d="M204.26,258.95l9.81,17.26l2.65,29.47l20.98,21.44l-5.97,4.42c0,0-12.13-7.52-21.68-14.73
			c-2.96-2.24-4.89-5.59-5.34-9.28c-1.02-8.35-2.79-22.82-2.79-22.82l-0.05-18.42L204.26,258.95z"/>
		<path class="st62" d="M169.83,278.52c1.25-12.75-11.74-22.52-4.48-24.32c5.59-2.39,14.92-5.26,14.92-5.26l3.86-0.32
			c0,0,0.58-0.1,1.45-0.25c4.66-0.81,8.7,2.33,14.16,4.21c5.2,1.67,14.49,5.11,15.61,28.73c0.01,0.19-1.71,1.03-3.97,2.05
			c0.03,1.96-0.35,3.86-1.39,5.63c-3.94,6.69-4.08,13.52-4.08,13.52l1.74,27.48c0,0-55.12,17.49-51.44,1L169.83,278.52z"/>
		<path class="st63" d="M196.62,325.91c0,0-21.1-15.81-20.01-31.73c0,0-4.75-6.12-6.59-11.62l-4.09,20.32l16.51,23.03l7.76,3.07
			L196.62,325.91z"/>
		<path class="st22" d="M199.99,325.49c0,0,2.72-0.04,5.8,3.79c4.01,4.97,4.19,3.83,0.96,8.29c-0.9,1.25-5.29,1.92-5.29,1.92
			l-8.15-3.42c0,0-10.58-0.76-8.54-7.33C186.21,324.1,199.99,325.49,199.99,325.49z"/>
		<g>
			<polygon class="st65" points="185.59,339.69 209.69,339.29 209.55,336.54 185.45,336.94 			"/>
			<path class="st27" d="M203.12,339.4l41.46-0.68l11.76-33.63l-43.01,0.71c-1.1,0.02-2.07,0.72-2.44,1.76l-10.04,28.71
				C200.32,337.81,201.48,339.43,203.12,339.4z"/>
			<path class="st65" d="M204.41,339.38l40.49-0.67c0.86-0.01,1.61-0.56,1.89-1.37l10.32-29.52c0.47-1.34-0.54-2.74-1.96-2.72
				l-40.49,0.67c-0.86,0.01-1.61,0.56-1.89,1.37l-10.32,29.52C201.98,338,202.99,339.4,204.41,339.38z"/>
			<path class="st27" d="M228.16,322.48c-0.42,2.09,1.12,3.76,3.45,3.72c2.33-0.04,4.56-1.77,4.98-3.86
				c0.42-2.09-1.12-3.76-3.45-3.72C230.82,318.66,228.58,320.39,228.16,322.48z"/>
		</g>
		<path class="st22" d="M169.18,289.77c-1.02,4.72-1.93,10.37,0.79,14.35l22.38,24.13l-5.97,5.53c0,0-14.29-12.94-23.15-21.93
			c-7.28-7.4-6.52-7.75-6.85-11.21c-0.41-4.19,0.13-11.44,0.29-16.94L169.18,289.77z"/>
		<path class="st23" d="M198.86,359.59c-0.22,0.22-27.34-64.15-58.51-66.67c-30.49-2.47-23.24,2.56-23.24,2.56l47.27,63.83
			L198.86,359.59z"/>
		<path class="st63" d="M209.91,289.87c0,0-3.25,3.82-5.95,4.59l3.72,1.95L209.91,289.87z"/>
		<path class="st68" d="M151.39,289.99c0,0-0.69-29.86,12.2-34.86c12.89-4.99,10.05,19.99,10.05,19.99l-3.25,20.11L151.39,289.99z"
			/>
		<path class="st46" d="M192.36,249.45l9.97,4.06c0,0,1.7,11.41-11.71,12.4c-13.41,0.99-18.88-14.16-18.88-14.16l9.6-3.96
			L192.36,249.45z"/>
		<path class="st39" d="M93.64,375.08c0,0,0.98-18.97-7.53-28.67c-8.51-9.7-3.6-30-15.05-36.61s-17.34-10.15-17.34-10.15
			s0.33,22.5,9.82,30.44c9.49,7.94,6.65,19.9,10.04,31.32c3.38,11.42,10.58,20.73,10.58,20.73L93.64,375.08z"/>
		<path class="st39" d="M95.6,275.83c0,0-8.18,1.76-8.18,14.56c0,12.79-15.38,22.5-10.47,40.58c4.91,18.09,7.53,39.26,7.53,39.26
			l1.32,10.69l13.08-2.75c0,0-8.11-22.06-5.2-28.67c2.91-6.62,1.02-20.73,0-28.23c-1.02-7.5,3.89-8.82,5.2-16.32
			C100.18,297.45,95.93,290.39,95.6,275.83z"/>
		<path class="st39" d="M102.6,375.29c0,0,5.82-46.71,27.41-36.56c21.6,10.15,15.38,31.22,21.92,36.56c0,0-8.84,4.46-12.76-4.8
			c-3.93-9.26-9.16-21.61-13.42-17.64c-4.25,3.97-4.69,22.45-13.96,22.45H102.6z"/>
		<path class="st39" d="M133.34,296.38c0,0,2.29,19.85-5.56,27.79c-7.85,7.94-13.74,10.15-16.36,19.19
			c-2.62,9.04-7.85,35.07-7.85,35.07l-7.93-2.06c0,0-1.23-19.55,4-28.37c5.24-8.82,1.64-22.5,12.43-30
			C122.87,310.49,132.03,308.29,133.34,296.38z"/>
		<path class="st20" d="M96.41,440.29L96.41,440.29c10.42,0,18.86-8.45,18.86-18.86v-47.17H77.55v47.17
			C77.55,431.85,85.99,440.29,96.41,440.29z"/>
		<path class="st40" d="M77.55,421.43V378c7.58,31.9,22.78,52.28,28.83,59.42c-2.89,1.81-6.3,2.87-9.97,2.87h0
			C85.99,440.29,77.55,431.85,77.55,421.43z"/>
		<path class="st60" d="M102.6,375.29c0,0,0.21-16.21,7.22-25.76"/>
		<path class="st60" d="M91.96,373.09c0,0-9.06-9-7.12-19.41c1.94-10.41,0.71-13.24-2.12-18c-2.82-4.76-4.39-16.31-5.72-18.84"/>
		<path class="st22" d="M193.99,239.17c0,0-1.46,7.11-2.67,12.99c-0.32,1.57-1.47,2.84-2.99,3.33c-1.52,0.49-3.19,0.12-4.37-0.97
			c-0.38-0.36-0.76-0.7-1.11-1.03c-1.61-1.49-2.21-3.78-1.55-5.87c1.7-5.36,4.8-15.13,4.8-15.13L193.99,239.17L193.99,239.17z"/>
		<path class="st22" d="M183.5,223.3c0.71-3.03,3.73-4.91,6.76-4.21c3.23,0.75,7.31,1.7,10.54,2.45c3.03,0.71,3.96,9.2,3.25,12.22
			c-1.04,4.46-1.54,5.25-2.58,9.7c-0.71,3.03-3.73,4.91-6.76,4.21c-3.23-0.75-9.21-2.22-10.77-5.54c-1.32-2.82-3-3.99-2.3-7.01
			C182.69,230.66,182.47,227.75,183.5,223.3L183.5,223.3z"/>
		<path class="st21" d="M199.75,221.3c0,0-8.48,15.23-22.02,17.68l-2.77-5.21c0,0-0.58-25.15,25.99-16.82L199.75,221.3z"/>
		<path class="st22" d="M179.68,235.69c0,2.1,1.26,3.8,2.81,3.8s2.81-1.7,2.81-3.8c0-2.1-1.26-3.8-2.81-3.8
			C180.94,231.89,179.68,233.59,179.68,235.69z"/>
		<polygon class="st50" points="192.38,247.02 191.67,248.55 186.79,244.09 		"/>
	</g>
</g>
</svg>
