<svg viewBox="0 0 46 46" height="46" width="46" xmlns="http://www.w3.org/2000/svg"><g transform="matrix(1.9166666666666667,0,0,1.9166666666666667,0,0)"><path d="M19.631,10.483a8.94,8.94,0,0,0-2.511-3.6,8.937,8.937,0,0,0-3.6-2.511A2.993,2.993,0,0,0,9.842,5.91S3.355,16.147.946,21.049a1.5,1.5,0,0,0,2,2c4.9-2.41,15.139-8.9,15.139-8.9A3,3,0,0,0,19.631,10.483Z" fill="none" stroke="#000" stroke-linecap="round" stroke-linejoin="round" stroke-width="1.5"></path><path d="M17.12 6.88L20.322 3.678" fill="none" stroke="#000" stroke-linecap="round" stroke-linejoin="round" stroke-width="1.5"></path><path d="M18.541 8.443L23.213 7.63" fill="none" stroke="#000" stroke-linecap="round" stroke-linejoin="round" stroke-width="1.5"></path><path d="M15.556 5.459L16.37 0.786" fill="none" stroke="#000" stroke-linecap="round" stroke-linejoin="round" stroke-width="1.5"></path><path d="M9.836 5.92L13.427 9.511" fill="none" stroke="#000" stroke-linecap="round" stroke-linejoin="round" stroke-width="1.5"></path><path d="M4.208 15.141L7.064 17.997" fill="none" stroke="#000" stroke-linecap="round" stroke-linejoin="round" stroke-width="1.5"></path><path d="M10.776 13.224L14.157 16.605" fill="none" stroke="#000" stroke-linecap="round" stroke-linejoin="round" stroke-width="1.5"></path></g></svg>