<svg viewBox="0 0 46 46" height="46" width="46" xmlns="http://www.w3.org/2000/svg"><g transform="matrix(1.9166666666666667,0,0,1.9166666666666667,0,0)"><path d="M6.111,6.625A6,6,0,0,0,12.7,12.6a6.175,6.175,0,0,0,5.411-6.23V2.125a.75.75,0,0,0-1.2-.6l-1.8,1.35L13.011,1.3a1.5,1.5,0,0,0-1.8,0l-2.1,1.575-1.8-1.35a.75.75,0,0,0-1.2.6Z" fill="none" stroke="#000" stroke-linecap="round" stroke-linejoin="round" stroke-width="1.5"></path><path d="M12.111 12.625L12.111 23.125" fill="none" stroke="#000" stroke-linecap="round" stroke-linejoin="round" stroke-width="1.5"></path><path d="M4.024 17.450 A1.782 3.367 0 1 0 7.588 17.450 A1.782 3.367 0 1 0 4.024 17.450 Z" fill="none" stroke="#000" stroke-linecap="round" stroke-linejoin="round" stroke-width="1.5" transform="translate(-12.428 19.84) rotate(-79.066)"></path><path d="M15.050 17.550 A3.367 1.782 0 1 0 21.784 17.550 A3.367 1.782 0 1 0 15.050 17.550 Z" fill="none" stroke="#000" stroke-linecap="round" stroke-linejoin="round" stroke-width="1.5" transform="translate(-2.995 3.812) rotate(-10.934)"></path></g></svg>